G04 #@! TF.FileFunction,Soldermask,Top*
%FSLAX46Y46*%
G04 Gerber Fmt 4.6, Leading zero omitted, Abs format (unit mm)*
G04 Created by KiCad (PCBNEW 4.0.6-e0-6349~53~ubuntu16.04.1) date Sun Jul  9 20:30:41 2017*
%MOMM*%
%LPD*%
G01*
G04 APERTURE LIST*
%ADD10C,0.100000*%
%ADD11R,1.100000X1.100000*%
%ADD12R,1.000000X0.900000*%
%ADD13R,0.750000X0.400000*%
%ADD14R,0.875000X1.340000*%
%ADD15R,1.160000X0.750000*%
%ADD16C,4.164000*%
%ADD17R,1.150000X1.530000*%
%ADD18R,1.350000X1.100000*%
%ADD19R,0.850000X0.900000*%
%ADD20R,0.900000X0.850000*%
%ADD21R,1.700000X1.100000*%
%ADD22R,0.900000X0.900000*%
%ADD23R,1.000000X0.600000*%
%ADD24R,0.600000X1.000000*%
%ADD25R,1.800000X1.000000*%
%ADD26C,1.500000*%
%ADD27O,1.500000X1.500000*%
%ADD28C,2.100000*%
G04 APERTURE END LIST*
D10*
D11*
X138250000Y-100750000D03*
X135750000Y-100750000D03*
D12*
X140000000Y-89550000D03*
X140000000Y-91450000D03*
X142000000Y-90500000D03*
D13*
X165582000Y-83836000D03*
X165582000Y-84336000D03*
X165582000Y-84836000D03*
X165582000Y-85336000D03*
X165582000Y-85836000D03*
X168682000Y-85836000D03*
X168682000Y-85336000D03*
X168682000Y-84836000D03*
X168682000Y-84336000D03*
X168682000Y-83836000D03*
D14*
X167519500Y-85456000D03*
X167519500Y-84216000D03*
X166744500Y-85456000D03*
X166744500Y-84216000D03*
D15*
X122083000Y-102994000D03*
X122083000Y-103944000D03*
X122083000Y-104894000D03*
X124283000Y-104894000D03*
X124283000Y-102994000D03*
D10*
G36*
X120707689Y-90197911D02*
X120955176Y-90445398D01*
X119965227Y-91435347D01*
X119717740Y-91187860D01*
X120707689Y-90197911D01*
X120707689Y-90197911D01*
G37*
G36*
X120354136Y-89844358D02*
X120601623Y-90091845D01*
X119611674Y-91081794D01*
X119364187Y-90834307D01*
X120354136Y-89844358D01*
X120354136Y-89844358D01*
G37*
G36*
X120000582Y-89490804D02*
X120248069Y-89738291D01*
X119258120Y-90728240D01*
X119010633Y-90480753D01*
X120000582Y-89490804D01*
X120000582Y-89490804D01*
G37*
G36*
X119647029Y-89137251D02*
X119894516Y-89384738D01*
X118904567Y-90374687D01*
X118657080Y-90127200D01*
X119647029Y-89137251D01*
X119647029Y-89137251D01*
G37*
G36*
X119293476Y-88783698D02*
X119540963Y-89031185D01*
X118551014Y-90021134D01*
X118303527Y-89773647D01*
X119293476Y-88783698D01*
X119293476Y-88783698D01*
G37*
G36*
X118939922Y-88430144D02*
X119187409Y-88677631D01*
X118197460Y-89667580D01*
X117949973Y-89420093D01*
X118939922Y-88430144D01*
X118939922Y-88430144D01*
G37*
G36*
X118586369Y-88076591D02*
X118833856Y-88324078D01*
X117843907Y-89314027D01*
X117596420Y-89066540D01*
X118586369Y-88076591D01*
X118586369Y-88076591D01*
G37*
G36*
X118232815Y-87723037D02*
X118480302Y-87970524D01*
X117490353Y-88960473D01*
X117242866Y-88712986D01*
X118232815Y-87723037D01*
X118232815Y-87723037D01*
G37*
G36*
X117879262Y-87369484D02*
X118126749Y-87616971D01*
X117136800Y-88606920D01*
X116889313Y-88359433D01*
X117879262Y-87369484D01*
X117879262Y-87369484D01*
G37*
G36*
X117525709Y-87015931D02*
X117773196Y-87263418D01*
X116783247Y-88253367D01*
X116535760Y-88005880D01*
X117525709Y-87015931D01*
X117525709Y-87015931D01*
G37*
G36*
X117172155Y-86662377D02*
X117419642Y-86909864D01*
X116429693Y-87899813D01*
X116182206Y-87652326D01*
X117172155Y-86662377D01*
X117172155Y-86662377D01*
G37*
G36*
X116818602Y-86308824D02*
X117066089Y-86556311D01*
X116076140Y-87546260D01*
X115828653Y-87298773D01*
X116818602Y-86308824D01*
X116818602Y-86308824D01*
G37*
G36*
X113565911Y-86556311D02*
X113813398Y-86308824D01*
X114803347Y-87298773D01*
X114555860Y-87546260D01*
X113565911Y-86556311D01*
X113565911Y-86556311D01*
G37*
G36*
X113212358Y-86909864D02*
X113459845Y-86662377D01*
X114449794Y-87652326D01*
X114202307Y-87899813D01*
X113212358Y-86909864D01*
X113212358Y-86909864D01*
G37*
G36*
X112858804Y-87263418D02*
X113106291Y-87015931D01*
X114096240Y-88005880D01*
X113848753Y-88253367D01*
X112858804Y-87263418D01*
X112858804Y-87263418D01*
G37*
G36*
X112505251Y-87616971D02*
X112752738Y-87369484D01*
X113742687Y-88359433D01*
X113495200Y-88606920D01*
X112505251Y-87616971D01*
X112505251Y-87616971D01*
G37*
G36*
X112151698Y-87970524D02*
X112399185Y-87723037D01*
X113389134Y-88712986D01*
X113141647Y-88960473D01*
X112151698Y-87970524D01*
X112151698Y-87970524D01*
G37*
G36*
X111798144Y-88324078D02*
X112045631Y-88076591D01*
X113035580Y-89066540D01*
X112788093Y-89314027D01*
X111798144Y-88324078D01*
X111798144Y-88324078D01*
G37*
G36*
X111444591Y-88677631D02*
X111692078Y-88430144D01*
X112682027Y-89420093D01*
X112434540Y-89667580D01*
X111444591Y-88677631D01*
X111444591Y-88677631D01*
G37*
G36*
X111091037Y-89031185D02*
X111338524Y-88783698D01*
X112328473Y-89773647D01*
X112080986Y-90021134D01*
X111091037Y-89031185D01*
X111091037Y-89031185D01*
G37*
G36*
X110737484Y-89384738D02*
X110984971Y-89137251D01*
X111974920Y-90127200D01*
X111727433Y-90374687D01*
X110737484Y-89384738D01*
X110737484Y-89384738D01*
G37*
G36*
X110383931Y-89738291D02*
X110631418Y-89490804D01*
X111621367Y-90480753D01*
X111373880Y-90728240D01*
X110383931Y-89738291D01*
X110383931Y-89738291D01*
G37*
G36*
X110030377Y-90091845D02*
X110277864Y-89844358D01*
X111267813Y-90834307D01*
X111020326Y-91081794D01*
X110030377Y-90091845D01*
X110030377Y-90091845D01*
G37*
G36*
X109676824Y-90445398D02*
X109924311Y-90197911D01*
X110914260Y-91187860D01*
X110666773Y-91435347D01*
X109676824Y-90445398D01*
X109676824Y-90445398D01*
G37*
G36*
X110666773Y-92460653D02*
X110914260Y-92708140D01*
X109924311Y-93698089D01*
X109676824Y-93450602D01*
X110666773Y-92460653D01*
X110666773Y-92460653D01*
G37*
G36*
X111020326Y-92814206D02*
X111267813Y-93061693D01*
X110277864Y-94051642D01*
X110030377Y-93804155D01*
X111020326Y-92814206D01*
X111020326Y-92814206D01*
G37*
G36*
X111373880Y-93167760D02*
X111621367Y-93415247D01*
X110631418Y-94405196D01*
X110383931Y-94157709D01*
X111373880Y-93167760D01*
X111373880Y-93167760D01*
G37*
G36*
X111727433Y-93521313D02*
X111974920Y-93768800D01*
X110984971Y-94758749D01*
X110737484Y-94511262D01*
X111727433Y-93521313D01*
X111727433Y-93521313D01*
G37*
G36*
X112080986Y-93874866D02*
X112328473Y-94122353D01*
X111338524Y-95112302D01*
X111091037Y-94864815D01*
X112080986Y-93874866D01*
X112080986Y-93874866D01*
G37*
G36*
X112434540Y-94228420D02*
X112682027Y-94475907D01*
X111692078Y-95465856D01*
X111444591Y-95218369D01*
X112434540Y-94228420D01*
X112434540Y-94228420D01*
G37*
G36*
X112788093Y-94581973D02*
X113035580Y-94829460D01*
X112045631Y-95819409D01*
X111798144Y-95571922D01*
X112788093Y-94581973D01*
X112788093Y-94581973D01*
G37*
G36*
X113141647Y-94935527D02*
X113389134Y-95183014D01*
X112399185Y-96172963D01*
X112151698Y-95925476D01*
X113141647Y-94935527D01*
X113141647Y-94935527D01*
G37*
G36*
X113495200Y-95289080D02*
X113742687Y-95536567D01*
X112752738Y-96526516D01*
X112505251Y-96279029D01*
X113495200Y-95289080D01*
X113495200Y-95289080D01*
G37*
G36*
X113848753Y-95642633D02*
X114096240Y-95890120D01*
X113106291Y-96880069D01*
X112858804Y-96632582D01*
X113848753Y-95642633D01*
X113848753Y-95642633D01*
G37*
G36*
X114202307Y-95996187D02*
X114449794Y-96243674D01*
X113459845Y-97233623D01*
X113212358Y-96986136D01*
X114202307Y-95996187D01*
X114202307Y-95996187D01*
G37*
G36*
X114555860Y-96349740D02*
X114803347Y-96597227D01*
X113813398Y-97587176D01*
X113565911Y-97339689D01*
X114555860Y-96349740D01*
X114555860Y-96349740D01*
G37*
G36*
X115828653Y-96597227D02*
X116076140Y-96349740D01*
X117066089Y-97339689D01*
X116818602Y-97587176D01*
X115828653Y-96597227D01*
X115828653Y-96597227D01*
G37*
G36*
X116182206Y-96243674D02*
X116429693Y-95996187D01*
X117419642Y-96986136D01*
X117172155Y-97233623D01*
X116182206Y-96243674D01*
X116182206Y-96243674D01*
G37*
G36*
X116535760Y-95890120D02*
X116783247Y-95642633D01*
X117773196Y-96632582D01*
X117525709Y-96880069D01*
X116535760Y-95890120D01*
X116535760Y-95890120D01*
G37*
G36*
X116889313Y-95536567D02*
X117136800Y-95289080D01*
X118126749Y-96279029D01*
X117879262Y-96526516D01*
X116889313Y-95536567D01*
X116889313Y-95536567D01*
G37*
G36*
X117242866Y-95183014D02*
X117490353Y-94935527D01*
X118480302Y-95925476D01*
X118232815Y-96172963D01*
X117242866Y-95183014D01*
X117242866Y-95183014D01*
G37*
G36*
X117596420Y-94829460D02*
X117843907Y-94581973D01*
X118833856Y-95571922D01*
X118586369Y-95819409D01*
X117596420Y-94829460D01*
X117596420Y-94829460D01*
G37*
G36*
X117949973Y-94475907D02*
X118197460Y-94228420D01*
X119187409Y-95218369D01*
X118939922Y-95465856D01*
X117949973Y-94475907D01*
X117949973Y-94475907D01*
G37*
G36*
X118303527Y-94122353D02*
X118551014Y-93874866D01*
X119540963Y-94864815D01*
X119293476Y-95112302D01*
X118303527Y-94122353D01*
X118303527Y-94122353D01*
G37*
G36*
X118657080Y-93768800D02*
X118904567Y-93521313D01*
X119894516Y-94511262D01*
X119647029Y-94758749D01*
X118657080Y-93768800D01*
X118657080Y-93768800D01*
G37*
G36*
X119010633Y-93415247D02*
X119258120Y-93167760D01*
X120248069Y-94157709D01*
X120000582Y-94405196D01*
X119010633Y-93415247D01*
X119010633Y-93415247D01*
G37*
G36*
X119364187Y-93061693D02*
X119611674Y-92814206D01*
X120601623Y-93804155D01*
X120354136Y-94051642D01*
X119364187Y-93061693D01*
X119364187Y-93061693D01*
G37*
G36*
X119717740Y-92708140D02*
X119965227Y-92460653D01*
X120955176Y-93450602D01*
X120707689Y-93698089D01*
X119717740Y-92708140D01*
X119717740Y-92708140D01*
G37*
D16*
X154500000Y-85250000D03*
X148336000Y-85344000D03*
X141750000Y-85344000D03*
X160740864Y-85344000D03*
D13*
X141192500Y-96493000D03*
X141192500Y-96993000D03*
X141192500Y-97493000D03*
X141192500Y-97993000D03*
X141192500Y-98493000D03*
X144292500Y-98493000D03*
X144292500Y-97993000D03*
X144292500Y-97493000D03*
X144292500Y-96993000D03*
X144292500Y-96493000D03*
D17*
X143245000Y-98458000D03*
X143263000Y-97028000D03*
X142242500Y-98458000D03*
X142240000Y-97028000D03*
D13*
X141192500Y-98993000D03*
X144292500Y-98993000D03*
D18*
X167894000Y-89646000D03*
X167894000Y-87646000D03*
X166116000Y-89646000D03*
X166116000Y-87646000D03*
D19*
X127500000Y-88750000D03*
X127500000Y-90250000D03*
X126000000Y-90250000D03*
X126000000Y-88750000D03*
X162314000Y-89548000D03*
X162314000Y-91048000D03*
X162314000Y-92596000D03*
X162314000Y-94096000D03*
X133604000Y-95746000D03*
X133604000Y-94246000D03*
X133604000Y-92698000D03*
X133604000Y-91198000D03*
X133604000Y-97294000D03*
X133604000Y-98794000D03*
D20*
X148250000Y-99250000D03*
X149750000Y-99250000D03*
D19*
X151250000Y-97750000D03*
X151250000Y-99250000D03*
X149750000Y-97750000D03*
X149750000Y-96250000D03*
D21*
X119670000Y-103140000D03*
X119670000Y-106140000D03*
D10*
G36*
X126368718Y-86017678D02*
X125767678Y-86618718D01*
X125131282Y-85982322D01*
X125732322Y-85381282D01*
X126368718Y-86017678D01*
X126368718Y-86017678D01*
G37*
G36*
X125308058Y-84957018D02*
X124707018Y-85558058D01*
X124070622Y-84921662D01*
X124671662Y-84320622D01*
X125308058Y-84957018D01*
X125308058Y-84957018D01*
G37*
D19*
X117638000Y-102874000D03*
X117638000Y-104374000D03*
D10*
G36*
X122100952Y-82951992D02*
X122701992Y-82350952D01*
X123338388Y-82987348D01*
X122737348Y-83588388D01*
X122100952Y-82951992D01*
X122100952Y-82951992D01*
G37*
G36*
X123161612Y-84012652D02*
X123762652Y-83411612D01*
X124399048Y-84048008D01*
X123798008Y-84649048D01*
X123161612Y-84012652D01*
X123161612Y-84012652D01*
G37*
D20*
X117750000Y-101500000D03*
X119250000Y-101500000D03*
D19*
X126274000Y-104906000D03*
X126274000Y-106406000D03*
D21*
X128306000Y-103140000D03*
X128306000Y-106140000D03*
D19*
X126274000Y-102850000D03*
X126274000Y-101350000D03*
D20*
X115000000Y-83250000D03*
X116500000Y-83250000D03*
X110478000Y-97536000D03*
X108978000Y-97536000D03*
D19*
X109250000Y-99750000D03*
X109250000Y-101250000D03*
D22*
X171196000Y-91008000D03*
X171196000Y-89408000D03*
D23*
X171196000Y-88126000D03*
X171196000Y-86626000D03*
X171196000Y-83820000D03*
X171196000Y-85320000D03*
X143500000Y-93500000D03*
X143500000Y-92000000D03*
X138250000Y-91000000D03*
X138250000Y-89500000D03*
D24*
X133362000Y-102108000D03*
X134862000Y-102108000D03*
X133362000Y-103632000D03*
X134862000Y-103632000D03*
D23*
X143500000Y-89000000D03*
X143500000Y-90500000D03*
D24*
X139458000Y-102108000D03*
X140958000Y-102108000D03*
X139458000Y-103632000D03*
X140958000Y-103632000D03*
D23*
X149750000Y-89000000D03*
X149750000Y-90500000D03*
D24*
X132322000Y-93472000D03*
X130822000Y-93472000D03*
D25*
X128524000Y-93546000D03*
X128524000Y-96446000D03*
D23*
X151250000Y-89000000D03*
X151250000Y-90500000D03*
X145000000Y-89000000D03*
X145000000Y-90500000D03*
D24*
X132322000Y-96520000D03*
X130822000Y-96520000D03*
D23*
X152750000Y-90500000D03*
X152750000Y-89000000D03*
X148250000Y-90500000D03*
X148250000Y-89000000D03*
D24*
X123500000Y-95500000D03*
X122000000Y-95500000D03*
D23*
X109750000Y-85500000D03*
X109750000Y-87000000D03*
D24*
X112000000Y-83250000D03*
X113500000Y-83250000D03*
D26*
X138250000Y-95250000D03*
D27*
X138250000Y-92710000D03*
D10*
G36*
X124934494Y-87416727D02*
X123166727Y-89184494D01*
X121681802Y-87699569D01*
X123449569Y-85931802D01*
X124934494Y-87416727D01*
X124934494Y-87416727D01*
G37*
G36*
X122318198Y-84800431D02*
X120550431Y-86568198D01*
X119065506Y-85083273D01*
X120833273Y-83315506D01*
X122318198Y-84800431D01*
X122318198Y-84800431D01*
G37*
D16*
X136144000Y-85344000D03*
X130556000Y-85344000D03*
D11*
X138250000Y-105000000D03*
X135750000Y-105000000D03*
D28*
X163830000Y-105410000D03*
M02*
