G04 #@! TF.FileFunction,Legend,Top*
%FSLAX46Y46*%
G04 Gerber Fmt 4.6, Leading zero omitted, Abs format (unit mm)*
G04 Created by KiCad (PCBNEW 4.0.6-e0-6349~53~ubuntu16.04.1) date Sun Jul  9 20:30:41 2017*
%MOMM*%
%LPD*%
G01*
G04 APERTURE LIST*
%ADD10C,0.100000*%
%ADD11C,0.250000*%
%ADD12C,0.120000*%
%ADD13C,0.150000*%
G04 APERTURE END LIST*
D10*
D11*
X168654762Y-107059524D02*
X168702381Y-106916667D01*
X168702381Y-106678571D01*
X168654762Y-106583333D01*
X168607143Y-106535714D01*
X168511905Y-106488095D01*
X168416667Y-106488095D01*
X168321429Y-106535714D01*
X168273810Y-106583333D01*
X168226190Y-106678571D01*
X168178571Y-106869048D01*
X168130952Y-106964286D01*
X168083333Y-107011905D01*
X167988095Y-107059524D01*
X167892857Y-107059524D01*
X167797619Y-107011905D01*
X167750000Y-106964286D01*
X167702381Y-106869048D01*
X167702381Y-106630952D01*
X167750000Y-106488095D01*
X167702381Y-106202381D02*
X167702381Y-105630952D01*
X168702381Y-105916667D02*
X167702381Y-105916667D01*
X168416667Y-105345238D02*
X168416667Y-104869047D01*
X168702381Y-105440476D02*
X167702381Y-105107143D01*
X168702381Y-104773809D01*
X167702381Y-104583333D02*
X167702381Y-104011904D01*
X168702381Y-104297619D02*
X167702381Y-104297619D01*
X167702381Y-103678571D02*
X168511905Y-103678571D01*
X168607143Y-103630952D01*
X168654762Y-103583333D01*
X168702381Y-103488095D01*
X168702381Y-103297618D01*
X168654762Y-103202380D01*
X168607143Y-103154761D01*
X168511905Y-103107142D01*
X167702381Y-103107142D01*
X168654762Y-102678571D02*
X168702381Y-102535714D01*
X168702381Y-102297618D01*
X168654762Y-102202380D01*
X168607143Y-102154761D01*
X168511905Y-102107142D01*
X168416667Y-102107142D01*
X168321429Y-102154761D01*
X168273810Y-102202380D01*
X168226190Y-102297618D01*
X168178571Y-102488095D01*
X168130952Y-102583333D01*
X168083333Y-102630952D01*
X167988095Y-102678571D01*
X167892857Y-102678571D01*
X167797619Y-102630952D01*
X167750000Y-102583333D01*
X167702381Y-102488095D01*
X167702381Y-102249999D01*
X167750000Y-102107142D01*
X169452381Y-106821429D02*
X169452381Y-106630952D01*
X169500000Y-106535714D01*
X169595238Y-106440476D01*
X169785714Y-106392857D01*
X170119048Y-106392857D01*
X170309524Y-106440476D01*
X170404762Y-106535714D01*
X170452381Y-106630952D01*
X170452381Y-106821429D01*
X170404762Y-106916667D01*
X170309524Y-107011905D01*
X170119048Y-107059524D01*
X169785714Y-107059524D01*
X169595238Y-107011905D01*
X169500000Y-106916667D01*
X169452381Y-106821429D01*
X170452381Y-105964286D02*
X169452381Y-105964286D01*
X170452381Y-105392857D01*
X169452381Y-105392857D01*
X170071429Y-104154762D02*
X170071429Y-103392857D01*
X170357143Y-101583333D02*
X170404762Y-101630952D01*
X170452381Y-101773809D01*
X170452381Y-101869047D01*
X170404762Y-102011905D01*
X170309524Y-102107143D01*
X170214286Y-102154762D01*
X170023810Y-102202381D01*
X169880952Y-102202381D01*
X169690476Y-102154762D01*
X169595238Y-102107143D01*
X169500000Y-102011905D01*
X169452381Y-101869047D01*
X169452381Y-101773809D01*
X169500000Y-101630952D01*
X169547619Y-101583333D01*
X170452381Y-101154762D02*
X169452381Y-101154762D01*
X169928571Y-101154762D02*
X169928571Y-100583333D01*
X170452381Y-100583333D02*
X169452381Y-100583333D01*
X170166667Y-100154762D02*
X170166667Y-99678571D01*
X170452381Y-100250000D02*
X169452381Y-99916667D01*
X170452381Y-99583333D01*
X170452381Y-98678571D02*
X169976190Y-99011905D01*
X170452381Y-99250000D02*
X169452381Y-99250000D01*
X169452381Y-98869047D01*
X169500000Y-98773809D01*
X169547619Y-98726190D01*
X169642857Y-98678571D01*
X169785714Y-98678571D01*
X169880952Y-98726190D01*
X169928571Y-98773809D01*
X169976190Y-98869047D01*
X169976190Y-99250000D01*
X169500000Y-97726190D02*
X169452381Y-97821428D01*
X169452381Y-97964285D01*
X169500000Y-98107143D01*
X169595238Y-98202381D01*
X169690476Y-98250000D01*
X169880952Y-98297619D01*
X170023810Y-98297619D01*
X170214286Y-98250000D01*
X170309524Y-98202381D01*
X170404762Y-98107143D01*
X170452381Y-97964285D01*
X170452381Y-97869047D01*
X170404762Y-97726190D01*
X170357143Y-97678571D01*
X170023810Y-97678571D01*
X170023810Y-97869047D01*
X170452381Y-97250000D02*
X169452381Y-97250000D01*
X170452381Y-96773810D02*
X169452381Y-96773810D01*
X170452381Y-96202381D01*
X169452381Y-96202381D01*
X169500000Y-95202381D02*
X169452381Y-95297619D01*
X169452381Y-95440476D01*
X169500000Y-95583334D01*
X169595238Y-95678572D01*
X169690476Y-95726191D01*
X169880952Y-95773810D01*
X170023810Y-95773810D01*
X170214286Y-95726191D01*
X170309524Y-95678572D01*
X170404762Y-95583334D01*
X170452381Y-95440476D01*
X170452381Y-95345238D01*
X170404762Y-95202381D01*
X170357143Y-95154762D01*
X170023810Y-95154762D01*
X170023810Y-95345238D01*
X171678571Y-106678571D02*
X171726190Y-106535714D01*
X171773810Y-106488095D01*
X171869048Y-106440476D01*
X172011905Y-106440476D01*
X172107143Y-106488095D01*
X172154762Y-106535714D01*
X172202381Y-106630952D01*
X172202381Y-107011905D01*
X171202381Y-107011905D01*
X171202381Y-106678571D01*
X171250000Y-106583333D01*
X171297619Y-106535714D01*
X171392857Y-106488095D01*
X171488095Y-106488095D01*
X171583333Y-106535714D01*
X171630952Y-106583333D01*
X171678571Y-106678571D01*
X171678571Y-107011905D01*
X172202381Y-105535714D02*
X172202381Y-106011905D01*
X171202381Y-106011905D01*
X172202381Y-105202381D02*
X171202381Y-105202381D01*
X172202381Y-104726191D02*
X171202381Y-104726191D01*
X172202381Y-104154762D01*
X171202381Y-104154762D01*
X172202381Y-103678572D02*
X171202381Y-103678572D01*
X172202381Y-103107143D02*
X171630952Y-103535715D01*
X171202381Y-103107143D02*
X171773810Y-103678572D01*
X172202381Y-102678572D02*
X171202381Y-102678572D01*
X172202381Y-102202382D02*
X171202381Y-102202382D01*
X172202381Y-101630953D01*
X171202381Y-101630953D01*
X171250000Y-100630953D02*
X171202381Y-100726191D01*
X171202381Y-100869048D01*
X171250000Y-101011906D01*
X171345238Y-101107144D01*
X171440476Y-101154763D01*
X171630952Y-101202382D01*
X171773810Y-101202382D01*
X171964286Y-101154763D01*
X172059524Y-101107144D01*
X172154762Y-101011906D01*
X172202381Y-100869048D01*
X172202381Y-100773810D01*
X172154762Y-100630953D01*
X172107143Y-100583334D01*
X171773810Y-100583334D01*
X171773810Y-100773810D01*
X171821429Y-99392858D02*
X171821429Y-98630953D01*
X171678571Y-97392858D02*
X171678571Y-97059524D01*
X172202381Y-96916667D02*
X172202381Y-97392858D01*
X171202381Y-97392858D01*
X171202381Y-96916667D01*
X172202381Y-95916667D02*
X171726190Y-96250001D01*
X172202381Y-96488096D02*
X171202381Y-96488096D01*
X171202381Y-96107143D01*
X171250000Y-96011905D01*
X171297619Y-95964286D01*
X171392857Y-95916667D01*
X171535714Y-95916667D01*
X171630952Y-95964286D01*
X171678571Y-96011905D01*
X171726190Y-96107143D01*
X171726190Y-96488096D01*
X172202381Y-94916667D02*
X171726190Y-95250001D01*
X172202381Y-95488096D02*
X171202381Y-95488096D01*
X171202381Y-95107143D01*
X171250000Y-95011905D01*
X171297619Y-94964286D01*
X171392857Y-94916667D01*
X171535714Y-94916667D01*
X171630952Y-94964286D01*
X171678571Y-95011905D01*
X171726190Y-95107143D01*
X171726190Y-95488096D01*
X171202381Y-94297620D02*
X171202381Y-94107143D01*
X171250000Y-94011905D01*
X171345238Y-93916667D01*
X171535714Y-93869048D01*
X171869048Y-93869048D01*
X172059524Y-93916667D01*
X172154762Y-94011905D01*
X172202381Y-94107143D01*
X172202381Y-94297620D01*
X172154762Y-94392858D01*
X172059524Y-94488096D01*
X171869048Y-94535715D01*
X171535714Y-94535715D01*
X171345238Y-94488096D01*
X171250000Y-94392858D01*
X171202381Y-94297620D01*
X172202381Y-92869048D02*
X171726190Y-93202382D01*
X172202381Y-93440477D02*
X171202381Y-93440477D01*
X171202381Y-93059524D01*
X171250000Y-92964286D01*
X171297619Y-92916667D01*
X171392857Y-92869048D01*
X171535714Y-92869048D01*
X171630952Y-92916667D01*
X171678571Y-92964286D01*
X171726190Y-93059524D01*
X171726190Y-93440477D01*
D12*
X138900000Y-101600000D02*
X138900000Y-99900000D01*
X138900000Y-99900000D02*
X135750000Y-99900000D01*
X138900000Y-101600000D02*
X135750000Y-101600000D01*
X141760000Y-92080000D02*
X141760000Y-91150000D01*
X141760000Y-88920000D02*
X141760000Y-89850000D01*
X141760000Y-88920000D02*
X139600000Y-88920000D01*
X141760000Y-92080000D02*
X140300000Y-92080000D01*
D13*
X165907000Y-86486000D02*
X168357000Y-86486000D01*
X165182000Y-83186000D02*
X168357000Y-83186000D01*
D12*
X122283000Y-105554000D02*
X124083000Y-105554000D01*
X124083000Y-102334000D02*
X121633000Y-102334000D01*
D13*
X120442524Y-91948000D02*
X120124326Y-91629802D01*
X115316000Y-97074524D02*
X114944769Y-96703293D01*
X110189476Y-91948000D02*
X110560707Y-92319231D01*
X115316000Y-86821476D02*
X115687231Y-87192707D01*
X120442524Y-91948000D02*
X120071293Y-92319231D01*
X115316000Y-86821476D02*
X114944769Y-87192707D01*
X110189476Y-91948000D02*
X110560707Y-91576769D01*
X115316000Y-97074524D02*
X115687231Y-96703293D01*
X120124326Y-91629802D02*
X121096598Y-90657530D01*
D12*
X156786000Y-85250000D02*
G75*
G03X156786000Y-85250000I-2286000J0D01*
G01*
X150622000Y-85344000D02*
G75*
G03X150622000Y-85344000I-2286000J0D01*
G01*
X144036000Y-85344000D02*
G75*
G03X144036000Y-85344000I-2286000J0D01*
G01*
X163026864Y-85344000D02*
G75*
G03X163026864Y-85344000I-2286000J0D01*
G01*
D13*
X141517500Y-99393000D02*
X143967500Y-99393000D01*
X140792500Y-96093000D02*
X143967500Y-96093000D01*
D12*
X167044000Y-88146000D02*
X167044000Y-89146000D01*
X168744000Y-89146000D02*
X168744000Y-88146000D01*
X165266000Y-88146000D02*
X165266000Y-89146000D01*
X166966000Y-89146000D02*
X166966000Y-88146000D01*
X128100000Y-89150000D02*
X128100000Y-89850000D01*
X126900000Y-89850000D02*
X126900000Y-89150000D01*
X125400000Y-89850000D02*
X125400000Y-89150000D01*
X126600000Y-89150000D02*
X126600000Y-89850000D01*
X162914000Y-89948000D02*
X162914000Y-90648000D01*
X161714000Y-90648000D02*
X161714000Y-89948000D01*
X162914000Y-92996000D02*
X162914000Y-93696000D01*
X161714000Y-93696000D02*
X161714000Y-92996000D01*
X133004000Y-95346000D02*
X133004000Y-94646000D01*
X134204000Y-94646000D02*
X134204000Y-95346000D01*
X133004000Y-92298000D02*
X133004000Y-91598000D01*
X134204000Y-91598000D02*
X134204000Y-92298000D01*
X134204000Y-97694000D02*
X134204000Y-98394000D01*
X133004000Y-98394000D02*
X133004000Y-97694000D01*
X148650000Y-98650000D02*
X149350000Y-98650000D01*
X149350000Y-99850000D02*
X148650000Y-99850000D01*
X151850000Y-98150000D02*
X151850000Y-98850000D01*
X150650000Y-98850000D02*
X150650000Y-98150000D01*
X149150000Y-97350000D02*
X149150000Y-96650000D01*
X150350000Y-96650000D02*
X150350000Y-97350000D01*
X120690000Y-105640000D02*
X120690000Y-103640000D01*
X118650000Y-103640000D02*
X118650000Y-105640000D01*
X125042893Y-86141421D02*
X124547919Y-85646447D01*
X125396447Y-84797919D02*
X125891421Y-85292893D01*
X118238000Y-103274000D02*
X118238000Y-103974000D01*
X117038000Y-103974000D02*
X117038000Y-103274000D01*
X123426777Y-82828249D02*
X123921751Y-83323223D01*
X123073223Y-84171751D02*
X122578249Y-83676777D01*
X118150000Y-100900000D02*
X118850000Y-100900000D01*
X118850000Y-102100000D02*
X118150000Y-102100000D01*
X126874000Y-105306000D02*
X126874000Y-106006000D01*
X125674000Y-106006000D02*
X125674000Y-105306000D01*
X129326000Y-105640000D02*
X129326000Y-103640000D01*
X127286000Y-103640000D02*
X127286000Y-105640000D01*
X125674000Y-102450000D02*
X125674000Y-101750000D01*
X126874000Y-101750000D02*
X126874000Y-102450000D01*
X115400000Y-82650000D02*
X116100000Y-82650000D01*
X116100000Y-83850000D02*
X115400000Y-83850000D01*
X110078000Y-98136000D02*
X109378000Y-98136000D01*
X109378000Y-96936000D02*
X110078000Y-96936000D01*
X109850000Y-100150000D02*
X109850000Y-100850000D01*
X108650000Y-100850000D02*
X108650000Y-100150000D01*
X171696000Y-88908000D02*
X170696000Y-88908000D01*
X170696000Y-88908000D02*
X170696000Y-91008000D01*
X171696000Y-88908000D02*
X171696000Y-91008000D01*
X171876000Y-86876000D02*
X171876000Y-87876000D01*
X170516000Y-87876000D02*
X170516000Y-86876000D01*
X170516000Y-85070000D02*
X170516000Y-84070000D01*
X171876000Y-84070000D02*
X171876000Y-85070000D01*
X144180000Y-92250000D02*
X144180000Y-93250000D01*
X142820000Y-93250000D02*
X142820000Y-92250000D01*
X138930000Y-89750000D02*
X138930000Y-90750000D01*
X137570000Y-90750000D02*
X137570000Y-89750000D01*
X134612000Y-102788000D02*
X133612000Y-102788000D01*
X133612000Y-101428000D02*
X134612000Y-101428000D01*
X134612000Y-104312000D02*
X133612000Y-104312000D01*
X133612000Y-102952000D02*
X134612000Y-102952000D01*
X142820000Y-90250000D02*
X142820000Y-89250000D01*
X144180000Y-89250000D02*
X144180000Y-90250000D01*
X140708000Y-102788000D02*
X139708000Y-102788000D01*
X139708000Y-101428000D02*
X140708000Y-101428000D01*
X140708000Y-104312000D02*
X139708000Y-104312000D01*
X139708000Y-102952000D02*
X140708000Y-102952000D01*
X149070000Y-90250000D02*
X149070000Y-89250000D01*
X150430000Y-89250000D02*
X150430000Y-90250000D01*
X131072000Y-92792000D02*
X132072000Y-92792000D01*
X132072000Y-94152000D02*
X131072000Y-94152000D01*
X127454000Y-95996000D02*
X127454000Y-93996000D01*
X129594000Y-93996000D02*
X129594000Y-95996000D01*
X150570000Y-90250000D02*
X150570000Y-89250000D01*
X151930000Y-89250000D02*
X151930000Y-90250000D01*
X144320000Y-90250000D02*
X144320000Y-89250000D01*
X145680000Y-89250000D02*
X145680000Y-90250000D01*
X131072000Y-95840000D02*
X132072000Y-95840000D01*
X132072000Y-97200000D02*
X131072000Y-97200000D01*
X153430000Y-89250000D02*
X153430000Y-90250000D01*
X152070000Y-90250000D02*
X152070000Y-89250000D01*
X148930000Y-89250000D02*
X148930000Y-90250000D01*
X147570000Y-90250000D02*
X147570000Y-89250000D01*
X122250000Y-94820000D02*
X123250000Y-94820000D01*
X123250000Y-96180000D02*
X122250000Y-96180000D01*
X109070000Y-86750000D02*
X109070000Y-85750000D01*
X110430000Y-85750000D02*
X110430000Y-86750000D01*
X113250000Y-83930000D02*
X112250000Y-83930000D01*
X112250000Y-82570000D02*
X113250000Y-82570000D01*
X139110000Y-95250000D02*
G75*
G03X139110000Y-95250000I-860000J0D01*
G01*
X138250000Y-94390000D02*
X138250000Y-93710000D01*
X118818019Y-85613604D02*
X122883883Y-89679468D01*
X122883883Y-89679468D02*
X125429468Y-87133883D01*
X125429468Y-87133883D02*
X121363604Y-83068019D01*
X138430000Y-85344000D02*
G75*
G03X138430000Y-85344000I-2286000J0D01*
G01*
X132842000Y-85344000D02*
G75*
G03X132842000Y-85344000I-2286000J0D01*
G01*
X138900000Y-105850000D02*
X138900000Y-104150000D01*
X138900000Y-104150000D02*
X135750000Y-104150000D01*
X138900000Y-105850000D02*
X135750000Y-105850000D01*
M02*
