G04 #@! TF.FileFunction,Legend,Bot*
%FSLAX46Y46*%
G04 Gerber Fmt 4.6, Leading zero omitted, Abs format (unit mm)*
G04 Created by KiCad (PCBNEW 4.0.6-e0-6349~53~ubuntu16.04.1) date Sun Jul  9 20:30:41 2017*
%MOMM*%
%LPD*%
G01*
G04 APERTURE LIST*
%ADD10C,0.100000*%
%ADD11C,0.250000*%
%ADD12C,0.120000*%
%ADD13C,0.150000*%
G04 APERTURE END LIST*
D10*
D11*
X120750000Y-95250000D02*
X121500000Y-95500000D01*
X120750000Y-95250000D02*
X120500000Y-96000000D01*
X120750000Y-95250000D02*
X122500000Y-99250000D01*
X126261905Y-90202381D02*
X126261905Y-89202381D01*
X125880952Y-89202381D01*
X125785714Y-89250000D01*
X125738095Y-89297619D01*
X125690476Y-89392857D01*
X125690476Y-89535714D01*
X125738095Y-89630952D01*
X125785714Y-89678571D01*
X125880952Y-89726190D01*
X126261905Y-89726190D01*
X124690476Y-90107143D02*
X124738095Y-90154762D01*
X124880952Y-90202381D01*
X124976190Y-90202381D01*
X125119048Y-90154762D01*
X125214286Y-90059524D01*
X125261905Y-89964286D01*
X125309524Y-89773810D01*
X125309524Y-89630952D01*
X125261905Y-89440476D01*
X125214286Y-89345238D01*
X125119048Y-89250000D01*
X124976190Y-89202381D01*
X124880952Y-89202381D01*
X124738095Y-89250000D01*
X124690476Y-89297619D01*
X123738095Y-90202381D02*
X124309524Y-90202381D01*
X124023810Y-90202381D02*
X124023810Y-89202381D01*
X124119048Y-89345238D01*
X124214286Y-89440476D01*
X124309524Y-89488095D01*
X123404762Y-89202381D02*
X122785714Y-89202381D01*
X123119048Y-89583333D01*
X122976190Y-89583333D01*
X122880952Y-89630952D01*
X122833333Y-89678571D01*
X122785714Y-89773810D01*
X122785714Y-90011905D01*
X122833333Y-90107143D01*
X122880952Y-90154762D01*
X122976190Y-90202381D01*
X123261905Y-90202381D01*
X123357143Y-90154762D01*
X123404762Y-90107143D01*
X126607143Y-93702381D02*
X125988095Y-93702381D01*
X126321429Y-94083333D01*
X126178571Y-94083333D01*
X126083333Y-94130952D01*
X126035714Y-94178571D01*
X125988095Y-94273810D01*
X125988095Y-94511905D01*
X126035714Y-94607143D01*
X126083333Y-94654762D01*
X126178571Y-94702381D01*
X126464286Y-94702381D01*
X126559524Y-94654762D01*
X126607143Y-94607143D01*
X125559524Y-94607143D02*
X125511905Y-94654762D01*
X125559524Y-94702381D01*
X125607143Y-94654762D01*
X125559524Y-94607143D01*
X125559524Y-94702381D01*
X125178572Y-93702381D02*
X124559524Y-93702381D01*
X124892858Y-94083333D01*
X124750000Y-94083333D01*
X124654762Y-94130952D01*
X124607143Y-94178571D01*
X124559524Y-94273810D01*
X124559524Y-94511905D01*
X124607143Y-94607143D01*
X124654762Y-94654762D01*
X124750000Y-94702381D01*
X125035715Y-94702381D01*
X125130953Y-94654762D01*
X125178572Y-94607143D01*
X124273810Y-93702381D02*
X123940477Y-94702381D01*
X123607143Y-93702381D01*
X120077381Y-100392857D02*
X120077381Y-101011905D01*
X120458333Y-100678571D01*
X120458333Y-100821429D01*
X120505952Y-100916667D01*
X120553571Y-100964286D01*
X120648810Y-101011905D01*
X120886905Y-101011905D01*
X120982143Y-100964286D01*
X121029762Y-100916667D01*
X121077381Y-100821429D01*
X121077381Y-100535714D01*
X121029762Y-100440476D01*
X120982143Y-100392857D01*
X120982143Y-101440476D02*
X121029762Y-101488095D01*
X121077381Y-101440476D01*
X121029762Y-101392857D01*
X120982143Y-101440476D01*
X121077381Y-101440476D01*
X120077381Y-101821428D02*
X120077381Y-102440476D01*
X120458333Y-102107142D01*
X120458333Y-102250000D01*
X120505952Y-102345238D01*
X120553571Y-102392857D01*
X120648810Y-102440476D01*
X120886905Y-102440476D01*
X120982143Y-102392857D01*
X121029762Y-102345238D01*
X121077381Y-102250000D01*
X121077381Y-101964285D01*
X121029762Y-101869047D01*
X120982143Y-101821428D01*
X120077381Y-102726190D02*
X121077381Y-103059523D01*
X120077381Y-103392857D01*
X122779762Y-100440476D02*
X122827381Y-100583333D01*
X122827381Y-100821429D01*
X122779762Y-100916667D01*
X122732143Y-100964286D01*
X122636905Y-101011905D01*
X122541667Y-101011905D01*
X122446429Y-100964286D01*
X122398810Y-100916667D01*
X122351190Y-100821429D01*
X122303571Y-100630952D01*
X122255952Y-100535714D01*
X122208333Y-100488095D01*
X122113095Y-100440476D01*
X122017857Y-100440476D01*
X121922619Y-100488095D01*
X121875000Y-100535714D01*
X121827381Y-100630952D01*
X121827381Y-100869048D01*
X121875000Y-101011905D01*
X121827381Y-101345238D02*
X122827381Y-101583333D01*
X122113095Y-101773810D01*
X122827381Y-101964286D01*
X121827381Y-102202381D01*
X122827381Y-102583333D02*
X121827381Y-102583333D01*
X121827381Y-102821428D01*
X121875000Y-102964286D01*
X121970238Y-103059524D01*
X122065476Y-103107143D01*
X122255952Y-103154762D01*
X122398810Y-103154762D01*
X122589286Y-103107143D01*
X122684524Y-103059524D01*
X122779762Y-102964286D01*
X122827381Y-102821428D01*
X122827381Y-102583333D01*
X122827381Y-103583333D02*
X121827381Y-103583333D01*
X121827381Y-104249999D02*
X121827381Y-104440476D01*
X121875000Y-104535714D01*
X121970238Y-104630952D01*
X122160714Y-104678571D01*
X122494048Y-104678571D01*
X122684524Y-104630952D01*
X122779762Y-104535714D01*
X122827381Y-104440476D01*
X122827381Y-104249999D01*
X122779762Y-104154761D01*
X122684524Y-104059523D01*
X122494048Y-104011904D01*
X122160714Y-104011904D01*
X121970238Y-104059523D01*
X121875000Y-104154761D01*
X121827381Y-104249999D01*
X124529762Y-100440476D02*
X124577381Y-100583333D01*
X124577381Y-100821429D01*
X124529762Y-100916667D01*
X124482143Y-100964286D01*
X124386905Y-101011905D01*
X124291667Y-101011905D01*
X124196429Y-100964286D01*
X124148810Y-100916667D01*
X124101190Y-100821429D01*
X124053571Y-100630952D01*
X124005952Y-100535714D01*
X123958333Y-100488095D01*
X123863095Y-100440476D01*
X123767857Y-100440476D01*
X123672619Y-100488095D01*
X123625000Y-100535714D01*
X123577381Y-100630952D01*
X123577381Y-100869048D01*
X123625000Y-101011905D01*
X123577381Y-101345238D02*
X124577381Y-101583333D01*
X123863095Y-101773810D01*
X124577381Y-101964286D01*
X123577381Y-102202381D01*
X124482143Y-103154762D02*
X124529762Y-103107143D01*
X124577381Y-102964286D01*
X124577381Y-102869048D01*
X124529762Y-102726190D01*
X124434524Y-102630952D01*
X124339286Y-102583333D01*
X124148810Y-102535714D01*
X124005952Y-102535714D01*
X123815476Y-102583333D01*
X123720238Y-102630952D01*
X123625000Y-102726190D01*
X123577381Y-102869048D01*
X123577381Y-102964286D01*
X123625000Y-103107143D01*
X123672619Y-103154762D01*
X124577381Y-104059524D02*
X124577381Y-103583333D01*
X123577381Y-103583333D01*
X124577381Y-104392857D02*
X123577381Y-104392857D01*
X124577381Y-104964286D02*
X124005952Y-104535714D01*
X123577381Y-104964286D02*
X124148810Y-104392857D01*
X125375000Y-101011905D02*
X125327381Y-100916667D01*
X125327381Y-100773810D01*
X125375000Y-100630952D01*
X125470238Y-100535714D01*
X125565476Y-100488095D01*
X125755952Y-100440476D01*
X125898810Y-100440476D01*
X126089286Y-100488095D01*
X126184524Y-100535714D01*
X126279762Y-100630952D01*
X126327381Y-100773810D01*
X126327381Y-100869048D01*
X126279762Y-101011905D01*
X126232143Y-101059524D01*
X125898810Y-101059524D01*
X125898810Y-100869048D01*
X126327381Y-101488095D02*
X125327381Y-101488095D01*
X126327381Y-102059524D01*
X125327381Y-102059524D01*
X126327381Y-102535714D02*
X125327381Y-102535714D01*
X125327381Y-102773809D01*
X125375000Y-102916667D01*
X125470238Y-103011905D01*
X125565476Y-103059524D01*
X125755952Y-103107143D01*
X125898810Y-103107143D01*
X126089286Y-103059524D01*
X126184524Y-103011905D01*
X126279762Y-102916667D01*
X126327381Y-102773809D01*
X126327381Y-102535714D01*
X124690476Y-87702381D02*
X125023810Y-87226190D01*
X125261905Y-87702381D02*
X125261905Y-86702381D01*
X124880952Y-86702381D01*
X124785714Y-86750000D01*
X124738095Y-86797619D01*
X124690476Y-86892857D01*
X124690476Y-87035714D01*
X124738095Y-87130952D01*
X124785714Y-87178571D01*
X124880952Y-87226190D01*
X125261905Y-87226190D01*
X124261905Y-87178571D02*
X123928571Y-87178571D01*
X123785714Y-87702381D02*
X124261905Y-87702381D01*
X124261905Y-86702381D01*
X123785714Y-86702381D01*
X123404762Y-87654762D02*
X123261905Y-87702381D01*
X123023809Y-87702381D01*
X122928571Y-87654762D01*
X122880952Y-87607143D01*
X122833333Y-87511905D01*
X122833333Y-87416667D01*
X122880952Y-87321429D01*
X122928571Y-87273810D01*
X123023809Y-87226190D01*
X123214286Y-87178571D01*
X123309524Y-87130952D01*
X123357143Y-87083333D01*
X123404762Y-86988095D01*
X123404762Y-86892857D01*
X123357143Y-86797619D01*
X123309524Y-86750000D01*
X123214286Y-86702381D01*
X122976190Y-86702381D01*
X122833333Y-86750000D01*
X122404762Y-87178571D02*
X122071428Y-87178571D01*
X121928571Y-87702381D02*
X122404762Y-87702381D01*
X122404762Y-86702381D01*
X121928571Y-86702381D01*
X121642857Y-86702381D02*
X121071428Y-86702381D01*
X121357143Y-87702381D02*
X121357143Y-86702381D01*
X150309524Y-103922619D02*
X150261905Y-103875000D01*
X150166667Y-103827381D01*
X149928571Y-103827381D01*
X149833333Y-103875000D01*
X149785714Y-103922619D01*
X149738095Y-104017857D01*
X149738095Y-104113095D01*
X149785714Y-104255952D01*
X150357143Y-104827381D01*
X149738095Y-104827381D01*
X149357143Y-104779762D02*
X149261905Y-104827381D01*
X149071429Y-104827381D01*
X148976190Y-104779762D01*
X148928571Y-104684524D01*
X148928571Y-104636905D01*
X148976190Y-104541667D01*
X149071429Y-104494048D01*
X149214286Y-104494048D01*
X149309524Y-104446429D01*
X149357143Y-104351190D01*
X149357143Y-104303571D01*
X149309524Y-104208333D01*
X149214286Y-104160714D01*
X149071429Y-104160714D01*
X148976190Y-104208333D01*
X147261904Y-104827381D02*
X147738095Y-104827381D01*
X147738095Y-103827381D01*
X146928571Y-104827381D02*
X146928571Y-104160714D01*
X146928571Y-103827381D02*
X146976190Y-103875000D01*
X146928571Y-103922619D01*
X146880952Y-103875000D01*
X146928571Y-103827381D01*
X146928571Y-103922619D01*
X146119047Y-104303571D02*
X146452381Y-104303571D01*
X146452381Y-104827381D02*
X146452381Y-103827381D01*
X145976190Y-103827381D01*
X145214285Y-104779762D02*
X145309523Y-104827381D01*
X145500000Y-104827381D01*
X145595238Y-104779762D01*
X145642857Y-104684524D01*
X145642857Y-104303571D01*
X145595238Y-104208333D01*
X145500000Y-104160714D01*
X145309523Y-104160714D01*
X145214285Y-104208333D01*
X145166666Y-104303571D01*
X145166666Y-104398810D01*
X145642857Y-104494048D01*
X144738095Y-104827381D02*
X144738095Y-103827381D01*
X144357142Y-103827381D01*
X144261904Y-103875000D01*
X144214285Y-103922619D01*
X144166666Y-104017857D01*
X144166666Y-104160714D01*
X144214285Y-104255952D01*
X144261904Y-104303571D01*
X144357142Y-104351190D01*
X144738095Y-104351190D01*
X143547619Y-103827381D02*
X143452380Y-103827381D01*
X143357142Y-103875000D01*
X143309523Y-103922619D01*
X143261904Y-104017857D01*
X143214285Y-104208333D01*
X143214285Y-104446429D01*
X143261904Y-104636905D01*
X143309523Y-104732143D01*
X143357142Y-104779762D01*
X143452380Y-104827381D01*
X143547619Y-104827381D01*
X143642857Y-104779762D01*
X143690476Y-104732143D01*
X143738095Y-104636905D01*
X143785714Y-104446429D01*
X143785714Y-104208333D01*
X143738095Y-104017857D01*
X143690476Y-103922619D01*
X143642857Y-103875000D01*
X143547619Y-103827381D01*
X142357142Y-104160714D02*
X142357142Y-104827381D01*
X142595238Y-103779762D02*
X142833333Y-104494048D01*
X142214285Y-104494048D01*
X140738094Y-104303571D02*
X140595237Y-104351190D01*
X140547618Y-104398810D01*
X140499999Y-104494048D01*
X140499999Y-104636905D01*
X140547618Y-104732143D01*
X140595237Y-104779762D01*
X140690475Y-104827381D01*
X141071428Y-104827381D01*
X141071428Y-103827381D01*
X140738094Y-103827381D01*
X140642856Y-103875000D01*
X140595237Y-103922619D01*
X140547618Y-104017857D01*
X140547618Y-104113095D01*
X140595237Y-104208333D01*
X140642856Y-104255952D01*
X140738094Y-104303571D01*
X141071428Y-104303571D01*
X140071428Y-104827381D02*
X140071428Y-103827381D01*
X139738094Y-104541667D01*
X139404761Y-103827381D01*
X139404761Y-104827381D01*
X138976190Y-104779762D02*
X138833333Y-104827381D01*
X138595237Y-104827381D01*
X138499999Y-104779762D01*
X138452380Y-104732143D01*
X138404761Y-104636905D01*
X138404761Y-104541667D01*
X138452380Y-104446429D01*
X138499999Y-104398810D01*
X138595237Y-104351190D01*
X138785714Y-104303571D01*
X138880952Y-104255952D01*
X138928571Y-104208333D01*
X138976190Y-104113095D01*
X138976190Y-104017857D01*
X138928571Y-103922619D01*
X138880952Y-103875000D01*
X138785714Y-103827381D01*
X138547618Y-103827381D01*
X138404761Y-103875000D01*
X136785713Y-104827381D02*
X136785713Y-104303571D01*
X136833332Y-104208333D01*
X136928570Y-104160714D01*
X137119047Y-104160714D01*
X137214285Y-104208333D01*
X136785713Y-104779762D02*
X136880951Y-104827381D01*
X137119047Y-104827381D01*
X137214285Y-104779762D01*
X137261904Y-104684524D01*
X137261904Y-104589286D01*
X137214285Y-104494048D01*
X137119047Y-104446429D01*
X136880951Y-104446429D01*
X136785713Y-104398810D01*
X136309523Y-104160714D02*
X136309523Y-104827381D01*
X136309523Y-104255952D02*
X136261904Y-104208333D01*
X136166666Y-104160714D01*
X136023808Y-104160714D01*
X135928570Y-104208333D01*
X135880951Y-104303571D01*
X135880951Y-104827381D01*
X134976189Y-104827381D02*
X134976189Y-103827381D01*
X134976189Y-104779762D02*
X135071427Y-104827381D01*
X135261904Y-104827381D01*
X135357142Y-104779762D01*
X135404761Y-104732143D01*
X135452380Y-104636905D01*
X135452380Y-104351190D01*
X135404761Y-104255952D01*
X135357142Y-104208333D01*
X135261904Y-104160714D01*
X135071427Y-104160714D01*
X134976189Y-104208333D01*
X133309522Y-104779762D02*
X133404760Y-104827381D01*
X133595237Y-104827381D01*
X133690475Y-104779762D01*
X133738094Y-104732143D01*
X133785713Y-104636905D01*
X133785713Y-104351190D01*
X133738094Y-104255952D01*
X133690475Y-104208333D01*
X133595237Y-104160714D01*
X133404760Y-104160714D01*
X133309522Y-104208333D01*
X132880951Y-104827381D02*
X132880951Y-103827381D01*
X132452379Y-104827381D02*
X132452379Y-104303571D01*
X132499998Y-104208333D01*
X132595236Y-104160714D01*
X132738094Y-104160714D01*
X132833332Y-104208333D01*
X132880951Y-104255952D01*
X131547617Y-104827381D02*
X131547617Y-104303571D01*
X131595236Y-104208333D01*
X131690474Y-104160714D01*
X131880951Y-104160714D01*
X131976189Y-104208333D01*
X131547617Y-104779762D02*
X131642855Y-104827381D01*
X131880951Y-104827381D01*
X131976189Y-104779762D01*
X132023808Y-104684524D01*
X132023808Y-104589286D01*
X131976189Y-104494048D01*
X131880951Y-104446429D01*
X131642855Y-104446429D01*
X131547617Y-104398810D01*
X131071427Y-104827381D02*
X131071427Y-104160714D01*
X131071427Y-104351190D02*
X131023808Y-104255952D01*
X130976189Y-104208333D01*
X130880951Y-104160714D01*
X130785712Y-104160714D01*
X130023807Y-104160714D02*
X130023807Y-104970238D01*
X130071426Y-105065476D01*
X130119045Y-105113095D01*
X130214284Y-105160714D01*
X130357141Y-105160714D01*
X130452379Y-105113095D01*
X130023807Y-104779762D02*
X130119045Y-104827381D01*
X130309522Y-104827381D01*
X130404760Y-104779762D01*
X130452379Y-104732143D01*
X130499998Y-104636905D01*
X130499998Y-104351190D01*
X130452379Y-104255952D01*
X130404760Y-104208333D01*
X130309522Y-104160714D01*
X130119045Y-104160714D01*
X130023807Y-104208333D01*
X129166664Y-104779762D02*
X129261902Y-104827381D01*
X129452379Y-104827381D01*
X129547617Y-104779762D01*
X129595236Y-104684524D01*
X129595236Y-104303571D01*
X129547617Y-104208333D01*
X129452379Y-104160714D01*
X129261902Y-104160714D01*
X129166664Y-104208333D01*
X129119045Y-104303571D01*
X129119045Y-104398810D01*
X129595236Y-104494048D01*
X128690474Y-104827381D02*
X128690474Y-104160714D01*
X128690474Y-104351190D02*
X128642855Y-104255952D01*
X128595236Y-104208333D01*
X128499998Y-104160714D01*
X128404759Y-104160714D01*
X149976190Y-105577381D02*
X149976190Y-106291667D01*
X150023810Y-106434524D01*
X150119048Y-106529762D01*
X150261905Y-106577381D01*
X150357143Y-106577381D01*
X149500000Y-105577381D02*
X149500000Y-106386905D01*
X149452381Y-106482143D01*
X149404762Y-106529762D01*
X149309524Y-106577381D01*
X149119047Y-106577381D01*
X149023809Y-106529762D01*
X148976190Y-106482143D01*
X148928571Y-106386905D01*
X148928571Y-105577381D01*
X147976190Y-106577381D02*
X148452381Y-106577381D01*
X148452381Y-105577381D01*
X147452381Y-106101190D02*
X147452381Y-106577381D01*
X147785714Y-105577381D02*
X147452381Y-106101190D01*
X147119047Y-105577381D01*
X146833333Y-105672619D02*
X146785714Y-105625000D01*
X146690476Y-105577381D01*
X146452380Y-105577381D01*
X146357142Y-105625000D01*
X146309523Y-105672619D01*
X146261904Y-105767857D01*
X146261904Y-105863095D01*
X146309523Y-106005952D01*
X146880952Y-106577381D01*
X146261904Y-106577381D01*
X145642857Y-105577381D02*
X145547618Y-105577381D01*
X145452380Y-105625000D01*
X145404761Y-105672619D01*
X145357142Y-105767857D01*
X145309523Y-105958333D01*
X145309523Y-106196429D01*
X145357142Y-106386905D01*
X145404761Y-106482143D01*
X145452380Y-106529762D01*
X145547618Y-106577381D01*
X145642857Y-106577381D01*
X145738095Y-106529762D01*
X145785714Y-106482143D01*
X145833333Y-106386905D01*
X145880952Y-106196429D01*
X145880952Y-105958333D01*
X145833333Y-105767857D01*
X145785714Y-105672619D01*
X145738095Y-105625000D01*
X145642857Y-105577381D01*
X144357142Y-106577381D02*
X144928571Y-106577381D01*
X144642857Y-106577381D02*
X144642857Y-105577381D01*
X144738095Y-105720238D01*
X144833333Y-105815476D01*
X144928571Y-105863095D01*
X144023809Y-105577381D02*
X143357142Y-105577381D01*
X143785714Y-106577381D01*
X108738095Y-91202381D02*
X109309524Y-91202381D01*
X109023810Y-91202381D02*
X109023810Y-90202381D01*
X109119048Y-90345238D01*
X109214286Y-90440476D01*
X109309524Y-90488095D01*
X108988095Y-98202381D02*
X109559524Y-98202381D01*
X109273810Y-98202381D02*
X109273810Y-97202381D01*
X109369048Y-97345238D01*
X109464286Y-97440476D01*
X109559524Y-97488095D01*
X119428571Y-90678571D02*
X119285714Y-90726190D01*
X119238095Y-90773810D01*
X119190476Y-90869048D01*
X119190476Y-91011905D01*
X119238095Y-91107143D01*
X119285714Y-91154762D01*
X119380952Y-91202381D01*
X119761905Y-91202381D01*
X119761905Y-90202381D01*
X119428571Y-90202381D01*
X119333333Y-90250000D01*
X119285714Y-90297619D01*
X119238095Y-90392857D01*
X119238095Y-90488095D01*
X119285714Y-90583333D01*
X119333333Y-90630952D01*
X119428571Y-90678571D01*
X119761905Y-90678571D01*
X118571429Y-90202381D02*
X118476190Y-90202381D01*
X118380952Y-90250000D01*
X118333333Y-90297619D01*
X118285714Y-90392857D01*
X118238095Y-90583333D01*
X118238095Y-90821429D01*
X118285714Y-91011905D01*
X118333333Y-91107143D01*
X118380952Y-91154762D01*
X118476190Y-91202381D01*
X118571429Y-91202381D01*
X118666667Y-91154762D01*
X118714286Y-91107143D01*
X118761905Y-91011905D01*
X118809524Y-90821429D01*
X118809524Y-90583333D01*
X118761905Y-90392857D01*
X118714286Y-90297619D01*
X118666667Y-90250000D01*
X118571429Y-90202381D01*
X116857143Y-90202381D02*
X116761904Y-90202381D01*
X116666666Y-90250000D01*
X116619047Y-90297619D01*
X116571428Y-90392857D01*
X116523809Y-90583333D01*
X116523809Y-90821429D01*
X116571428Y-91011905D01*
X116619047Y-91107143D01*
X116666666Y-91154762D01*
X116761904Y-91202381D01*
X116857143Y-91202381D01*
X116952381Y-91154762D01*
X117000000Y-91107143D01*
X117047619Y-91011905D01*
X117095238Y-90821429D01*
X117095238Y-90583333D01*
X117047619Y-90392857D01*
X117000000Y-90297619D01*
X116952381Y-90250000D01*
X116857143Y-90202381D01*
X119428571Y-97678571D02*
X119285714Y-97726190D01*
X119238095Y-97773810D01*
X119190476Y-97869048D01*
X119190476Y-98011905D01*
X119238095Y-98107143D01*
X119285714Y-98154762D01*
X119380952Y-98202381D01*
X119761905Y-98202381D01*
X119761905Y-97202381D01*
X119428571Y-97202381D01*
X119333333Y-97250000D01*
X119285714Y-97297619D01*
X119238095Y-97392857D01*
X119238095Y-97488095D01*
X119285714Y-97583333D01*
X119333333Y-97630952D01*
X119428571Y-97678571D01*
X119761905Y-97678571D01*
X118238095Y-98202381D02*
X118809524Y-98202381D01*
X118523810Y-98202381D02*
X118523810Y-97202381D01*
X118619048Y-97345238D01*
X118714286Y-97440476D01*
X118809524Y-97488095D01*
X116523809Y-98202381D02*
X117095238Y-98202381D01*
X116809524Y-98202381D02*
X116809524Y-97202381D01*
X116904762Y-97345238D01*
X117000000Y-97440476D01*
X117095238Y-97488095D01*
X152732143Y-98559524D02*
X152779762Y-98511905D01*
X152827381Y-98369048D01*
X152827381Y-98273810D01*
X152779762Y-98130952D01*
X152684524Y-98035714D01*
X152589286Y-97988095D01*
X152398810Y-97940476D01*
X152255952Y-97940476D01*
X152065476Y-97988095D01*
X151970238Y-98035714D01*
X151875000Y-98130952D01*
X151827381Y-98273810D01*
X151827381Y-98369048D01*
X151875000Y-98511905D01*
X151922619Y-98559524D01*
X152827381Y-98988095D02*
X151827381Y-98988095D01*
X152303571Y-98988095D02*
X152303571Y-99559524D01*
X152827381Y-99559524D02*
X151827381Y-99559524D01*
X152541667Y-99988095D02*
X152541667Y-100464286D01*
X152827381Y-99892857D02*
X151827381Y-100226190D01*
X152827381Y-100559524D01*
X152827381Y-101464286D02*
X152351190Y-101130952D01*
X152827381Y-100892857D02*
X151827381Y-100892857D01*
X151827381Y-101273810D01*
X151875000Y-101369048D01*
X151922619Y-101416667D01*
X152017857Y-101464286D01*
X152160714Y-101464286D01*
X152255952Y-101416667D01*
X152303571Y-101369048D01*
X152351190Y-101273810D01*
X152351190Y-100892857D01*
X151875000Y-102416667D02*
X151827381Y-102321429D01*
X151827381Y-102178572D01*
X151875000Y-102035714D01*
X151970238Y-101940476D01*
X152065476Y-101892857D01*
X152255952Y-101845238D01*
X152398810Y-101845238D01*
X152589286Y-101892857D01*
X152684524Y-101940476D01*
X152779762Y-102035714D01*
X152827381Y-102178572D01*
X152827381Y-102273810D01*
X152779762Y-102416667D01*
X152732143Y-102464286D01*
X152398810Y-102464286D01*
X152398810Y-102273810D01*
X152303571Y-102892857D02*
X152303571Y-103226191D01*
X152827381Y-103369048D02*
X152827381Y-102892857D01*
X151827381Y-102892857D01*
X151827381Y-103369048D01*
X152827381Y-104559524D02*
X151827381Y-104559524D01*
X152827381Y-105035714D02*
X151827381Y-105035714D01*
X152827381Y-105607143D01*
X151827381Y-105607143D01*
X153577381Y-97892857D02*
X153577381Y-98559524D01*
X154577381Y-98130952D01*
X154196429Y-98940476D02*
X154196429Y-99702381D01*
X154577381Y-100702381D02*
X154577381Y-100130952D01*
X154577381Y-100416666D02*
X153577381Y-100416666D01*
X153720238Y-100321428D01*
X153815476Y-100226190D01*
X153863095Y-100130952D01*
X153577381Y-101035714D02*
X153577381Y-101654762D01*
X153958333Y-101321428D01*
X153958333Y-101464286D01*
X154005952Y-101559524D01*
X154053571Y-101607143D01*
X154148810Y-101654762D01*
X154386905Y-101654762D01*
X154482143Y-101607143D01*
X154529762Y-101559524D01*
X154577381Y-101464286D01*
X154577381Y-101178571D01*
X154529762Y-101083333D01*
X154482143Y-101035714D01*
X153577381Y-101940476D02*
X154577381Y-102273809D01*
X153577381Y-102607143D01*
X128327381Y-89738095D02*
X127327381Y-89738095D01*
X127327381Y-90119048D01*
X127375000Y-90214286D01*
X127422619Y-90261905D01*
X127517857Y-90309524D01*
X127660714Y-90309524D01*
X127755952Y-90261905D01*
X127803571Y-90214286D01*
X127851190Y-90119048D01*
X127851190Y-89738095D01*
X128041667Y-90690476D02*
X128041667Y-91166667D01*
X128327381Y-90595238D02*
X127327381Y-90928571D01*
X128327381Y-91261905D01*
X128232143Y-92166667D02*
X128279762Y-92119048D01*
X128327381Y-91976191D01*
X128327381Y-91880953D01*
X128279762Y-91738095D01*
X128184524Y-91642857D01*
X128089286Y-91595238D01*
X127898810Y-91547619D01*
X127755952Y-91547619D01*
X127565476Y-91595238D01*
X127470238Y-91642857D01*
X127375000Y-91738095D01*
X127327381Y-91880953D01*
X127327381Y-91976191D01*
X127375000Y-92119048D01*
X127422619Y-92166667D01*
X128327381Y-92595238D02*
X127327381Y-92595238D01*
X128327381Y-93166667D02*
X127755952Y-92738095D01*
X127327381Y-93166667D02*
X127898810Y-92595238D01*
X128327381Y-94357143D02*
X127327381Y-94357143D01*
X128327381Y-94928572D01*
X127327381Y-94928572D01*
X127803571Y-95404762D02*
X127803571Y-95738096D01*
X128327381Y-95880953D02*
X128327381Y-95404762D01*
X127327381Y-95404762D01*
X127327381Y-95880953D01*
X127375000Y-96833334D02*
X127327381Y-96738096D01*
X127327381Y-96595239D01*
X127375000Y-96452381D01*
X127470238Y-96357143D01*
X127565476Y-96309524D01*
X127755952Y-96261905D01*
X127898810Y-96261905D01*
X128089286Y-96309524D01*
X128184524Y-96357143D01*
X128279762Y-96452381D01*
X128327381Y-96595239D01*
X128327381Y-96690477D01*
X128279762Y-96833334D01*
X128232143Y-96880953D01*
X127898810Y-96880953D01*
X127898810Y-96690477D01*
X130077381Y-89738095D02*
X129077381Y-89738095D01*
X129077381Y-90119048D01*
X129125000Y-90214286D01*
X129172619Y-90261905D01*
X129267857Y-90309524D01*
X129410714Y-90309524D01*
X129505952Y-90261905D01*
X129553571Y-90214286D01*
X129601190Y-90119048D01*
X129601190Y-89738095D01*
X129791667Y-90690476D02*
X129791667Y-91166667D01*
X130077381Y-90595238D02*
X129077381Y-90928571D01*
X130077381Y-91261905D01*
X129982143Y-92166667D02*
X130029762Y-92119048D01*
X130077381Y-91976191D01*
X130077381Y-91880953D01*
X130029762Y-91738095D01*
X129934524Y-91642857D01*
X129839286Y-91595238D01*
X129648810Y-91547619D01*
X129505952Y-91547619D01*
X129315476Y-91595238D01*
X129220238Y-91642857D01*
X129125000Y-91738095D01*
X129077381Y-91880953D01*
X129077381Y-91976191D01*
X129125000Y-92119048D01*
X129172619Y-92166667D01*
X130077381Y-92595238D02*
X129077381Y-92595238D01*
X130077381Y-93166667D02*
X129505952Y-92738095D01*
X129077381Y-93166667D02*
X129648810Y-92595238D01*
X130077381Y-94357143D02*
X129077381Y-94357143D01*
X129077381Y-94738096D01*
X129125000Y-94833334D01*
X129172619Y-94880953D01*
X129267857Y-94928572D01*
X129410714Y-94928572D01*
X129505952Y-94880953D01*
X129553571Y-94833334D01*
X129601190Y-94738096D01*
X129601190Y-94357143D01*
X129077381Y-95547619D02*
X129077381Y-95738096D01*
X129125000Y-95833334D01*
X129220238Y-95928572D01*
X129410714Y-95976191D01*
X129744048Y-95976191D01*
X129934524Y-95928572D01*
X130029762Y-95833334D01*
X130077381Y-95738096D01*
X130077381Y-95547619D01*
X130029762Y-95452381D01*
X129934524Y-95357143D01*
X129744048Y-95309524D01*
X129410714Y-95309524D01*
X129220238Y-95357143D01*
X129125000Y-95452381D01*
X129077381Y-95547619D01*
X130029762Y-96357143D02*
X130077381Y-96500000D01*
X130077381Y-96738096D01*
X130029762Y-96833334D01*
X129982143Y-96880953D01*
X129886905Y-96928572D01*
X129791667Y-96928572D01*
X129696429Y-96880953D01*
X129648810Y-96833334D01*
X129601190Y-96738096D01*
X129553571Y-96547619D01*
X129505952Y-96452381D01*
X129458333Y-96404762D01*
X129363095Y-96357143D01*
X129267857Y-96357143D01*
X129172619Y-96404762D01*
X129125000Y-96452381D01*
X129077381Y-96547619D01*
X129077381Y-96785715D01*
X129125000Y-96928572D01*
X130922619Y-89690476D02*
X130875000Y-89738095D01*
X130827381Y-89833333D01*
X130827381Y-90071429D01*
X130875000Y-90166667D01*
X130922619Y-90214286D01*
X131017857Y-90261905D01*
X131113095Y-90261905D01*
X131255952Y-90214286D01*
X131827381Y-89642857D01*
X131827381Y-90261905D01*
X131779762Y-90642857D02*
X131827381Y-90738095D01*
X131827381Y-90928571D01*
X131779762Y-91023810D01*
X131684524Y-91071429D01*
X131636905Y-91071429D01*
X131541667Y-91023810D01*
X131494048Y-90928571D01*
X131494048Y-90785714D01*
X131446429Y-90690476D01*
X131351190Y-90642857D01*
X131303571Y-90642857D01*
X131208333Y-90690476D01*
X131160714Y-90785714D01*
X131160714Y-90928571D01*
X131208333Y-91023810D01*
X131827381Y-92261905D02*
X130827381Y-92261905D01*
X131827381Y-92833334D01*
X130827381Y-92833334D01*
X131303571Y-93309524D02*
X131303571Y-93642858D01*
X131827381Y-93785715D02*
X131827381Y-93309524D01*
X130827381Y-93309524D01*
X130827381Y-93785715D01*
X130875000Y-94738096D02*
X130827381Y-94642858D01*
X130827381Y-94500001D01*
X130875000Y-94357143D01*
X130970238Y-94261905D01*
X131065476Y-94214286D01*
X131255952Y-94166667D01*
X131398810Y-94166667D01*
X131589286Y-94214286D01*
X131684524Y-94261905D01*
X131779762Y-94357143D01*
X131827381Y-94500001D01*
X131827381Y-94595239D01*
X131779762Y-94738096D01*
X131732143Y-94785715D01*
X131398810Y-94785715D01*
X131398810Y-94595239D01*
X133577381Y-90261905D02*
X133577381Y-89690476D01*
X133577381Y-89976190D02*
X132577381Y-89976190D01*
X132720238Y-89880952D01*
X132815476Y-89785714D01*
X132863095Y-89690476D01*
X133529762Y-90642857D02*
X133577381Y-90738095D01*
X133577381Y-90928571D01*
X133529762Y-91023810D01*
X133434524Y-91071429D01*
X133386905Y-91071429D01*
X133291667Y-91023810D01*
X133244048Y-90928571D01*
X133244048Y-90785714D01*
X133196429Y-90690476D01*
X133101190Y-90642857D01*
X133053571Y-90642857D01*
X132958333Y-90690476D01*
X132910714Y-90785714D01*
X132910714Y-90928571D01*
X132958333Y-91023810D01*
X133577381Y-92261905D02*
X132577381Y-92261905D01*
X132577381Y-92642858D01*
X132625000Y-92738096D01*
X132672619Y-92785715D01*
X132767857Y-92833334D01*
X132910714Y-92833334D01*
X133005952Y-92785715D01*
X133053571Y-92738096D01*
X133101190Y-92642858D01*
X133101190Y-92261905D01*
X132577381Y-93452381D02*
X132577381Y-93642858D01*
X132625000Y-93738096D01*
X132720238Y-93833334D01*
X132910714Y-93880953D01*
X133244048Y-93880953D01*
X133434524Y-93833334D01*
X133529762Y-93738096D01*
X133577381Y-93642858D01*
X133577381Y-93452381D01*
X133529762Y-93357143D01*
X133434524Y-93261905D01*
X133244048Y-93214286D01*
X132910714Y-93214286D01*
X132720238Y-93261905D01*
X132625000Y-93357143D01*
X132577381Y-93452381D01*
X133529762Y-94261905D02*
X133577381Y-94404762D01*
X133577381Y-94642858D01*
X133529762Y-94738096D01*
X133482143Y-94785715D01*
X133386905Y-94833334D01*
X133291667Y-94833334D01*
X133196429Y-94785715D01*
X133148810Y-94738096D01*
X133101190Y-94642858D01*
X133053571Y-94452381D01*
X133005952Y-94357143D01*
X132958333Y-94309524D01*
X132863095Y-94261905D01*
X132767857Y-94261905D01*
X132672619Y-94309524D01*
X132625000Y-94357143D01*
X132577381Y-94452381D01*
X132577381Y-94690477D01*
X132625000Y-94833334D01*
X134422619Y-89690476D02*
X134375000Y-89738095D01*
X134327381Y-89833333D01*
X134327381Y-90071429D01*
X134375000Y-90166667D01*
X134422619Y-90214286D01*
X134517857Y-90261905D01*
X134613095Y-90261905D01*
X134755952Y-90214286D01*
X135327381Y-89642857D01*
X135327381Y-90261905D01*
X135279762Y-90642857D02*
X135327381Y-90738095D01*
X135327381Y-90928571D01*
X135279762Y-91023810D01*
X135184524Y-91071429D01*
X135136905Y-91071429D01*
X135041667Y-91023810D01*
X134994048Y-90928571D01*
X134994048Y-90785714D01*
X134946429Y-90690476D01*
X134851190Y-90642857D01*
X134803571Y-90642857D01*
X134708333Y-90690476D01*
X134660714Y-90785714D01*
X134660714Y-90928571D01*
X134708333Y-91023810D01*
X135327381Y-92261905D02*
X134327381Y-92261905D01*
X134327381Y-92642858D01*
X134375000Y-92738096D01*
X134422619Y-92785715D01*
X134517857Y-92833334D01*
X134660714Y-92833334D01*
X134755952Y-92785715D01*
X134803571Y-92738096D01*
X134851190Y-92642858D01*
X134851190Y-92261905D01*
X134327381Y-93452381D02*
X134327381Y-93642858D01*
X134375000Y-93738096D01*
X134470238Y-93833334D01*
X134660714Y-93880953D01*
X134994048Y-93880953D01*
X135184524Y-93833334D01*
X135279762Y-93738096D01*
X135327381Y-93642858D01*
X135327381Y-93452381D01*
X135279762Y-93357143D01*
X135184524Y-93261905D01*
X134994048Y-93214286D01*
X134660714Y-93214286D01*
X134470238Y-93261905D01*
X134375000Y-93357143D01*
X134327381Y-93452381D01*
X135279762Y-94261905D02*
X135327381Y-94404762D01*
X135327381Y-94642858D01*
X135279762Y-94738096D01*
X135232143Y-94785715D01*
X135136905Y-94833334D01*
X135041667Y-94833334D01*
X134946429Y-94785715D01*
X134898810Y-94738096D01*
X134851190Y-94642858D01*
X134803571Y-94452381D01*
X134755952Y-94357143D01*
X134708333Y-94309524D01*
X134613095Y-94261905D01*
X134517857Y-94261905D01*
X134422619Y-94309524D01*
X134375000Y-94357143D01*
X134327381Y-94452381D01*
X134327381Y-94690477D01*
X134375000Y-94833334D01*
X137077381Y-90261905D02*
X137077381Y-89690476D01*
X137077381Y-89976190D02*
X136077381Y-89976190D01*
X136220238Y-89880952D01*
X136315476Y-89785714D01*
X136363095Y-89690476D01*
X137029762Y-90642857D02*
X137077381Y-90738095D01*
X137077381Y-90928571D01*
X137029762Y-91023810D01*
X136934524Y-91071429D01*
X136886905Y-91071429D01*
X136791667Y-91023810D01*
X136744048Y-90928571D01*
X136744048Y-90785714D01*
X136696429Y-90690476D01*
X136601190Y-90642857D01*
X136553571Y-90642857D01*
X136458333Y-90690476D01*
X136410714Y-90785714D01*
X136410714Y-90928571D01*
X136458333Y-91023810D01*
X137077381Y-92261905D02*
X136077381Y-92261905D01*
X137077381Y-92833334D01*
X136077381Y-92833334D01*
X136553571Y-93309524D02*
X136553571Y-93642858D01*
X137077381Y-93785715D02*
X137077381Y-93309524D01*
X136077381Y-93309524D01*
X136077381Y-93785715D01*
X136125000Y-94738096D02*
X136077381Y-94642858D01*
X136077381Y-94500001D01*
X136125000Y-94357143D01*
X136220238Y-94261905D01*
X136315476Y-94214286D01*
X136505952Y-94166667D01*
X136648810Y-94166667D01*
X136839286Y-94214286D01*
X136934524Y-94261905D01*
X137029762Y-94357143D01*
X137077381Y-94500001D01*
X137077381Y-94595239D01*
X137029762Y-94738096D01*
X136982143Y-94785715D01*
X136648810Y-94785715D01*
X136648810Y-94595239D01*
D12*
X153314000Y-94440000D02*
X153314000Y-90980000D01*
X157074000Y-94440000D02*
X157074000Y-90980000D01*
D13*
X146625000Y-88628000D02*
X146625000Y-94828000D01*
X151825000Y-89328000D02*
X151825000Y-94828000D01*
X140529000Y-88628000D02*
X140529000Y-94828000D01*
X145729000Y-89328000D02*
X145729000Y-94828000D01*
D12*
X117650000Y-92400000D02*
X117650000Y-93100000D01*
X118850000Y-93100000D02*
X118850000Y-92400000D01*
X124288000Y-93250000D02*
X124288000Y-92250000D01*
X124288000Y-92250000D02*
X126388000Y-92250000D01*
X124288000Y-93250000D02*
X126388000Y-93250000D01*
X124288000Y-91764268D02*
X124288000Y-90764268D01*
X124288000Y-90764268D02*
X126388000Y-90764268D01*
X124288000Y-91764268D02*
X126388000Y-91764268D01*
X122040000Y-93430000D02*
X123040000Y-93430000D01*
X123040000Y-92070000D02*
X122040000Y-92070000D01*
X111330000Y-99818000D02*
X111330000Y-100818000D01*
X112690000Y-100818000D02*
X112690000Y-99818000D01*
X115738000Y-100833010D02*
X115738000Y-99833010D01*
X114378000Y-99833010D02*
X114378000Y-100833010D01*
X114214000Y-100833010D02*
X114214000Y-99833010D01*
X112854000Y-99833010D02*
X112854000Y-100833010D01*
X126544000Y-86178000D02*
X126544000Y-85528000D01*
X126544000Y-82478000D02*
X126544000Y-83128000D01*
X120344000Y-83128000D02*
X120344000Y-82478000D01*
X120344000Y-86178000D02*
X120344000Y-85528000D01*
X126544000Y-86178000D02*
X120344000Y-86178000D01*
X120344000Y-82478000D02*
X126544000Y-82478000D01*
X122040000Y-91944268D02*
X123040000Y-91944268D01*
X123040000Y-90584268D02*
X122040000Y-90584268D01*
X109660000Y-91650000D02*
X109130000Y-91650000D01*
X109130000Y-91650000D02*
X109130000Y-96850000D01*
X109130000Y-96850000D02*
X109660000Y-96850000D01*
X116340000Y-91650000D02*
X116870000Y-91650000D01*
X116870000Y-91650000D02*
X116870000Y-96850000D01*
X116870000Y-96850000D02*
X116340000Y-96850000D01*
X109660000Y-89980000D02*
X109660000Y-91650000D01*
X109690000Y-84522000D02*
X109160000Y-84522000D01*
X109160000Y-84522000D02*
X109160000Y-87182000D01*
X109160000Y-87182000D02*
X109690000Y-87182000D01*
X118910000Y-84522000D02*
X119440000Y-84522000D01*
X119440000Y-84522000D02*
X119440000Y-87182000D01*
X119440000Y-87182000D02*
X118910000Y-87182000D01*
X111170000Y-87182000D02*
X114890000Y-87182000D01*
X116250000Y-87182000D02*
X119440000Y-87182000D01*
X109160000Y-84522000D02*
X112350000Y-84522000D01*
X109690000Y-87182000D02*
X109690000Y-88852000D01*
X113710000Y-84522000D02*
X117430000Y-84522000D01*
X168430000Y-93551000D02*
X168430000Y-98250000D01*
X159230000Y-104981000D02*
X159230000Y-108240000D01*
X159230000Y-108240000D02*
X168430000Y-108240000D01*
X161290000Y-93540000D02*
X159230000Y-93540000D01*
X159230000Y-93540000D02*
X159230000Y-98250000D01*
X168430000Y-108240000D02*
X168430000Y-104981000D01*
X168430000Y-93540000D02*
X164973000Y-93540000D01*
X118100000Y-102850000D02*
X109400000Y-102850000D01*
X109400000Y-102850000D02*
X109400000Y-105400000D01*
X118100000Y-105400000D02*
X118100000Y-102850000D01*
M02*
