G04 #@! TF.FileFunction,Copper,L2,Bot,Signal*
%FSLAX46Y46*%
G04 Gerber Fmt 4.6, Leading zero omitted, Abs format (unit mm)*
G04 Created by KiCad (PCBNEW 4.0.6-e0-6349~53~ubuntu16.04.1) date Sun Jul  9 20:30:41 2017*
%MOMM*%
%LPD*%
G01*
G04 APERTURE LIST*
%ADD10C,0.100000*%
%ADD11R,3.500000X1.600000*%
%ADD12C,4.064000*%
%ADD13R,0.610000X1.270000*%
%ADD14R,0.610000X1.020000*%
%ADD15R,3.910000X3.810000*%
%ADD16R,0.750000X0.800000*%
%ADD17R,0.800000X0.800000*%
%ADD18R,0.500000X0.900000*%
%ADD19R,0.900000X0.500000*%
%ADD20R,2.000000X2.200000*%
%ADD21C,1.400000*%
%ADD22O,1.400000X1.400000*%
%ADD23R,1.000000X3.000000*%
%ADD24R,3.300000X4.400000*%
%ADD25R,3.900000X6.200000*%
%ADD26R,0.400000X1.350000*%
%ADD27R,2.100000X1.600000*%
%ADD28R,1.800000X1.900000*%
%ADD29R,1.900000X1.900000*%
%ADD30C,0.685800*%
%ADD31C,0.600000*%
%ADD32C,0.250000*%
%ADD33C,1.000000*%
%ADD34C,0.300000*%
%ADD35C,0.400000*%
%ADD36C,0.152400*%
%ADD37C,2.000000*%
%ADD38C,0.200000*%
%ADD39C,0.254000*%
G04 APERTURE END LIST*
D10*
D11*
X155194000Y-95150000D03*
X155194000Y-90270000D03*
D12*
X154500000Y-85250000D03*
X148336000Y-85344000D03*
X141750000Y-85344000D03*
X160740864Y-85344000D03*
D13*
X147320000Y-89408000D03*
X148590000Y-89408000D03*
X149860000Y-89408000D03*
X151130000Y-89408000D03*
D14*
X151130000Y-94873000D03*
X149860000Y-94873000D03*
X148590000Y-94873000D03*
X147320000Y-94873000D03*
D15*
X149225000Y-92768000D03*
D13*
X141224000Y-89408000D03*
X142494000Y-89408000D03*
X143764000Y-89408000D03*
X145034000Y-89408000D03*
D14*
X145034000Y-94873000D03*
X143764000Y-94873000D03*
X142494000Y-94873000D03*
X141224000Y-94873000D03*
D15*
X143129000Y-92768000D03*
D16*
X118250000Y-92000000D03*
X118250000Y-93500000D03*
D17*
X126388000Y-92750000D03*
X124788000Y-92750000D03*
X126388000Y-91264268D03*
X124788000Y-91264268D03*
D18*
X123290000Y-92750000D03*
X121790000Y-92750000D03*
D19*
X112010000Y-101068000D03*
X112010000Y-99568000D03*
X115058000Y-99583010D03*
X115058000Y-101083010D03*
X113534000Y-99583010D03*
X113534000Y-101083010D03*
D20*
X126244000Y-84328000D03*
X120644000Y-84328000D03*
D21*
X138250000Y-95250000D03*
D22*
X138250000Y-92710000D03*
D12*
X136144000Y-85344000D03*
X130556000Y-85344000D03*
D18*
X123290000Y-91264268D03*
X121790000Y-91264268D03*
D23*
X110460000Y-91480000D03*
X110460000Y-97020000D03*
X113000000Y-91480000D03*
X113000000Y-97020000D03*
X115540000Y-91480000D03*
X115540000Y-97020000D03*
X113030000Y-84352000D03*
X118110000Y-84352000D03*
X110490000Y-87352000D03*
X115570000Y-87352000D03*
D24*
X163130000Y-92610000D03*
D25*
X170280000Y-101610000D03*
X157380000Y-101610000D03*
D26*
X115050000Y-103625000D03*
X114400000Y-103625000D03*
X113750000Y-103625000D03*
X113100000Y-103625000D03*
X112450000Y-103625000D03*
D27*
X116850000Y-103750000D03*
X110650000Y-103750000D03*
D28*
X117550000Y-106500000D03*
X109950000Y-106500000D03*
D29*
X114950000Y-106500000D03*
X112550000Y-106500000D03*
D30*
X167894000Y-91948000D03*
X116771021Y-84484666D03*
X134232668Y-105838653D03*
X134250000Y-100750000D03*
X120250000Y-101500000D03*
X109250000Y-102250000D03*
X109000000Y-96500000D03*
X114441949Y-94558051D03*
X120993604Y-94620415D03*
X126500000Y-87500000D03*
X119250000Y-87000000D03*
X109500000Y-89250000D03*
X125000000Y-106250000D03*
X125000000Y-101250000D03*
X123500000Y-85000000D03*
X123250000Y-104000000D03*
X166624000Y-82804000D03*
X167640000Y-82804000D03*
X169418000Y-87630000D03*
X131750000Y-88750000D03*
X129250000Y-88750000D03*
X162500000Y-88250000D03*
X164592000Y-85750000D03*
X163750000Y-83000000D03*
X140000000Y-92750000D03*
X146250000Y-87750000D03*
X155750000Y-88500000D03*
X140000000Y-96250000D03*
X142202935Y-97665554D03*
X143257074Y-97653367D03*
X143246387Y-98710863D03*
X142173081Y-98732187D03*
X143244799Y-96563989D03*
X142241016Y-96583906D03*
X152750000Y-99250000D03*
X132250000Y-98750000D03*
X132250000Y-91250000D03*
X128524000Y-98000000D03*
X128500000Y-99000000D03*
X115250000Y-102000000D03*
X119750000Y-104500000D03*
X122000000Y-106250000D03*
X116693953Y-89257477D03*
X126222618Y-95651980D03*
X109750000Y-95000000D03*
X123250000Y-97000000D03*
X120259000Y-99750000D03*
X119250000Y-92000000D03*
X115010047Y-85000000D03*
X121250000Y-89250000D03*
X112750000Y-93750000D03*
X116250000Y-94000000D03*
X120250000Y-98250000D03*
X122000000Y-97250000D03*
X113750000Y-93750000D03*
X109250000Y-84500000D03*
X145000000Y-87750000D03*
X151507790Y-89073009D03*
X146465173Y-100125637D03*
X146433051Y-96316949D03*
X122750000Y-98500000D03*
X123750000Y-100000000D03*
X146199591Y-98787117D03*
X151250000Y-96500000D03*
X144290239Y-100216432D03*
X146239416Y-95187037D03*
X114354887Y-98270103D03*
X116217050Y-99374990D03*
X138250000Y-98500000D03*
D31*
X163130000Y-92610000D02*
X167232000Y-92610000D01*
X167232000Y-92610000D02*
X167894000Y-91948000D01*
D32*
X116771021Y-84484666D02*
X117977334Y-84484666D01*
X117977334Y-84484666D02*
X118110000Y-84352000D01*
X117255954Y-84484666D02*
X116771021Y-84484666D01*
X118146608Y-84484666D02*
X117255954Y-84484666D01*
X118495649Y-84135625D02*
X118146608Y-84484666D01*
X118578000Y-84217976D02*
X118495649Y-84135625D01*
X118578000Y-84328000D02*
X118578000Y-84217976D01*
X134250000Y-105821321D02*
X134232668Y-105838653D01*
X134250000Y-100750000D02*
X134250000Y-105821321D01*
X157380000Y-101610000D02*
X157380000Y-104960000D01*
X157380000Y-104960000D02*
X157250000Y-105090000D01*
X115540000Y-91480000D02*
X115540000Y-97020000D01*
X115540000Y-91480000D02*
X114770000Y-91480000D01*
X118250000Y-93500000D02*
X119873189Y-93500000D01*
X119873189Y-93500000D02*
X120993604Y-94620415D01*
X170280000Y-101610000D02*
X170280000Y-104960000D01*
X170280000Y-104960000D02*
X170000000Y-105240000D01*
X116850000Y-103750000D02*
X116850000Y-105800000D01*
X116850000Y-105800000D02*
X117550000Y-106500000D01*
X110650000Y-103750000D02*
X110650000Y-105800000D01*
X110650000Y-105800000D02*
X109950000Y-106500000D01*
X113100000Y-102350000D02*
X112750000Y-102000000D01*
X112750000Y-102000000D02*
X112500000Y-102000000D01*
X112500000Y-102650000D02*
X112500000Y-102000000D01*
X112450000Y-103625000D02*
X112450000Y-102700000D01*
X112450000Y-102700000D02*
X112500000Y-102650000D01*
D33*
X143764000Y-89408000D02*
X142494000Y-89408000D01*
D32*
X129250000Y-88750000D02*
X131750000Y-88750000D01*
D34*
X162500000Y-88250000D02*
X164592000Y-86158000D01*
X164592000Y-86158000D02*
X164592000Y-85750000D01*
D35*
X163750000Y-83000000D02*
X163750000Y-84908000D01*
X163750000Y-84908000D02*
X164592000Y-85750000D01*
D34*
X140000000Y-92750000D02*
X140000000Y-89616000D01*
X140000000Y-89616000D02*
X140208000Y-89408000D01*
D33*
X141224000Y-89408000D02*
X140208000Y-89408000D01*
X140208000Y-89408000D02*
X136144000Y-85344000D01*
X141224000Y-89408000D02*
X143764000Y-89408000D01*
X154768842Y-90270000D02*
X155194000Y-90270000D01*
X152260154Y-87761312D02*
X154768842Y-90270000D01*
X150576686Y-87761312D02*
X152260154Y-87761312D01*
X149860000Y-89408000D02*
X149860000Y-88477998D01*
X149860000Y-88477998D02*
X150576686Y-87761312D01*
D34*
X148590000Y-89408000D02*
X149860000Y-89408000D01*
X146250000Y-87750000D02*
X146250000Y-88338000D01*
X146250000Y-88338000D02*
X147320000Y-89408000D01*
X155750000Y-88500000D02*
X155750000Y-89714000D01*
X155750000Y-89714000D02*
X155194000Y-90270000D01*
D33*
X147320000Y-89408000D02*
X149860000Y-89408000D01*
D36*
X140000000Y-96250000D02*
X140000000Y-94460000D01*
X140000000Y-94460000D02*
X138250000Y-92710000D01*
D32*
X115050000Y-103625000D02*
X115050000Y-102200000D01*
X115050000Y-102200000D02*
X115250000Y-102000000D01*
D34*
X122000000Y-106250000D02*
X121500000Y-106250000D01*
X121500000Y-106250000D02*
X119750000Y-104500000D01*
D32*
X118250000Y-90813524D02*
X117036852Y-89600376D01*
X118250000Y-92000000D02*
X118250000Y-90813524D01*
X117036852Y-89600376D02*
X116693953Y-89257477D01*
X126388000Y-91264268D02*
X126388000Y-92750000D01*
X126222618Y-95651980D02*
X126222618Y-92915382D01*
X126222618Y-92915382D02*
X126388000Y-92750000D01*
X126388000Y-91264268D02*
X126391908Y-91268176D01*
X126391908Y-95482690D02*
X126222618Y-95651980D01*
X110490000Y-87352000D02*
X110490000Y-91450000D01*
X110490000Y-91450000D02*
X110460000Y-91480000D01*
X119250000Y-92000000D02*
X118250000Y-92000000D01*
X110460000Y-97020000D02*
X110460000Y-95000000D01*
X110460000Y-95000000D02*
X110460000Y-91480000D01*
X109750000Y-95000000D02*
X110460000Y-95000000D01*
X120259000Y-99750000D02*
X120558999Y-99450001D01*
X120558999Y-99450001D02*
X120799999Y-99450001D01*
X120799999Y-99450001D02*
X123250000Y-97000000D01*
X112010000Y-101068000D02*
X111310000Y-101068000D01*
X110460000Y-100218000D02*
X110460000Y-97020000D01*
X111310000Y-101068000D02*
X110460000Y-100218000D01*
X120644000Y-84228000D02*
X118990599Y-82574599D01*
X120644000Y-84328000D02*
X120644000Y-84228000D01*
X118990599Y-82574599D02*
X117435448Y-82574599D01*
X117435448Y-82574599D02*
X115010047Y-85000000D01*
X123290000Y-92750000D02*
X124788000Y-92750000D01*
X121790000Y-91264268D02*
X121790000Y-89790000D01*
X121790000Y-89790000D02*
X121250000Y-89250000D01*
D33*
X155194000Y-95150000D02*
X157597838Y-95150000D01*
X157597838Y-95150000D02*
X158215988Y-94531850D01*
X158215988Y-94531850D02*
X158215988Y-88965988D01*
X158215988Y-88965988D02*
X154500000Y-85250000D01*
D32*
X114400000Y-103625000D02*
X114400000Y-101741010D01*
X114400000Y-101741010D02*
X114358000Y-101699010D01*
X114358000Y-101699010D02*
X114358000Y-101583010D01*
X114358000Y-101583010D02*
X114858000Y-101083010D01*
X114858000Y-101083010D02*
X115058000Y-101083010D01*
X113750000Y-103625000D02*
X113750000Y-101299010D01*
X113750000Y-101299010D02*
X113534000Y-101083010D01*
X113030000Y-84352000D02*
X113030000Y-86252484D01*
X113030000Y-86252484D02*
X113027605Y-86254879D01*
X113027605Y-86254879D02*
X113027605Y-86604395D01*
X113027605Y-86604395D02*
X112174999Y-87457001D01*
X112174999Y-87457001D02*
X112174999Y-93174999D01*
X112174999Y-93174999D02*
X112750000Y-93750000D01*
X116592899Y-93657101D02*
X116250000Y-94000000D01*
X116592899Y-90124899D02*
X116592899Y-93657101D01*
X115570000Y-89102000D02*
X116592899Y-90124899D01*
X115570000Y-87352000D02*
X115570000Y-89102000D01*
X122000000Y-97250000D02*
X121250000Y-97250000D01*
X121250000Y-97250000D02*
X120250000Y-98250000D01*
X113750000Y-93750000D02*
X113750000Y-92230000D01*
X113750000Y-92230000D02*
X113000000Y-91480000D01*
X109250000Y-84500000D02*
X110917712Y-84500000D01*
X110917712Y-84500000D02*
X111724988Y-85307276D01*
X111724988Y-85307276D02*
X111724988Y-90250000D01*
X111724988Y-90159986D02*
X111724988Y-90250000D01*
X111724988Y-90250000D02*
X111724988Y-93994988D01*
X113000000Y-95270000D02*
X113000000Y-97020000D01*
X111724988Y-93994988D02*
X113000000Y-95270000D01*
D34*
X145034000Y-89408000D02*
X145034000Y-87784000D01*
X145034000Y-87784000D02*
X145000000Y-87750000D01*
X141224000Y-94873000D02*
X141224000Y-94673000D01*
X141224000Y-94673000D02*
X143129000Y-92768000D01*
X142494000Y-94873000D02*
X142494000Y-93403000D01*
X142494000Y-93403000D02*
X143129000Y-92768000D01*
X143764000Y-94873000D02*
X143764000Y-93403000D01*
X143764000Y-93403000D02*
X143129000Y-92768000D01*
X145034000Y-94873000D02*
X145034000Y-94673000D01*
X145034000Y-94673000D02*
X143129000Y-92768000D01*
X151130000Y-94873000D02*
X151130000Y-94673000D01*
X151130000Y-94673000D02*
X149225000Y-92768000D01*
X147320000Y-94873000D02*
X147320000Y-94673000D01*
X147320000Y-94673000D02*
X149225000Y-92768000D01*
X148590000Y-94873000D02*
X148590000Y-93403000D01*
X148590000Y-93403000D02*
X149225000Y-92768000D01*
X149860000Y-94873000D02*
X149860000Y-93403000D01*
X149860000Y-93403000D02*
X149225000Y-92768000D01*
D37*
X143129000Y-92768000D02*
X149225000Y-92768000D01*
D34*
X151207791Y-89373008D02*
X151507790Y-89073009D01*
X151172799Y-89408000D02*
X151207791Y-89373008D01*
X151130000Y-89408000D02*
X151172799Y-89408000D01*
D32*
X145516087Y-99176551D02*
X146122274Y-99782738D01*
X145516087Y-97233913D02*
X145516087Y-99176551D01*
X146433051Y-96316949D02*
X145516087Y-97233913D01*
X146122274Y-99782738D02*
X146465173Y-100125637D01*
X123750000Y-100000000D02*
X123750000Y-99500000D01*
X123750000Y-99500000D02*
X122750000Y-98500000D01*
X151250000Y-96500000D02*
X148486708Y-96500000D01*
X146542490Y-98444218D02*
X146199591Y-98787117D01*
X148486708Y-96500000D02*
X146542490Y-98444218D01*
X144290239Y-99731499D02*
X144290239Y-100216432D01*
X144290239Y-97136214D02*
X144290239Y-99731499D01*
X146239416Y-95187037D02*
X144290239Y-97136214D01*
X113534000Y-99083010D02*
X114346907Y-98270103D01*
X114346907Y-98270103D02*
X114354887Y-98270103D01*
X113534000Y-99583010D02*
X113534000Y-99083010D01*
X113534000Y-99583010D02*
X112025010Y-99583010D01*
X112025010Y-99583010D02*
X112010000Y-99568000D01*
X116009030Y-99583010D02*
X116217050Y-99374990D01*
X115058000Y-99583010D02*
X116009030Y-99583010D01*
X138250000Y-98500000D02*
X138250000Y-95250000D01*
X123290000Y-91264268D02*
X124788000Y-91264268D01*
D38*
G36*
X114969099Y-84157064D02*
X114843119Y-84156954D01*
X114533206Y-84285008D01*
X114295888Y-84521912D01*
X114167294Y-84831601D01*
X114167001Y-85166928D01*
X114295055Y-85476841D01*
X114531959Y-85714159D01*
X114583763Y-85735670D01*
X114560205Y-85852000D01*
X114560205Y-88852000D01*
X114595069Y-89037289D01*
X114704575Y-89207465D01*
X114871661Y-89321630D01*
X114996391Y-89346889D01*
X115085333Y-89480000D01*
X114940544Y-89480000D01*
X114756773Y-89556121D01*
X114616120Y-89696773D01*
X114540000Y-89880544D01*
X114540000Y-91205000D01*
X114665000Y-91330000D01*
X115390000Y-91330000D01*
X115390000Y-91310000D01*
X115690000Y-91310000D01*
X115690000Y-91330000D01*
X115710000Y-91330000D01*
X115710000Y-91630000D01*
X115690000Y-91630000D01*
X115690000Y-93355000D01*
X115696517Y-93361517D01*
X115535841Y-93521912D01*
X115407247Y-93831601D01*
X115406954Y-94166928D01*
X115535008Y-94476841D01*
X115771912Y-94714159D01*
X116081601Y-94842753D01*
X116416928Y-94843046D01*
X116726841Y-94714992D01*
X116964159Y-94478088D01*
X117092753Y-94168399D01*
X117092890Y-94012167D01*
X117149355Y-93927661D01*
X117170324Y-93896279D01*
X117194447Y-93775000D01*
X117375000Y-93775000D01*
X117375000Y-93999456D01*
X117451120Y-94183227D01*
X117591773Y-94323879D01*
X117775544Y-94400000D01*
X117975000Y-94400000D01*
X118100000Y-94275000D01*
X118100000Y-93650000D01*
X118400000Y-93650000D01*
X118400000Y-94275000D01*
X118525000Y-94400000D01*
X118724456Y-94400000D01*
X118908227Y-94323879D01*
X119048880Y-94183227D01*
X119125000Y-93999456D01*
X119125000Y-93775000D01*
X119000000Y-93650000D01*
X118400000Y-93650000D01*
X118100000Y-93650000D01*
X117500000Y-93650000D01*
X117375000Y-93775000D01*
X117194447Y-93775000D01*
X117217899Y-93657101D01*
X117217899Y-90665306D01*
X117625000Y-91072407D01*
X117625000Y-91166710D01*
X117519535Y-91234575D01*
X117405370Y-91401661D01*
X117365205Y-91600000D01*
X117365205Y-92400000D01*
X117400069Y-92585289D01*
X117509575Y-92755465D01*
X117511270Y-92756623D01*
X117451120Y-92816773D01*
X117375000Y-93000544D01*
X117375000Y-93225000D01*
X117500000Y-93350000D01*
X118100000Y-93350000D01*
X118100000Y-93330000D01*
X118400000Y-93330000D01*
X118400000Y-93350000D01*
X119000000Y-93350000D01*
X119125000Y-93225000D01*
X119125000Y-93025000D01*
X121040000Y-93025000D01*
X121040000Y-93299456D01*
X121116121Y-93483227D01*
X121256773Y-93623880D01*
X121440544Y-93700000D01*
X121540000Y-93700000D01*
X121665000Y-93575000D01*
X121665000Y-92900000D01*
X121165000Y-92900000D01*
X121040000Y-93025000D01*
X119125000Y-93025000D01*
X119125000Y-93000544D01*
X119055080Y-92831740D01*
X119081601Y-92842753D01*
X119416928Y-92843046D01*
X119726841Y-92714992D01*
X119964159Y-92478088D01*
X120092753Y-92168399D01*
X120093046Y-91833072D01*
X119964992Y-91523159D01*
X119728088Y-91285841D01*
X119418399Y-91157247D01*
X119083072Y-91156954D01*
X118945462Y-91213813D01*
X118875000Y-91165668D01*
X118875000Y-90813524D01*
X118866723Y-90771912D01*
X118827425Y-90574346D01*
X118743566Y-90448843D01*
X118691942Y-90371582D01*
X118691939Y-90371580D01*
X117536889Y-89216529D01*
X117536999Y-89090549D01*
X117408945Y-88780636D01*
X117172041Y-88543318D01*
X116862352Y-88414724D01*
X116579795Y-88414477D01*
X116579795Y-85852000D01*
X116544931Y-85666711D01*
X116435425Y-85496535D01*
X116268339Y-85382370D01*
X116070000Y-85342205D01*
X115780630Y-85342205D01*
X115852800Y-85168399D01*
X115852911Y-85041020D01*
X116266931Y-84627000D01*
X117110000Y-84627000D01*
X117110000Y-85951456D01*
X117186120Y-86135227D01*
X117326773Y-86275879D01*
X117510544Y-86352000D01*
X117835000Y-86352000D01*
X117960000Y-86227000D01*
X117960000Y-84502000D01*
X118260000Y-84502000D01*
X118260000Y-86227000D01*
X118385000Y-86352000D01*
X118709456Y-86352000D01*
X118893227Y-86275879D01*
X119033880Y-86135227D01*
X119110000Y-85951456D01*
X119110000Y-84627000D01*
X118985000Y-84502000D01*
X118260000Y-84502000D01*
X117960000Y-84502000D01*
X117235000Y-84502000D01*
X117110000Y-84627000D01*
X116266931Y-84627000D01*
X117110000Y-83783931D01*
X117110000Y-84077000D01*
X117235000Y-84202000D01*
X117960000Y-84202000D01*
X117960000Y-84182000D01*
X118260000Y-84182000D01*
X118260000Y-84202000D01*
X118985000Y-84202000D01*
X119110000Y-84077000D01*
X119110000Y-83577884D01*
X119134205Y-83602089D01*
X119134205Y-85428000D01*
X119169069Y-85613289D01*
X119278575Y-85783465D01*
X119445661Y-85897630D01*
X119644000Y-85937795D01*
X121644000Y-85937795D01*
X121829289Y-85902931D01*
X121999465Y-85793425D01*
X122113630Y-85626339D01*
X122153795Y-85428000D01*
X122153795Y-84603000D01*
X124744000Y-84603000D01*
X124744000Y-85527456D01*
X124820121Y-85711227D01*
X124960773Y-85851880D01*
X125144544Y-85928000D01*
X125969000Y-85928000D01*
X126094000Y-85803000D01*
X126094000Y-84478000D01*
X124869000Y-84478000D01*
X124744000Y-84603000D01*
X122153795Y-84603000D01*
X122153795Y-83228000D01*
X122135082Y-83128544D01*
X124744000Y-83128544D01*
X124744000Y-84053000D01*
X124869000Y-84178000D01*
X126094000Y-84178000D01*
X126094000Y-82853000D01*
X125969000Y-82728000D01*
X125144544Y-82728000D01*
X124960773Y-82804120D01*
X124820121Y-82944773D01*
X124744000Y-83128544D01*
X122135082Y-83128544D01*
X122118931Y-83042711D01*
X122009425Y-82872535D01*
X121842339Y-82758370D01*
X121644000Y-82718205D01*
X120018089Y-82718205D01*
X119789884Y-82490000D01*
X126504500Y-82490000D01*
X126509165Y-82737835D01*
X126394000Y-82853000D01*
X126394000Y-84178000D01*
X126414000Y-84178000D01*
X126414000Y-84478000D01*
X126394000Y-84478000D01*
X126394000Y-85803000D01*
X126519000Y-85928000D01*
X126569216Y-85928000D01*
X126652537Y-90354473D01*
X125988000Y-90354473D01*
X125802711Y-90389337D01*
X125632535Y-90498843D01*
X125588493Y-90563300D01*
X125553425Y-90508803D01*
X125386339Y-90394638D01*
X125188000Y-90354473D01*
X124388000Y-90354473D01*
X124202711Y-90389337D01*
X124032535Y-90498843D01*
X123980343Y-90575228D01*
X123905425Y-90458803D01*
X123738339Y-90344638D01*
X123540000Y-90304473D01*
X123040000Y-90304473D01*
X122854711Y-90339337D01*
X122684535Y-90448843D01*
X122570370Y-90615929D01*
X122540360Y-90764123D01*
X122514931Y-90628979D01*
X122415000Y-90473683D01*
X122415000Y-89790000D01*
X122381534Y-89621753D01*
X122367425Y-89550822D01*
X122231942Y-89348058D01*
X122092936Y-89209052D01*
X122093046Y-89083072D01*
X121964992Y-88773159D01*
X121728088Y-88535841D01*
X121418399Y-88407247D01*
X121083072Y-88406954D01*
X120773159Y-88535008D01*
X120535841Y-88771912D01*
X120407247Y-89081601D01*
X120406954Y-89416928D01*
X120535008Y-89726841D01*
X120771912Y-89964159D01*
X121081601Y-90092753D01*
X121165000Y-90092826D01*
X121165000Y-90477433D01*
X121070370Y-90615929D01*
X121030205Y-90814268D01*
X121030205Y-91714268D01*
X121065069Y-91899557D01*
X121130952Y-92001942D01*
X121116121Y-92016773D01*
X121040000Y-92200544D01*
X121040000Y-92475000D01*
X121165000Y-92600000D01*
X121665000Y-92600000D01*
X121665000Y-92580000D01*
X121915000Y-92580000D01*
X121915000Y-92600000D01*
X121960000Y-92600000D01*
X121960000Y-92900000D01*
X121915000Y-92900000D01*
X121915000Y-93575000D01*
X122040000Y-93700000D01*
X122139456Y-93700000D01*
X122323227Y-93623880D01*
X122463879Y-93483227D01*
X122540000Y-93299456D01*
X122540000Y-93252057D01*
X122565069Y-93385289D01*
X122674575Y-93555465D01*
X122841661Y-93669630D01*
X123040000Y-93709795D01*
X123540000Y-93709795D01*
X123725289Y-93674931D01*
X123895465Y-93565425D01*
X123980796Y-93440539D01*
X124022575Y-93505465D01*
X124189661Y-93619630D01*
X124388000Y-93659795D01*
X125188000Y-93659795D01*
X125373289Y-93624931D01*
X125543465Y-93515425D01*
X125587507Y-93450968D01*
X125597618Y-93466681D01*
X125597618Y-95084889D01*
X125508459Y-95173892D01*
X125379865Y-95483581D01*
X125379572Y-95818908D01*
X125507626Y-96128821D01*
X125744530Y-96366139D01*
X126054219Y-96494733D01*
X126389546Y-96495026D01*
X126699459Y-96366972D01*
X126764492Y-96302053D01*
X126900018Y-103501882D01*
X126908627Y-103540632D01*
X126931634Y-103572980D01*
X126965414Y-103593829D01*
X127000000Y-103600000D01*
X154930000Y-103600000D01*
X154930000Y-104809456D01*
X155006120Y-104993227D01*
X155146773Y-105133879D01*
X155330544Y-105210000D01*
X157105000Y-105210000D01*
X157230000Y-105085000D01*
X157230000Y-103600000D01*
X157530000Y-103600000D01*
X157530000Y-105085000D01*
X157655000Y-105210000D01*
X159429456Y-105210000D01*
X159613227Y-105133879D01*
X159753880Y-104993227D01*
X159830000Y-104809456D01*
X159830000Y-103600000D01*
X165750000Y-103600000D01*
X165788906Y-103592121D01*
X165821681Y-103569727D01*
X165843161Y-103536346D01*
X165849993Y-103498824D01*
X165831007Y-101885000D01*
X167830000Y-101885000D01*
X167830000Y-104809456D01*
X167906120Y-104993227D01*
X168046773Y-105133879D01*
X168230544Y-105210000D01*
X170005000Y-105210000D01*
X170130000Y-105085000D01*
X170130000Y-101760000D01*
X170430000Y-101760000D01*
X170430000Y-105085000D01*
X170555000Y-105210000D01*
X172329456Y-105210000D01*
X172513227Y-105133879D01*
X172653880Y-104993227D01*
X172730000Y-104809456D01*
X172730000Y-101885000D01*
X172605000Y-101760000D01*
X170430000Y-101760000D01*
X170130000Y-101760000D01*
X167955000Y-101760000D01*
X167830000Y-101885000D01*
X165831007Y-101885000D01*
X165790131Y-98410544D01*
X167830000Y-98410544D01*
X167830000Y-101335000D01*
X167955000Y-101460000D01*
X170130000Y-101460000D01*
X170130000Y-98135000D01*
X170430000Y-98135000D01*
X170430000Y-101460000D01*
X172605000Y-101460000D01*
X172730000Y-101335000D01*
X172730000Y-98410544D01*
X172653880Y-98226773D01*
X172513227Y-98086121D01*
X172329456Y-98010000D01*
X170555000Y-98010000D01*
X170430000Y-98135000D01*
X170130000Y-98135000D01*
X170005000Y-98010000D01*
X168230544Y-98010000D01*
X168046773Y-98086121D01*
X167906120Y-98226773D01*
X167830000Y-98410544D01*
X165790131Y-98410544D01*
X165731301Y-93410000D01*
X167232000Y-93410000D01*
X167538147Y-93349104D01*
X167797685Y-93175685D01*
X168267805Y-92705566D01*
X168370841Y-92662992D01*
X168608159Y-92426088D01*
X168736753Y-92116399D01*
X168737046Y-91781072D01*
X168608992Y-91471159D01*
X168372088Y-91233841D01*
X168062399Y-91105247D01*
X167727072Y-91104954D01*
X167417159Y-91233008D01*
X167179841Y-91469912D01*
X167136613Y-91574016D01*
X166900630Y-91810000D01*
X165712477Y-91810000D01*
X165602830Y-82490000D01*
X172780000Y-82490000D01*
X172780000Y-107375000D01*
X118950000Y-107375000D01*
X118950000Y-106775000D01*
X118825000Y-106650000D01*
X117700000Y-106650000D01*
X117700000Y-106670000D01*
X117400000Y-106670000D01*
X117400000Y-106650000D01*
X115100000Y-106650000D01*
X115100000Y-106670000D01*
X114800000Y-106670000D01*
X114800000Y-106650000D01*
X112700000Y-106650000D01*
X112700000Y-106670000D01*
X112400000Y-106670000D01*
X112400000Y-106650000D01*
X110100000Y-106650000D01*
X110100000Y-106670000D01*
X109800000Y-106670000D01*
X109800000Y-106650000D01*
X108675000Y-106650000D01*
X108550000Y-106775000D01*
X108550000Y-107375000D01*
X108525000Y-107375000D01*
X108525000Y-105450544D01*
X108550000Y-105450544D01*
X108550000Y-106225000D01*
X108675000Y-106350000D01*
X109800000Y-106350000D01*
X109800000Y-105175000D01*
X109675000Y-105050000D01*
X110225000Y-105050000D01*
X110100000Y-105175000D01*
X110100000Y-106350000D01*
X112400000Y-106350000D01*
X112400000Y-105175000D01*
X112700000Y-105175000D01*
X112700000Y-106350000D01*
X114800000Y-106350000D01*
X114800000Y-105175000D01*
X114675000Y-105050000D01*
X113900544Y-105050000D01*
X113750000Y-105112358D01*
X113599456Y-105050000D01*
X112825000Y-105050000D01*
X112700000Y-105175000D01*
X112400000Y-105175000D01*
X112275000Y-105050000D01*
X111799456Y-105050000D01*
X111983227Y-104973879D01*
X112123880Y-104833227D01*
X112139532Y-104795439D01*
X112150544Y-104800000D01*
X112225000Y-104800000D01*
X112350000Y-104675000D01*
X112350000Y-103775000D01*
X111875000Y-103775000D01*
X111750000Y-103900000D01*
X110800000Y-103900000D01*
X110800000Y-104925000D01*
X110925000Y-105050000D01*
X110375000Y-105050000D01*
X110500000Y-104925000D01*
X110500000Y-103900000D01*
X109225000Y-103900000D01*
X109100000Y-104025000D01*
X109100000Y-104649456D01*
X109176120Y-104833227D01*
X109316773Y-104973879D01*
X109500544Y-105050000D01*
X108950544Y-105050000D01*
X108766773Y-105126121D01*
X108626120Y-105266773D01*
X108550000Y-105450544D01*
X108525000Y-105450544D01*
X108525000Y-102850544D01*
X109100000Y-102850544D01*
X109100000Y-103475000D01*
X109225000Y-103600000D01*
X110500000Y-103600000D01*
X110500000Y-102575000D01*
X110800000Y-102575000D01*
X110800000Y-103600000D01*
X112075000Y-103600000D01*
X112200000Y-103475000D01*
X112350000Y-103475000D01*
X112350000Y-102575000D01*
X112225000Y-102450000D01*
X112150544Y-102450000D01*
X111975000Y-102522713D01*
X111799456Y-102450000D01*
X110925000Y-102450000D01*
X110800000Y-102575000D01*
X110500000Y-102575000D01*
X110375000Y-102450000D01*
X109500544Y-102450000D01*
X109316773Y-102526121D01*
X109176120Y-102666773D01*
X109100000Y-102850544D01*
X108525000Y-102850544D01*
X108525000Y-84952620D01*
X108535008Y-84976841D01*
X108771912Y-85214159D01*
X109081601Y-85342753D01*
X109416928Y-85343046D01*
X109726841Y-85214992D01*
X109816990Y-85125000D01*
X110658828Y-85125000D01*
X110876033Y-85342205D01*
X109990000Y-85342205D01*
X109804711Y-85377069D01*
X109634535Y-85486575D01*
X109520370Y-85653661D01*
X109480205Y-85852000D01*
X109480205Y-88852000D01*
X109515069Y-89037289D01*
X109624575Y-89207465D01*
X109791661Y-89321630D01*
X109865000Y-89336482D01*
X109865000Y-89488080D01*
X109774711Y-89505069D01*
X109604535Y-89614575D01*
X109490370Y-89781661D01*
X109450205Y-89980000D01*
X109450205Y-92980000D01*
X109485069Y-93165289D01*
X109594575Y-93335465D01*
X109761661Y-93449630D01*
X109835000Y-93464482D01*
X109835000Y-94157174D01*
X109583072Y-94156954D01*
X109273159Y-94285008D01*
X109035841Y-94521912D01*
X108907247Y-94831601D01*
X108906954Y-95166928D01*
X109035008Y-95476841D01*
X109271912Y-95714159D01*
X109450205Y-95788193D01*
X109450205Y-98520000D01*
X109485069Y-98705289D01*
X109594575Y-98875465D01*
X109761661Y-98989630D01*
X109835000Y-99004482D01*
X109835000Y-100218000D01*
X109882575Y-100457177D01*
X110018058Y-100659942D01*
X110868056Y-101509939D01*
X110868058Y-101509942D01*
X111070823Y-101645425D01*
X111192048Y-101669539D01*
X111194575Y-101673465D01*
X111361661Y-101787630D01*
X111560000Y-101827795D01*
X112460000Y-101827795D01*
X112645289Y-101792931D01*
X112761761Y-101717983D01*
X112885661Y-101802640D01*
X113084000Y-101842805D01*
X113125000Y-101842805D01*
X113125000Y-102440205D01*
X112900000Y-102440205D01*
X112780220Y-102462743D01*
X112749456Y-102450000D01*
X112675000Y-102450000D01*
X112550000Y-102575000D01*
X112550000Y-102581058D01*
X112544535Y-102584575D01*
X112430370Y-102751661D01*
X112390205Y-102950000D01*
X112390205Y-104300000D01*
X112425069Y-104485289D01*
X112534575Y-104655465D01*
X112550000Y-104666004D01*
X112550000Y-104675000D01*
X112675000Y-104800000D01*
X112749456Y-104800000D01*
X112783006Y-104786103D01*
X112900000Y-104809795D01*
X113300000Y-104809795D01*
X113429590Y-104785411D01*
X113550000Y-104809795D01*
X113950000Y-104809795D01*
X114079590Y-104785411D01*
X114200000Y-104809795D01*
X114600000Y-104809795D01*
X114729590Y-104785411D01*
X114850000Y-104809795D01*
X115250000Y-104809795D01*
X115357997Y-104789474D01*
X115376120Y-104833227D01*
X115516773Y-104973879D01*
X115700544Y-105050000D01*
X115225000Y-105050000D01*
X115100000Y-105175000D01*
X115100000Y-106350000D01*
X117400000Y-106350000D01*
X117400000Y-105175000D01*
X117275000Y-105050000D01*
X117825000Y-105050000D01*
X117700000Y-105175000D01*
X117700000Y-106350000D01*
X118825000Y-106350000D01*
X118950000Y-106225000D01*
X118950000Y-105450544D01*
X118873880Y-105266773D01*
X118733227Y-105126121D01*
X118549456Y-105050000D01*
X117999456Y-105050000D01*
X118183227Y-104973879D01*
X118323880Y-104833227D01*
X118392762Y-104666928D01*
X118906954Y-104666928D01*
X119035008Y-104976841D01*
X119271912Y-105214159D01*
X119581601Y-105342753D01*
X119673595Y-105342833D01*
X121040381Y-106709620D01*
X121251256Y-106850522D01*
X121447426Y-106889542D01*
X121521912Y-106964159D01*
X121831601Y-107092753D01*
X122166928Y-107093046D01*
X122476841Y-106964992D01*
X122714159Y-106728088D01*
X122842753Y-106418399D01*
X122843046Y-106083072D01*
X122714992Y-105773159D01*
X122649008Y-105707059D01*
X162329740Y-105707059D01*
X162557620Y-106258572D01*
X162979209Y-106680897D01*
X163530323Y-106909739D01*
X164127059Y-106910260D01*
X164678572Y-106682380D01*
X165100897Y-106260791D01*
X165329739Y-105709677D01*
X165330260Y-105112941D01*
X165102380Y-104561428D01*
X164680791Y-104139103D01*
X164129677Y-103910261D01*
X163532941Y-103909740D01*
X162981428Y-104137620D01*
X162559103Y-104559209D01*
X162330261Y-105110323D01*
X162329740Y-105707059D01*
X122649008Y-105707059D01*
X122478088Y-105535841D01*
X122168399Y-105407247D01*
X121833072Y-105406954D01*
X121651300Y-105482061D01*
X120592967Y-104423729D01*
X120593046Y-104333072D01*
X120464992Y-104023159D01*
X120228088Y-103785841D01*
X119918399Y-103657247D01*
X119583072Y-103656954D01*
X119273159Y-103785008D01*
X119035841Y-104021912D01*
X118907247Y-104331601D01*
X118906954Y-104666928D01*
X118392762Y-104666928D01*
X118400000Y-104649456D01*
X118400000Y-104025000D01*
X118275000Y-103900000D01*
X117000000Y-103900000D01*
X117000000Y-104925000D01*
X117125000Y-105050000D01*
X116575000Y-105050000D01*
X116700000Y-104925000D01*
X116700000Y-103900000D01*
X116680000Y-103900000D01*
X116680000Y-103600000D01*
X116700000Y-103600000D01*
X116700000Y-102575000D01*
X117000000Y-102575000D01*
X117000000Y-103600000D01*
X118275000Y-103600000D01*
X118400000Y-103475000D01*
X118400000Y-102850544D01*
X118323880Y-102666773D01*
X118183227Y-102526121D01*
X117999456Y-102450000D01*
X117125000Y-102450000D01*
X117000000Y-102575000D01*
X116700000Y-102575000D01*
X116575000Y-102450000D01*
X115975822Y-102450000D01*
X116092753Y-102168399D01*
X116093046Y-101833072D01*
X115971863Y-101539789D01*
X115977630Y-101531349D01*
X116017795Y-101333010D01*
X116017795Y-100833010D01*
X115982931Y-100647721D01*
X115873425Y-100477545D01*
X115706339Y-100363380D01*
X115558145Y-100333370D01*
X115693289Y-100307941D01*
X115848585Y-100208010D01*
X116009030Y-100208010D01*
X116019970Y-100205834D01*
X116048651Y-100217743D01*
X116383978Y-100218036D01*
X116693891Y-100089982D01*
X116931209Y-99853078D01*
X117059803Y-99543389D01*
X117060096Y-99208062D01*
X116932042Y-98898149D01*
X116695138Y-98660831D01*
X116540000Y-98596412D01*
X116540000Y-98416928D01*
X119406954Y-98416928D01*
X119535008Y-98726841D01*
X119771912Y-98964159D01*
X119862545Y-99001793D01*
X119782159Y-99035008D01*
X119544841Y-99271912D01*
X119416247Y-99581601D01*
X119415954Y-99916928D01*
X119544008Y-100226841D01*
X119780912Y-100464159D01*
X120090601Y-100592753D01*
X120425928Y-100593046D01*
X120735841Y-100464992D01*
X120973159Y-100228088D01*
X121063126Y-100011423D01*
X121241941Y-99891943D01*
X122095972Y-99037912D01*
X122271912Y-99214159D01*
X122581601Y-99342753D01*
X122708981Y-99342864D01*
X122992472Y-99626356D01*
X122907247Y-99831601D01*
X122906954Y-100166928D01*
X123035008Y-100476841D01*
X123271912Y-100714159D01*
X123581601Y-100842753D01*
X123916928Y-100843046D01*
X124226841Y-100714992D01*
X124464159Y-100478088D01*
X124592753Y-100168399D01*
X124593046Y-99833072D01*
X124464992Y-99523159D01*
X124358360Y-99416340D01*
X124327425Y-99260823D01*
X124279402Y-99188951D01*
X124191942Y-99058058D01*
X124191939Y-99058056D01*
X123592936Y-98459052D01*
X123593046Y-98333072D01*
X123464992Y-98023159D01*
X123288013Y-97845870D01*
X123290947Y-97842936D01*
X123416928Y-97843046D01*
X123726841Y-97714992D01*
X123964159Y-97478088D01*
X124092753Y-97168399D01*
X124093046Y-96833072D01*
X123964992Y-96523159D01*
X123728088Y-96285841D01*
X123418399Y-96157247D01*
X123083072Y-96156954D01*
X122773159Y-96285008D01*
X122535841Y-96521912D01*
X122514790Y-96572608D01*
X122478088Y-96535841D01*
X122168399Y-96407247D01*
X121833072Y-96406954D01*
X121523159Y-96535008D01*
X121433010Y-96625000D01*
X121250005Y-96625000D01*
X121250000Y-96624999D01*
X121031817Y-96668399D01*
X121010823Y-96672575D01*
X120808058Y-96808058D01*
X120808056Y-96808061D01*
X120209052Y-97407064D01*
X120083072Y-97406954D01*
X119773159Y-97535008D01*
X119535841Y-97771912D01*
X119407247Y-98081601D01*
X119406954Y-98416928D01*
X116540000Y-98416928D01*
X116540000Y-97295000D01*
X116415000Y-97170000D01*
X115690000Y-97170000D01*
X115690000Y-97190000D01*
X115390000Y-97190000D01*
X115390000Y-97170000D01*
X114665000Y-97170000D01*
X114540000Y-97295000D01*
X114540000Y-97434290D01*
X114523286Y-97427350D01*
X114187959Y-97427057D01*
X114009795Y-97500673D01*
X114009795Y-95520000D01*
X113991082Y-95420544D01*
X114540000Y-95420544D01*
X114540000Y-96745000D01*
X114665000Y-96870000D01*
X115390000Y-96870000D01*
X115390000Y-95145000D01*
X115690000Y-95145000D01*
X115690000Y-96870000D01*
X116415000Y-96870000D01*
X116540000Y-96745000D01*
X116540000Y-95420544D01*
X116463880Y-95236773D01*
X116323227Y-95096121D01*
X116139456Y-95020000D01*
X115815000Y-95020000D01*
X115690000Y-95145000D01*
X115390000Y-95145000D01*
X115265000Y-95020000D01*
X114940544Y-95020000D01*
X114756773Y-95096121D01*
X114616120Y-95236773D01*
X114540000Y-95420544D01*
X113991082Y-95420544D01*
X113974931Y-95334711D01*
X113865425Y-95164535D01*
X113698339Y-95050370D01*
X113573609Y-95025111D01*
X113441942Y-94828058D01*
X113122138Y-94508254D01*
X113226841Y-94464992D01*
X113249832Y-94442041D01*
X113271912Y-94464159D01*
X113581601Y-94592753D01*
X113916928Y-94593046D01*
X114226841Y-94464992D01*
X114464159Y-94228088D01*
X114592753Y-93918399D01*
X114593046Y-93583072D01*
X114464992Y-93273159D01*
X114375000Y-93183010D01*
X114375000Y-92230000D01*
X114362013Y-92164711D01*
X114327425Y-91990822D01*
X114191942Y-91788058D01*
X114158884Y-91755000D01*
X114540000Y-91755000D01*
X114540000Y-93079456D01*
X114616120Y-93263227D01*
X114756773Y-93403879D01*
X114940544Y-93480000D01*
X115265000Y-93480000D01*
X115390000Y-93355000D01*
X115390000Y-91630000D01*
X114665000Y-91630000D01*
X114540000Y-91755000D01*
X114158884Y-91755000D01*
X114009795Y-91605911D01*
X114009795Y-89980000D01*
X113974931Y-89794711D01*
X113865425Y-89624535D01*
X113698339Y-89510370D01*
X113500000Y-89470205D01*
X112799999Y-89470205D01*
X112799999Y-87715885D01*
X113469547Y-87046337D01*
X113605030Y-86843572D01*
X113652605Y-86604395D01*
X113652605Y-86338726D01*
X113715289Y-86326931D01*
X113885465Y-86217425D01*
X113999630Y-86050339D01*
X114039795Y-85852000D01*
X114039795Y-82852000D01*
X114004931Y-82666711D01*
X113895425Y-82496535D01*
X113885861Y-82490000D01*
X116636163Y-82490000D01*
X114969099Y-84157064D01*
X114969099Y-84157064D01*
G37*
X114969099Y-84157064D02*
X114843119Y-84156954D01*
X114533206Y-84285008D01*
X114295888Y-84521912D01*
X114167294Y-84831601D01*
X114167001Y-85166928D01*
X114295055Y-85476841D01*
X114531959Y-85714159D01*
X114583763Y-85735670D01*
X114560205Y-85852000D01*
X114560205Y-88852000D01*
X114595069Y-89037289D01*
X114704575Y-89207465D01*
X114871661Y-89321630D01*
X114996391Y-89346889D01*
X115085333Y-89480000D01*
X114940544Y-89480000D01*
X114756773Y-89556121D01*
X114616120Y-89696773D01*
X114540000Y-89880544D01*
X114540000Y-91205000D01*
X114665000Y-91330000D01*
X115390000Y-91330000D01*
X115390000Y-91310000D01*
X115690000Y-91310000D01*
X115690000Y-91330000D01*
X115710000Y-91330000D01*
X115710000Y-91630000D01*
X115690000Y-91630000D01*
X115690000Y-93355000D01*
X115696517Y-93361517D01*
X115535841Y-93521912D01*
X115407247Y-93831601D01*
X115406954Y-94166928D01*
X115535008Y-94476841D01*
X115771912Y-94714159D01*
X116081601Y-94842753D01*
X116416928Y-94843046D01*
X116726841Y-94714992D01*
X116964159Y-94478088D01*
X117092753Y-94168399D01*
X117092890Y-94012167D01*
X117149355Y-93927661D01*
X117170324Y-93896279D01*
X117194447Y-93775000D01*
X117375000Y-93775000D01*
X117375000Y-93999456D01*
X117451120Y-94183227D01*
X117591773Y-94323879D01*
X117775544Y-94400000D01*
X117975000Y-94400000D01*
X118100000Y-94275000D01*
X118100000Y-93650000D01*
X118400000Y-93650000D01*
X118400000Y-94275000D01*
X118525000Y-94400000D01*
X118724456Y-94400000D01*
X118908227Y-94323879D01*
X119048880Y-94183227D01*
X119125000Y-93999456D01*
X119125000Y-93775000D01*
X119000000Y-93650000D01*
X118400000Y-93650000D01*
X118100000Y-93650000D01*
X117500000Y-93650000D01*
X117375000Y-93775000D01*
X117194447Y-93775000D01*
X117217899Y-93657101D01*
X117217899Y-90665306D01*
X117625000Y-91072407D01*
X117625000Y-91166710D01*
X117519535Y-91234575D01*
X117405370Y-91401661D01*
X117365205Y-91600000D01*
X117365205Y-92400000D01*
X117400069Y-92585289D01*
X117509575Y-92755465D01*
X117511270Y-92756623D01*
X117451120Y-92816773D01*
X117375000Y-93000544D01*
X117375000Y-93225000D01*
X117500000Y-93350000D01*
X118100000Y-93350000D01*
X118100000Y-93330000D01*
X118400000Y-93330000D01*
X118400000Y-93350000D01*
X119000000Y-93350000D01*
X119125000Y-93225000D01*
X119125000Y-93025000D01*
X121040000Y-93025000D01*
X121040000Y-93299456D01*
X121116121Y-93483227D01*
X121256773Y-93623880D01*
X121440544Y-93700000D01*
X121540000Y-93700000D01*
X121665000Y-93575000D01*
X121665000Y-92900000D01*
X121165000Y-92900000D01*
X121040000Y-93025000D01*
X119125000Y-93025000D01*
X119125000Y-93000544D01*
X119055080Y-92831740D01*
X119081601Y-92842753D01*
X119416928Y-92843046D01*
X119726841Y-92714992D01*
X119964159Y-92478088D01*
X120092753Y-92168399D01*
X120093046Y-91833072D01*
X119964992Y-91523159D01*
X119728088Y-91285841D01*
X119418399Y-91157247D01*
X119083072Y-91156954D01*
X118945462Y-91213813D01*
X118875000Y-91165668D01*
X118875000Y-90813524D01*
X118866723Y-90771912D01*
X118827425Y-90574346D01*
X118743566Y-90448843D01*
X118691942Y-90371582D01*
X118691939Y-90371580D01*
X117536889Y-89216529D01*
X117536999Y-89090549D01*
X117408945Y-88780636D01*
X117172041Y-88543318D01*
X116862352Y-88414724D01*
X116579795Y-88414477D01*
X116579795Y-85852000D01*
X116544931Y-85666711D01*
X116435425Y-85496535D01*
X116268339Y-85382370D01*
X116070000Y-85342205D01*
X115780630Y-85342205D01*
X115852800Y-85168399D01*
X115852911Y-85041020D01*
X116266931Y-84627000D01*
X117110000Y-84627000D01*
X117110000Y-85951456D01*
X117186120Y-86135227D01*
X117326773Y-86275879D01*
X117510544Y-86352000D01*
X117835000Y-86352000D01*
X117960000Y-86227000D01*
X117960000Y-84502000D01*
X118260000Y-84502000D01*
X118260000Y-86227000D01*
X118385000Y-86352000D01*
X118709456Y-86352000D01*
X118893227Y-86275879D01*
X119033880Y-86135227D01*
X119110000Y-85951456D01*
X119110000Y-84627000D01*
X118985000Y-84502000D01*
X118260000Y-84502000D01*
X117960000Y-84502000D01*
X117235000Y-84502000D01*
X117110000Y-84627000D01*
X116266931Y-84627000D01*
X117110000Y-83783931D01*
X117110000Y-84077000D01*
X117235000Y-84202000D01*
X117960000Y-84202000D01*
X117960000Y-84182000D01*
X118260000Y-84182000D01*
X118260000Y-84202000D01*
X118985000Y-84202000D01*
X119110000Y-84077000D01*
X119110000Y-83577884D01*
X119134205Y-83602089D01*
X119134205Y-85428000D01*
X119169069Y-85613289D01*
X119278575Y-85783465D01*
X119445661Y-85897630D01*
X119644000Y-85937795D01*
X121644000Y-85937795D01*
X121829289Y-85902931D01*
X121999465Y-85793425D01*
X122113630Y-85626339D01*
X122153795Y-85428000D01*
X122153795Y-84603000D01*
X124744000Y-84603000D01*
X124744000Y-85527456D01*
X124820121Y-85711227D01*
X124960773Y-85851880D01*
X125144544Y-85928000D01*
X125969000Y-85928000D01*
X126094000Y-85803000D01*
X126094000Y-84478000D01*
X124869000Y-84478000D01*
X124744000Y-84603000D01*
X122153795Y-84603000D01*
X122153795Y-83228000D01*
X122135082Y-83128544D01*
X124744000Y-83128544D01*
X124744000Y-84053000D01*
X124869000Y-84178000D01*
X126094000Y-84178000D01*
X126094000Y-82853000D01*
X125969000Y-82728000D01*
X125144544Y-82728000D01*
X124960773Y-82804120D01*
X124820121Y-82944773D01*
X124744000Y-83128544D01*
X122135082Y-83128544D01*
X122118931Y-83042711D01*
X122009425Y-82872535D01*
X121842339Y-82758370D01*
X121644000Y-82718205D01*
X120018089Y-82718205D01*
X119789884Y-82490000D01*
X126504500Y-82490000D01*
X126509165Y-82737835D01*
X126394000Y-82853000D01*
X126394000Y-84178000D01*
X126414000Y-84178000D01*
X126414000Y-84478000D01*
X126394000Y-84478000D01*
X126394000Y-85803000D01*
X126519000Y-85928000D01*
X126569216Y-85928000D01*
X126652537Y-90354473D01*
X125988000Y-90354473D01*
X125802711Y-90389337D01*
X125632535Y-90498843D01*
X125588493Y-90563300D01*
X125553425Y-90508803D01*
X125386339Y-90394638D01*
X125188000Y-90354473D01*
X124388000Y-90354473D01*
X124202711Y-90389337D01*
X124032535Y-90498843D01*
X123980343Y-90575228D01*
X123905425Y-90458803D01*
X123738339Y-90344638D01*
X123540000Y-90304473D01*
X123040000Y-90304473D01*
X122854711Y-90339337D01*
X122684535Y-90448843D01*
X122570370Y-90615929D01*
X122540360Y-90764123D01*
X122514931Y-90628979D01*
X122415000Y-90473683D01*
X122415000Y-89790000D01*
X122381534Y-89621753D01*
X122367425Y-89550822D01*
X122231942Y-89348058D01*
X122092936Y-89209052D01*
X122093046Y-89083072D01*
X121964992Y-88773159D01*
X121728088Y-88535841D01*
X121418399Y-88407247D01*
X121083072Y-88406954D01*
X120773159Y-88535008D01*
X120535841Y-88771912D01*
X120407247Y-89081601D01*
X120406954Y-89416928D01*
X120535008Y-89726841D01*
X120771912Y-89964159D01*
X121081601Y-90092753D01*
X121165000Y-90092826D01*
X121165000Y-90477433D01*
X121070370Y-90615929D01*
X121030205Y-90814268D01*
X121030205Y-91714268D01*
X121065069Y-91899557D01*
X121130952Y-92001942D01*
X121116121Y-92016773D01*
X121040000Y-92200544D01*
X121040000Y-92475000D01*
X121165000Y-92600000D01*
X121665000Y-92600000D01*
X121665000Y-92580000D01*
X121915000Y-92580000D01*
X121915000Y-92600000D01*
X121960000Y-92600000D01*
X121960000Y-92900000D01*
X121915000Y-92900000D01*
X121915000Y-93575000D01*
X122040000Y-93700000D01*
X122139456Y-93700000D01*
X122323227Y-93623880D01*
X122463879Y-93483227D01*
X122540000Y-93299456D01*
X122540000Y-93252057D01*
X122565069Y-93385289D01*
X122674575Y-93555465D01*
X122841661Y-93669630D01*
X123040000Y-93709795D01*
X123540000Y-93709795D01*
X123725289Y-93674931D01*
X123895465Y-93565425D01*
X123980796Y-93440539D01*
X124022575Y-93505465D01*
X124189661Y-93619630D01*
X124388000Y-93659795D01*
X125188000Y-93659795D01*
X125373289Y-93624931D01*
X125543465Y-93515425D01*
X125587507Y-93450968D01*
X125597618Y-93466681D01*
X125597618Y-95084889D01*
X125508459Y-95173892D01*
X125379865Y-95483581D01*
X125379572Y-95818908D01*
X125507626Y-96128821D01*
X125744530Y-96366139D01*
X126054219Y-96494733D01*
X126389546Y-96495026D01*
X126699459Y-96366972D01*
X126764492Y-96302053D01*
X126900018Y-103501882D01*
X126908627Y-103540632D01*
X126931634Y-103572980D01*
X126965414Y-103593829D01*
X127000000Y-103600000D01*
X154930000Y-103600000D01*
X154930000Y-104809456D01*
X155006120Y-104993227D01*
X155146773Y-105133879D01*
X155330544Y-105210000D01*
X157105000Y-105210000D01*
X157230000Y-105085000D01*
X157230000Y-103600000D01*
X157530000Y-103600000D01*
X157530000Y-105085000D01*
X157655000Y-105210000D01*
X159429456Y-105210000D01*
X159613227Y-105133879D01*
X159753880Y-104993227D01*
X159830000Y-104809456D01*
X159830000Y-103600000D01*
X165750000Y-103600000D01*
X165788906Y-103592121D01*
X165821681Y-103569727D01*
X165843161Y-103536346D01*
X165849993Y-103498824D01*
X165831007Y-101885000D01*
X167830000Y-101885000D01*
X167830000Y-104809456D01*
X167906120Y-104993227D01*
X168046773Y-105133879D01*
X168230544Y-105210000D01*
X170005000Y-105210000D01*
X170130000Y-105085000D01*
X170130000Y-101760000D01*
X170430000Y-101760000D01*
X170430000Y-105085000D01*
X170555000Y-105210000D01*
X172329456Y-105210000D01*
X172513227Y-105133879D01*
X172653880Y-104993227D01*
X172730000Y-104809456D01*
X172730000Y-101885000D01*
X172605000Y-101760000D01*
X170430000Y-101760000D01*
X170130000Y-101760000D01*
X167955000Y-101760000D01*
X167830000Y-101885000D01*
X165831007Y-101885000D01*
X165790131Y-98410544D01*
X167830000Y-98410544D01*
X167830000Y-101335000D01*
X167955000Y-101460000D01*
X170130000Y-101460000D01*
X170130000Y-98135000D01*
X170430000Y-98135000D01*
X170430000Y-101460000D01*
X172605000Y-101460000D01*
X172730000Y-101335000D01*
X172730000Y-98410544D01*
X172653880Y-98226773D01*
X172513227Y-98086121D01*
X172329456Y-98010000D01*
X170555000Y-98010000D01*
X170430000Y-98135000D01*
X170130000Y-98135000D01*
X170005000Y-98010000D01*
X168230544Y-98010000D01*
X168046773Y-98086121D01*
X167906120Y-98226773D01*
X167830000Y-98410544D01*
X165790131Y-98410544D01*
X165731301Y-93410000D01*
X167232000Y-93410000D01*
X167538147Y-93349104D01*
X167797685Y-93175685D01*
X168267805Y-92705566D01*
X168370841Y-92662992D01*
X168608159Y-92426088D01*
X168736753Y-92116399D01*
X168737046Y-91781072D01*
X168608992Y-91471159D01*
X168372088Y-91233841D01*
X168062399Y-91105247D01*
X167727072Y-91104954D01*
X167417159Y-91233008D01*
X167179841Y-91469912D01*
X167136613Y-91574016D01*
X166900630Y-91810000D01*
X165712477Y-91810000D01*
X165602830Y-82490000D01*
X172780000Y-82490000D01*
X172780000Y-107375000D01*
X118950000Y-107375000D01*
X118950000Y-106775000D01*
X118825000Y-106650000D01*
X117700000Y-106650000D01*
X117700000Y-106670000D01*
X117400000Y-106670000D01*
X117400000Y-106650000D01*
X115100000Y-106650000D01*
X115100000Y-106670000D01*
X114800000Y-106670000D01*
X114800000Y-106650000D01*
X112700000Y-106650000D01*
X112700000Y-106670000D01*
X112400000Y-106670000D01*
X112400000Y-106650000D01*
X110100000Y-106650000D01*
X110100000Y-106670000D01*
X109800000Y-106670000D01*
X109800000Y-106650000D01*
X108675000Y-106650000D01*
X108550000Y-106775000D01*
X108550000Y-107375000D01*
X108525000Y-107375000D01*
X108525000Y-105450544D01*
X108550000Y-105450544D01*
X108550000Y-106225000D01*
X108675000Y-106350000D01*
X109800000Y-106350000D01*
X109800000Y-105175000D01*
X109675000Y-105050000D01*
X110225000Y-105050000D01*
X110100000Y-105175000D01*
X110100000Y-106350000D01*
X112400000Y-106350000D01*
X112400000Y-105175000D01*
X112700000Y-105175000D01*
X112700000Y-106350000D01*
X114800000Y-106350000D01*
X114800000Y-105175000D01*
X114675000Y-105050000D01*
X113900544Y-105050000D01*
X113750000Y-105112358D01*
X113599456Y-105050000D01*
X112825000Y-105050000D01*
X112700000Y-105175000D01*
X112400000Y-105175000D01*
X112275000Y-105050000D01*
X111799456Y-105050000D01*
X111983227Y-104973879D01*
X112123880Y-104833227D01*
X112139532Y-104795439D01*
X112150544Y-104800000D01*
X112225000Y-104800000D01*
X112350000Y-104675000D01*
X112350000Y-103775000D01*
X111875000Y-103775000D01*
X111750000Y-103900000D01*
X110800000Y-103900000D01*
X110800000Y-104925000D01*
X110925000Y-105050000D01*
X110375000Y-105050000D01*
X110500000Y-104925000D01*
X110500000Y-103900000D01*
X109225000Y-103900000D01*
X109100000Y-104025000D01*
X109100000Y-104649456D01*
X109176120Y-104833227D01*
X109316773Y-104973879D01*
X109500544Y-105050000D01*
X108950544Y-105050000D01*
X108766773Y-105126121D01*
X108626120Y-105266773D01*
X108550000Y-105450544D01*
X108525000Y-105450544D01*
X108525000Y-102850544D01*
X109100000Y-102850544D01*
X109100000Y-103475000D01*
X109225000Y-103600000D01*
X110500000Y-103600000D01*
X110500000Y-102575000D01*
X110800000Y-102575000D01*
X110800000Y-103600000D01*
X112075000Y-103600000D01*
X112200000Y-103475000D01*
X112350000Y-103475000D01*
X112350000Y-102575000D01*
X112225000Y-102450000D01*
X112150544Y-102450000D01*
X111975000Y-102522713D01*
X111799456Y-102450000D01*
X110925000Y-102450000D01*
X110800000Y-102575000D01*
X110500000Y-102575000D01*
X110375000Y-102450000D01*
X109500544Y-102450000D01*
X109316773Y-102526121D01*
X109176120Y-102666773D01*
X109100000Y-102850544D01*
X108525000Y-102850544D01*
X108525000Y-84952620D01*
X108535008Y-84976841D01*
X108771912Y-85214159D01*
X109081601Y-85342753D01*
X109416928Y-85343046D01*
X109726841Y-85214992D01*
X109816990Y-85125000D01*
X110658828Y-85125000D01*
X110876033Y-85342205D01*
X109990000Y-85342205D01*
X109804711Y-85377069D01*
X109634535Y-85486575D01*
X109520370Y-85653661D01*
X109480205Y-85852000D01*
X109480205Y-88852000D01*
X109515069Y-89037289D01*
X109624575Y-89207465D01*
X109791661Y-89321630D01*
X109865000Y-89336482D01*
X109865000Y-89488080D01*
X109774711Y-89505069D01*
X109604535Y-89614575D01*
X109490370Y-89781661D01*
X109450205Y-89980000D01*
X109450205Y-92980000D01*
X109485069Y-93165289D01*
X109594575Y-93335465D01*
X109761661Y-93449630D01*
X109835000Y-93464482D01*
X109835000Y-94157174D01*
X109583072Y-94156954D01*
X109273159Y-94285008D01*
X109035841Y-94521912D01*
X108907247Y-94831601D01*
X108906954Y-95166928D01*
X109035008Y-95476841D01*
X109271912Y-95714159D01*
X109450205Y-95788193D01*
X109450205Y-98520000D01*
X109485069Y-98705289D01*
X109594575Y-98875465D01*
X109761661Y-98989630D01*
X109835000Y-99004482D01*
X109835000Y-100218000D01*
X109882575Y-100457177D01*
X110018058Y-100659942D01*
X110868056Y-101509939D01*
X110868058Y-101509942D01*
X111070823Y-101645425D01*
X111192048Y-101669539D01*
X111194575Y-101673465D01*
X111361661Y-101787630D01*
X111560000Y-101827795D01*
X112460000Y-101827795D01*
X112645289Y-101792931D01*
X112761761Y-101717983D01*
X112885661Y-101802640D01*
X113084000Y-101842805D01*
X113125000Y-101842805D01*
X113125000Y-102440205D01*
X112900000Y-102440205D01*
X112780220Y-102462743D01*
X112749456Y-102450000D01*
X112675000Y-102450000D01*
X112550000Y-102575000D01*
X112550000Y-102581058D01*
X112544535Y-102584575D01*
X112430370Y-102751661D01*
X112390205Y-102950000D01*
X112390205Y-104300000D01*
X112425069Y-104485289D01*
X112534575Y-104655465D01*
X112550000Y-104666004D01*
X112550000Y-104675000D01*
X112675000Y-104800000D01*
X112749456Y-104800000D01*
X112783006Y-104786103D01*
X112900000Y-104809795D01*
X113300000Y-104809795D01*
X113429590Y-104785411D01*
X113550000Y-104809795D01*
X113950000Y-104809795D01*
X114079590Y-104785411D01*
X114200000Y-104809795D01*
X114600000Y-104809795D01*
X114729590Y-104785411D01*
X114850000Y-104809795D01*
X115250000Y-104809795D01*
X115357997Y-104789474D01*
X115376120Y-104833227D01*
X115516773Y-104973879D01*
X115700544Y-105050000D01*
X115225000Y-105050000D01*
X115100000Y-105175000D01*
X115100000Y-106350000D01*
X117400000Y-106350000D01*
X117400000Y-105175000D01*
X117275000Y-105050000D01*
X117825000Y-105050000D01*
X117700000Y-105175000D01*
X117700000Y-106350000D01*
X118825000Y-106350000D01*
X118950000Y-106225000D01*
X118950000Y-105450544D01*
X118873880Y-105266773D01*
X118733227Y-105126121D01*
X118549456Y-105050000D01*
X117999456Y-105050000D01*
X118183227Y-104973879D01*
X118323880Y-104833227D01*
X118392762Y-104666928D01*
X118906954Y-104666928D01*
X119035008Y-104976841D01*
X119271912Y-105214159D01*
X119581601Y-105342753D01*
X119673595Y-105342833D01*
X121040381Y-106709620D01*
X121251256Y-106850522D01*
X121447426Y-106889542D01*
X121521912Y-106964159D01*
X121831601Y-107092753D01*
X122166928Y-107093046D01*
X122476841Y-106964992D01*
X122714159Y-106728088D01*
X122842753Y-106418399D01*
X122843046Y-106083072D01*
X122714992Y-105773159D01*
X122649008Y-105707059D01*
X162329740Y-105707059D01*
X162557620Y-106258572D01*
X162979209Y-106680897D01*
X163530323Y-106909739D01*
X164127059Y-106910260D01*
X164678572Y-106682380D01*
X165100897Y-106260791D01*
X165329739Y-105709677D01*
X165330260Y-105112941D01*
X165102380Y-104561428D01*
X164680791Y-104139103D01*
X164129677Y-103910261D01*
X163532941Y-103909740D01*
X162981428Y-104137620D01*
X162559103Y-104559209D01*
X162330261Y-105110323D01*
X162329740Y-105707059D01*
X122649008Y-105707059D01*
X122478088Y-105535841D01*
X122168399Y-105407247D01*
X121833072Y-105406954D01*
X121651300Y-105482061D01*
X120592967Y-104423729D01*
X120593046Y-104333072D01*
X120464992Y-104023159D01*
X120228088Y-103785841D01*
X119918399Y-103657247D01*
X119583072Y-103656954D01*
X119273159Y-103785008D01*
X119035841Y-104021912D01*
X118907247Y-104331601D01*
X118906954Y-104666928D01*
X118392762Y-104666928D01*
X118400000Y-104649456D01*
X118400000Y-104025000D01*
X118275000Y-103900000D01*
X117000000Y-103900000D01*
X117000000Y-104925000D01*
X117125000Y-105050000D01*
X116575000Y-105050000D01*
X116700000Y-104925000D01*
X116700000Y-103900000D01*
X116680000Y-103900000D01*
X116680000Y-103600000D01*
X116700000Y-103600000D01*
X116700000Y-102575000D01*
X117000000Y-102575000D01*
X117000000Y-103600000D01*
X118275000Y-103600000D01*
X118400000Y-103475000D01*
X118400000Y-102850544D01*
X118323880Y-102666773D01*
X118183227Y-102526121D01*
X117999456Y-102450000D01*
X117125000Y-102450000D01*
X117000000Y-102575000D01*
X116700000Y-102575000D01*
X116575000Y-102450000D01*
X115975822Y-102450000D01*
X116092753Y-102168399D01*
X116093046Y-101833072D01*
X115971863Y-101539789D01*
X115977630Y-101531349D01*
X116017795Y-101333010D01*
X116017795Y-100833010D01*
X115982931Y-100647721D01*
X115873425Y-100477545D01*
X115706339Y-100363380D01*
X115558145Y-100333370D01*
X115693289Y-100307941D01*
X115848585Y-100208010D01*
X116009030Y-100208010D01*
X116019970Y-100205834D01*
X116048651Y-100217743D01*
X116383978Y-100218036D01*
X116693891Y-100089982D01*
X116931209Y-99853078D01*
X117059803Y-99543389D01*
X117060096Y-99208062D01*
X116932042Y-98898149D01*
X116695138Y-98660831D01*
X116540000Y-98596412D01*
X116540000Y-98416928D01*
X119406954Y-98416928D01*
X119535008Y-98726841D01*
X119771912Y-98964159D01*
X119862545Y-99001793D01*
X119782159Y-99035008D01*
X119544841Y-99271912D01*
X119416247Y-99581601D01*
X119415954Y-99916928D01*
X119544008Y-100226841D01*
X119780912Y-100464159D01*
X120090601Y-100592753D01*
X120425928Y-100593046D01*
X120735841Y-100464992D01*
X120973159Y-100228088D01*
X121063126Y-100011423D01*
X121241941Y-99891943D01*
X122095972Y-99037912D01*
X122271912Y-99214159D01*
X122581601Y-99342753D01*
X122708981Y-99342864D01*
X122992472Y-99626356D01*
X122907247Y-99831601D01*
X122906954Y-100166928D01*
X123035008Y-100476841D01*
X123271912Y-100714159D01*
X123581601Y-100842753D01*
X123916928Y-100843046D01*
X124226841Y-100714992D01*
X124464159Y-100478088D01*
X124592753Y-100168399D01*
X124593046Y-99833072D01*
X124464992Y-99523159D01*
X124358360Y-99416340D01*
X124327425Y-99260823D01*
X124279402Y-99188951D01*
X124191942Y-99058058D01*
X124191939Y-99058056D01*
X123592936Y-98459052D01*
X123593046Y-98333072D01*
X123464992Y-98023159D01*
X123288013Y-97845870D01*
X123290947Y-97842936D01*
X123416928Y-97843046D01*
X123726841Y-97714992D01*
X123964159Y-97478088D01*
X124092753Y-97168399D01*
X124093046Y-96833072D01*
X123964992Y-96523159D01*
X123728088Y-96285841D01*
X123418399Y-96157247D01*
X123083072Y-96156954D01*
X122773159Y-96285008D01*
X122535841Y-96521912D01*
X122514790Y-96572608D01*
X122478088Y-96535841D01*
X122168399Y-96407247D01*
X121833072Y-96406954D01*
X121523159Y-96535008D01*
X121433010Y-96625000D01*
X121250005Y-96625000D01*
X121250000Y-96624999D01*
X121031817Y-96668399D01*
X121010823Y-96672575D01*
X120808058Y-96808058D01*
X120808056Y-96808061D01*
X120209052Y-97407064D01*
X120083072Y-97406954D01*
X119773159Y-97535008D01*
X119535841Y-97771912D01*
X119407247Y-98081601D01*
X119406954Y-98416928D01*
X116540000Y-98416928D01*
X116540000Y-97295000D01*
X116415000Y-97170000D01*
X115690000Y-97170000D01*
X115690000Y-97190000D01*
X115390000Y-97190000D01*
X115390000Y-97170000D01*
X114665000Y-97170000D01*
X114540000Y-97295000D01*
X114540000Y-97434290D01*
X114523286Y-97427350D01*
X114187959Y-97427057D01*
X114009795Y-97500673D01*
X114009795Y-95520000D01*
X113991082Y-95420544D01*
X114540000Y-95420544D01*
X114540000Y-96745000D01*
X114665000Y-96870000D01*
X115390000Y-96870000D01*
X115390000Y-95145000D01*
X115690000Y-95145000D01*
X115690000Y-96870000D01*
X116415000Y-96870000D01*
X116540000Y-96745000D01*
X116540000Y-95420544D01*
X116463880Y-95236773D01*
X116323227Y-95096121D01*
X116139456Y-95020000D01*
X115815000Y-95020000D01*
X115690000Y-95145000D01*
X115390000Y-95145000D01*
X115265000Y-95020000D01*
X114940544Y-95020000D01*
X114756773Y-95096121D01*
X114616120Y-95236773D01*
X114540000Y-95420544D01*
X113991082Y-95420544D01*
X113974931Y-95334711D01*
X113865425Y-95164535D01*
X113698339Y-95050370D01*
X113573609Y-95025111D01*
X113441942Y-94828058D01*
X113122138Y-94508254D01*
X113226841Y-94464992D01*
X113249832Y-94442041D01*
X113271912Y-94464159D01*
X113581601Y-94592753D01*
X113916928Y-94593046D01*
X114226841Y-94464992D01*
X114464159Y-94228088D01*
X114592753Y-93918399D01*
X114593046Y-93583072D01*
X114464992Y-93273159D01*
X114375000Y-93183010D01*
X114375000Y-92230000D01*
X114362013Y-92164711D01*
X114327425Y-91990822D01*
X114191942Y-91788058D01*
X114158884Y-91755000D01*
X114540000Y-91755000D01*
X114540000Y-93079456D01*
X114616120Y-93263227D01*
X114756773Y-93403879D01*
X114940544Y-93480000D01*
X115265000Y-93480000D01*
X115390000Y-93355000D01*
X115390000Y-91630000D01*
X114665000Y-91630000D01*
X114540000Y-91755000D01*
X114158884Y-91755000D01*
X114009795Y-91605911D01*
X114009795Y-89980000D01*
X113974931Y-89794711D01*
X113865425Y-89624535D01*
X113698339Y-89510370D01*
X113500000Y-89470205D01*
X112799999Y-89470205D01*
X112799999Y-87715885D01*
X113469547Y-87046337D01*
X113605030Y-86843572D01*
X113652605Y-86604395D01*
X113652605Y-86338726D01*
X113715289Y-86326931D01*
X113885465Y-86217425D01*
X113999630Y-86050339D01*
X114039795Y-85852000D01*
X114039795Y-82852000D01*
X114004931Y-82666711D01*
X113895425Y-82496535D01*
X113885861Y-82490000D01*
X116636163Y-82490000D01*
X114969099Y-84157064D01*
D39*
G36*
X152991239Y-82987709D02*
X152240345Y-83737293D01*
X151833464Y-84717173D01*
X151832538Y-85778172D01*
X152182982Y-86626312D01*
X150691323Y-86626312D01*
X151002536Y-85876827D01*
X151003462Y-84815828D01*
X150598291Y-83835239D01*
X149848707Y-83084345D01*
X148868827Y-82677464D01*
X147807828Y-82676538D01*
X146827239Y-83081709D01*
X146076345Y-83831293D01*
X145669464Y-84811173D01*
X145668538Y-85872172D01*
X146042648Y-86777587D01*
X145696788Y-86920493D01*
X145625116Y-86992040D01*
X145554659Y-86921460D01*
X145195370Y-86772270D01*
X144806337Y-86771931D01*
X144446788Y-86920493D01*
X144171460Y-87195341D01*
X144022270Y-87554630D01*
X144021931Y-87943663D01*
X144099654Y-88131768D01*
X144069000Y-88125560D01*
X143459000Y-88125560D01*
X143223683Y-88169838D01*
X143129622Y-88230364D01*
X143050890Y-88176569D01*
X142799000Y-88125560D01*
X142189000Y-88125560D01*
X141953683Y-88169838D01*
X141859622Y-88230364D01*
X141780890Y-88176569D01*
X141529000Y-88125560D01*
X140919000Y-88125560D01*
X140683683Y-88169838D01*
X140617535Y-88212403D01*
X138655449Y-86250317D01*
X138810536Y-85876827D01*
X138810540Y-85872172D01*
X139082538Y-85872172D01*
X139487709Y-86852761D01*
X140237293Y-87603655D01*
X141217173Y-88010536D01*
X142278172Y-88011462D01*
X143258761Y-87606291D01*
X144009655Y-86856707D01*
X144416536Y-85876827D01*
X144417462Y-84815828D01*
X144012291Y-83835239D01*
X143262707Y-83084345D01*
X142282827Y-82677464D01*
X141221828Y-82676538D01*
X140241239Y-83081709D01*
X139490345Y-83831293D01*
X139083464Y-84811173D01*
X139082538Y-85872172D01*
X138810540Y-85872172D01*
X138811462Y-84815828D01*
X138406291Y-83835239D01*
X137656707Y-83084345D01*
X136676827Y-82677464D01*
X135615828Y-82676538D01*
X134635239Y-83081709D01*
X133884345Y-83831293D01*
X133477464Y-84811173D01*
X133476538Y-85872172D01*
X133881709Y-86852761D01*
X134631293Y-87603655D01*
X135611173Y-88010536D01*
X136672172Y-88011462D01*
X137050152Y-87855284D01*
X139215000Y-90020132D01*
X139215000Y-91816378D01*
X138928396Y-91560203D01*
X138583329Y-91417284D01*
X138377000Y-91540626D01*
X138377000Y-92583000D01*
X138397000Y-92583000D01*
X138397000Y-92837000D01*
X138377000Y-92837000D01*
X138377000Y-92857000D01*
X138123000Y-92857000D01*
X138123000Y-92837000D01*
X137079794Y-92837000D01*
X136957273Y-93043331D01*
X137183236Y-93512663D01*
X137571604Y-93859797D01*
X137844806Y-93972951D01*
X137494771Y-94117582D01*
X137118902Y-94492796D01*
X136915232Y-94983287D01*
X136914769Y-95514383D01*
X137117582Y-96005229D01*
X137490000Y-96378297D01*
X137490000Y-97876920D01*
X137421460Y-97945341D01*
X137272270Y-98304630D01*
X137271931Y-98693663D01*
X137420493Y-99053212D01*
X137695341Y-99328540D01*
X138054630Y-99477730D01*
X138443663Y-99478069D01*
X138803212Y-99329507D01*
X139078540Y-99054659D01*
X139227730Y-98695370D01*
X139228069Y-98306337D01*
X139079507Y-97946788D01*
X139010000Y-97877160D01*
X139010000Y-96377655D01*
X139381098Y-96007204D01*
X139584768Y-95516713D01*
X139585231Y-94985617D01*
X139382418Y-94494771D01*
X139007204Y-94118902D01*
X138655455Y-93972843D01*
X138928396Y-93859797D01*
X139316764Y-93512663D01*
X139337202Y-93470212D01*
X139445341Y-93578540D01*
X139804630Y-93727730D01*
X140193663Y-93728069D01*
X140526560Y-93590519D01*
X140526560Y-93860944D01*
X140467559Y-93898910D01*
X140322569Y-94111110D01*
X140271560Y-94363000D01*
X140271560Y-95383000D01*
X140315838Y-95618317D01*
X140454910Y-95834441D01*
X140667110Y-95979431D01*
X140919000Y-96030440D01*
X141529000Y-96030440D01*
X141764317Y-95986162D01*
X141858378Y-95925636D01*
X141937110Y-95979431D01*
X142189000Y-96030440D01*
X142799000Y-96030440D01*
X143034317Y-95986162D01*
X143128378Y-95925636D01*
X143207110Y-95979431D01*
X143459000Y-96030440D01*
X144069000Y-96030440D01*
X144304317Y-95986162D01*
X144398378Y-95925636D01*
X144414797Y-95936854D01*
X143752838Y-96598813D01*
X143588091Y-96845375D01*
X143530239Y-97136214D01*
X143530239Y-99593352D01*
X143461699Y-99661773D01*
X143312509Y-100021062D01*
X143312170Y-100410095D01*
X143460732Y-100769644D01*
X143735580Y-101044972D01*
X144094869Y-101194162D01*
X144483902Y-101194501D01*
X144843451Y-101045939D01*
X145118779Y-100771091D01*
X145267969Y-100411802D01*
X145268308Y-100022769D01*
X145254792Y-99990058D01*
X145487188Y-100222454D01*
X145487104Y-100319300D01*
X145635666Y-100678849D01*
X145910514Y-100954177D01*
X146269803Y-101103367D01*
X146658836Y-101103706D01*
X147018385Y-100955144D01*
X147293713Y-100680296D01*
X147442903Y-100321007D01*
X147443242Y-99931974D01*
X147294680Y-99572425D01*
X147038795Y-99316093D01*
X147177321Y-98982487D01*
X147177407Y-98884103D01*
X148801510Y-97260000D01*
X150626920Y-97260000D01*
X150695341Y-97328540D01*
X151054630Y-97477730D01*
X151443663Y-97478069D01*
X151803212Y-97329507D01*
X152078540Y-97054659D01*
X152227730Y-96695370D01*
X152228069Y-96306337D01*
X152079507Y-95946788D01*
X151924451Y-95791461D01*
X152031431Y-95634890D01*
X152082440Y-95383000D01*
X152082440Y-94363000D01*
X152038162Y-94127683D01*
X151899090Y-93911559D01*
X151827440Y-93862603D01*
X151827440Y-90863000D01*
X151783162Y-90627683D01*
X151758528Y-90589400D01*
X151886441Y-90507090D01*
X152031431Y-90294890D01*
X152082440Y-90043000D01*
X152082440Y-89881115D01*
X152336330Y-89627668D01*
X152390624Y-89496914D01*
X152796560Y-89902850D01*
X152796560Y-91070000D01*
X152840838Y-91305317D01*
X152979910Y-91521441D01*
X153192110Y-91666431D01*
X153444000Y-91717440D01*
X156944000Y-91717440D01*
X157080988Y-91691664D01*
X157080988Y-93730301D01*
X156944000Y-93702560D01*
X153444000Y-93702560D01*
X153208683Y-93746838D01*
X152992559Y-93885910D01*
X152847569Y-94098110D01*
X152796560Y-94350000D01*
X152796560Y-95950000D01*
X152840838Y-96185317D01*
X152979910Y-96401441D01*
X153192110Y-96546431D01*
X153444000Y-96597440D01*
X156944000Y-96597440D01*
X157179317Y-96553162D01*
X157395441Y-96414090D01*
X157483644Y-96285000D01*
X157597838Y-96285000D01*
X158032184Y-96198603D01*
X158400404Y-95952566D01*
X159018554Y-95334416D01*
X159057478Y-95276162D01*
X159264591Y-94966196D01*
X159350988Y-94531850D01*
X159350988Y-88965988D01*
X159337129Y-88896312D01*
X159264592Y-88531643D01*
X159018554Y-88163422D01*
X157011449Y-86156317D01*
X157166536Y-85782827D01*
X157167364Y-84833388D01*
X158069984Y-84833388D01*
X158077889Y-85894357D01*
X158468696Y-86837846D01*
X158842743Y-87062516D01*
X160561259Y-85344000D01*
X158842743Y-83625484D01*
X158468696Y-83850154D01*
X158069984Y-84833388D01*
X157167364Y-84833388D01*
X157167462Y-84721828D01*
X156762291Y-83741239D01*
X156467447Y-83445879D01*
X159022348Y-83445879D01*
X160740864Y-85164395D01*
X162459380Y-83445879D01*
X162234710Y-83071832D01*
X161251476Y-82673120D01*
X160190507Y-82681025D01*
X159247018Y-83071832D01*
X159022348Y-83445879D01*
X156467447Y-83445879D01*
X156012707Y-82990345D01*
X155137674Y-82627000D01*
X162846029Y-82627000D01*
X162772270Y-82804630D01*
X162771931Y-83193663D01*
X162915000Y-83539918D01*
X162915000Y-83791271D01*
X162638985Y-83625484D01*
X160920469Y-85344000D01*
X160934612Y-85358143D01*
X160755007Y-85537748D01*
X160740864Y-85523605D01*
X159022348Y-87242121D01*
X159247018Y-87616168D01*
X160230252Y-88014880D01*
X161291221Y-88006975D01*
X161594163Y-87881492D01*
X161522270Y-88054630D01*
X161521931Y-88443663D01*
X161670493Y-88803212D01*
X161945341Y-89078540D01*
X162304630Y-89227730D01*
X162693663Y-89228069D01*
X163053212Y-89079507D01*
X163328540Y-88804659D01*
X163477730Y-88445370D01*
X163477785Y-88382373D01*
X164623000Y-87237158D01*
X164623000Y-89762560D01*
X161480000Y-89762560D01*
X161244683Y-89806838D01*
X161028559Y-89945910D01*
X160883569Y-90158110D01*
X160832560Y-90410000D01*
X160832560Y-94810000D01*
X160876838Y-95045317D01*
X161015910Y-95261441D01*
X161228110Y-95406431D01*
X161480000Y-95457440D01*
X164623000Y-95457440D01*
X164623000Y-102623000D01*
X159977440Y-102623000D01*
X159977440Y-98510000D01*
X159933162Y-98274683D01*
X159794090Y-98058559D01*
X159581890Y-97913569D01*
X159330000Y-97862560D01*
X155430000Y-97862560D01*
X155194683Y-97906838D01*
X154978559Y-98045910D01*
X154833569Y-98258110D01*
X154782560Y-98510000D01*
X154782560Y-102623000D01*
X135010000Y-102623000D01*
X135010000Y-101373080D01*
X135078540Y-101304659D01*
X135227730Y-100945370D01*
X135228069Y-100556337D01*
X135079507Y-100196788D01*
X134804659Y-99921460D01*
X134445370Y-99772270D01*
X134056337Y-99771931D01*
X133696788Y-99920493D01*
X133421460Y-100195341D01*
X133272270Y-100554630D01*
X133271931Y-100943663D01*
X133420493Y-101303212D01*
X133490000Y-101372840D01*
X133490000Y-102623000D01*
X127627000Y-102623000D01*
X127627000Y-92376669D01*
X136957273Y-92376669D01*
X137079794Y-92583000D01*
X138123000Y-92583000D01*
X138123000Y-91540626D01*
X137916671Y-91417284D01*
X137571604Y-91560203D01*
X137183236Y-91907337D01*
X136957273Y-92376669D01*
X127627000Y-92376669D01*
X127627000Y-85936131D01*
X127695441Y-85892090D01*
X127840431Y-85679890D01*
X127888915Y-85440470D01*
X127888538Y-85872172D01*
X128293709Y-86852761D01*
X129043293Y-87603655D01*
X129973717Y-87990000D01*
X129873080Y-87990000D01*
X129804659Y-87921460D01*
X129445370Y-87772270D01*
X129056337Y-87771931D01*
X128696788Y-87920493D01*
X128421460Y-88195341D01*
X128272270Y-88554630D01*
X128271931Y-88943663D01*
X128420493Y-89303212D01*
X128695341Y-89578540D01*
X129054630Y-89727730D01*
X129443663Y-89728069D01*
X129803212Y-89579507D01*
X129872840Y-89510000D01*
X131126920Y-89510000D01*
X131195341Y-89578540D01*
X131554630Y-89727730D01*
X131943663Y-89728069D01*
X132303212Y-89579507D01*
X132578540Y-89304659D01*
X132727730Y-88945370D01*
X132728069Y-88556337D01*
X132579507Y-88196788D01*
X132304659Y-87921460D01*
X131945370Y-87772270D01*
X131663655Y-87772025D01*
X132064761Y-87606291D01*
X132815655Y-86856707D01*
X133222536Y-85876827D01*
X133223462Y-84815828D01*
X132818291Y-83835239D01*
X132068707Y-83084345D01*
X131088827Y-82677464D01*
X130027828Y-82676538D01*
X129047239Y-83081709D01*
X128296345Y-83831293D01*
X127891440Y-84806414D01*
X127891440Y-83228000D01*
X127847162Y-82992683D01*
X127708090Y-82776559D01*
X127627000Y-82721153D01*
X127627000Y-82627000D01*
X153864222Y-82627000D01*
X152991239Y-82987709D01*
X152991239Y-82987709D01*
G37*
X152991239Y-82987709D02*
X152240345Y-83737293D01*
X151833464Y-84717173D01*
X151832538Y-85778172D01*
X152182982Y-86626312D01*
X150691323Y-86626312D01*
X151002536Y-85876827D01*
X151003462Y-84815828D01*
X150598291Y-83835239D01*
X149848707Y-83084345D01*
X148868827Y-82677464D01*
X147807828Y-82676538D01*
X146827239Y-83081709D01*
X146076345Y-83831293D01*
X145669464Y-84811173D01*
X145668538Y-85872172D01*
X146042648Y-86777587D01*
X145696788Y-86920493D01*
X145625116Y-86992040D01*
X145554659Y-86921460D01*
X145195370Y-86772270D01*
X144806337Y-86771931D01*
X144446788Y-86920493D01*
X144171460Y-87195341D01*
X144022270Y-87554630D01*
X144021931Y-87943663D01*
X144099654Y-88131768D01*
X144069000Y-88125560D01*
X143459000Y-88125560D01*
X143223683Y-88169838D01*
X143129622Y-88230364D01*
X143050890Y-88176569D01*
X142799000Y-88125560D01*
X142189000Y-88125560D01*
X141953683Y-88169838D01*
X141859622Y-88230364D01*
X141780890Y-88176569D01*
X141529000Y-88125560D01*
X140919000Y-88125560D01*
X140683683Y-88169838D01*
X140617535Y-88212403D01*
X138655449Y-86250317D01*
X138810536Y-85876827D01*
X138810540Y-85872172D01*
X139082538Y-85872172D01*
X139487709Y-86852761D01*
X140237293Y-87603655D01*
X141217173Y-88010536D01*
X142278172Y-88011462D01*
X143258761Y-87606291D01*
X144009655Y-86856707D01*
X144416536Y-85876827D01*
X144417462Y-84815828D01*
X144012291Y-83835239D01*
X143262707Y-83084345D01*
X142282827Y-82677464D01*
X141221828Y-82676538D01*
X140241239Y-83081709D01*
X139490345Y-83831293D01*
X139083464Y-84811173D01*
X139082538Y-85872172D01*
X138810540Y-85872172D01*
X138811462Y-84815828D01*
X138406291Y-83835239D01*
X137656707Y-83084345D01*
X136676827Y-82677464D01*
X135615828Y-82676538D01*
X134635239Y-83081709D01*
X133884345Y-83831293D01*
X133477464Y-84811173D01*
X133476538Y-85872172D01*
X133881709Y-86852761D01*
X134631293Y-87603655D01*
X135611173Y-88010536D01*
X136672172Y-88011462D01*
X137050152Y-87855284D01*
X139215000Y-90020132D01*
X139215000Y-91816378D01*
X138928396Y-91560203D01*
X138583329Y-91417284D01*
X138377000Y-91540626D01*
X138377000Y-92583000D01*
X138397000Y-92583000D01*
X138397000Y-92837000D01*
X138377000Y-92837000D01*
X138377000Y-92857000D01*
X138123000Y-92857000D01*
X138123000Y-92837000D01*
X137079794Y-92837000D01*
X136957273Y-93043331D01*
X137183236Y-93512663D01*
X137571604Y-93859797D01*
X137844806Y-93972951D01*
X137494771Y-94117582D01*
X137118902Y-94492796D01*
X136915232Y-94983287D01*
X136914769Y-95514383D01*
X137117582Y-96005229D01*
X137490000Y-96378297D01*
X137490000Y-97876920D01*
X137421460Y-97945341D01*
X137272270Y-98304630D01*
X137271931Y-98693663D01*
X137420493Y-99053212D01*
X137695341Y-99328540D01*
X138054630Y-99477730D01*
X138443663Y-99478069D01*
X138803212Y-99329507D01*
X139078540Y-99054659D01*
X139227730Y-98695370D01*
X139228069Y-98306337D01*
X139079507Y-97946788D01*
X139010000Y-97877160D01*
X139010000Y-96377655D01*
X139381098Y-96007204D01*
X139584768Y-95516713D01*
X139585231Y-94985617D01*
X139382418Y-94494771D01*
X139007204Y-94118902D01*
X138655455Y-93972843D01*
X138928396Y-93859797D01*
X139316764Y-93512663D01*
X139337202Y-93470212D01*
X139445341Y-93578540D01*
X139804630Y-93727730D01*
X140193663Y-93728069D01*
X140526560Y-93590519D01*
X140526560Y-93860944D01*
X140467559Y-93898910D01*
X140322569Y-94111110D01*
X140271560Y-94363000D01*
X140271560Y-95383000D01*
X140315838Y-95618317D01*
X140454910Y-95834441D01*
X140667110Y-95979431D01*
X140919000Y-96030440D01*
X141529000Y-96030440D01*
X141764317Y-95986162D01*
X141858378Y-95925636D01*
X141937110Y-95979431D01*
X142189000Y-96030440D01*
X142799000Y-96030440D01*
X143034317Y-95986162D01*
X143128378Y-95925636D01*
X143207110Y-95979431D01*
X143459000Y-96030440D01*
X144069000Y-96030440D01*
X144304317Y-95986162D01*
X144398378Y-95925636D01*
X144414797Y-95936854D01*
X143752838Y-96598813D01*
X143588091Y-96845375D01*
X143530239Y-97136214D01*
X143530239Y-99593352D01*
X143461699Y-99661773D01*
X143312509Y-100021062D01*
X143312170Y-100410095D01*
X143460732Y-100769644D01*
X143735580Y-101044972D01*
X144094869Y-101194162D01*
X144483902Y-101194501D01*
X144843451Y-101045939D01*
X145118779Y-100771091D01*
X145267969Y-100411802D01*
X145268308Y-100022769D01*
X145254792Y-99990058D01*
X145487188Y-100222454D01*
X145487104Y-100319300D01*
X145635666Y-100678849D01*
X145910514Y-100954177D01*
X146269803Y-101103367D01*
X146658836Y-101103706D01*
X147018385Y-100955144D01*
X147293713Y-100680296D01*
X147442903Y-100321007D01*
X147443242Y-99931974D01*
X147294680Y-99572425D01*
X147038795Y-99316093D01*
X147177321Y-98982487D01*
X147177407Y-98884103D01*
X148801510Y-97260000D01*
X150626920Y-97260000D01*
X150695341Y-97328540D01*
X151054630Y-97477730D01*
X151443663Y-97478069D01*
X151803212Y-97329507D01*
X152078540Y-97054659D01*
X152227730Y-96695370D01*
X152228069Y-96306337D01*
X152079507Y-95946788D01*
X151924451Y-95791461D01*
X152031431Y-95634890D01*
X152082440Y-95383000D01*
X152082440Y-94363000D01*
X152038162Y-94127683D01*
X151899090Y-93911559D01*
X151827440Y-93862603D01*
X151827440Y-90863000D01*
X151783162Y-90627683D01*
X151758528Y-90589400D01*
X151886441Y-90507090D01*
X152031431Y-90294890D01*
X152082440Y-90043000D01*
X152082440Y-89881115D01*
X152336330Y-89627668D01*
X152390624Y-89496914D01*
X152796560Y-89902850D01*
X152796560Y-91070000D01*
X152840838Y-91305317D01*
X152979910Y-91521441D01*
X153192110Y-91666431D01*
X153444000Y-91717440D01*
X156944000Y-91717440D01*
X157080988Y-91691664D01*
X157080988Y-93730301D01*
X156944000Y-93702560D01*
X153444000Y-93702560D01*
X153208683Y-93746838D01*
X152992559Y-93885910D01*
X152847569Y-94098110D01*
X152796560Y-94350000D01*
X152796560Y-95950000D01*
X152840838Y-96185317D01*
X152979910Y-96401441D01*
X153192110Y-96546431D01*
X153444000Y-96597440D01*
X156944000Y-96597440D01*
X157179317Y-96553162D01*
X157395441Y-96414090D01*
X157483644Y-96285000D01*
X157597838Y-96285000D01*
X158032184Y-96198603D01*
X158400404Y-95952566D01*
X159018554Y-95334416D01*
X159057478Y-95276162D01*
X159264591Y-94966196D01*
X159350988Y-94531850D01*
X159350988Y-88965988D01*
X159337129Y-88896312D01*
X159264592Y-88531643D01*
X159018554Y-88163422D01*
X157011449Y-86156317D01*
X157166536Y-85782827D01*
X157167364Y-84833388D01*
X158069984Y-84833388D01*
X158077889Y-85894357D01*
X158468696Y-86837846D01*
X158842743Y-87062516D01*
X160561259Y-85344000D01*
X158842743Y-83625484D01*
X158468696Y-83850154D01*
X158069984Y-84833388D01*
X157167364Y-84833388D01*
X157167462Y-84721828D01*
X156762291Y-83741239D01*
X156467447Y-83445879D01*
X159022348Y-83445879D01*
X160740864Y-85164395D01*
X162459380Y-83445879D01*
X162234710Y-83071832D01*
X161251476Y-82673120D01*
X160190507Y-82681025D01*
X159247018Y-83071832D01*
X159022348Y-83445879D01*
X156467447Y-83445879D01*
X156012707Y-82990345D01*
X155137674Y-82627000D01*
X162846029Y-82627000D01*
X162772270Y-82804630D01*
X162771931Y-83193663D01*
X162915000Y-83539918D01*
X162915000Y-83791271D01*
X162638985Y-83625484D01*
X160920469Y-85344000D01*
X160934612Y-85358143D01*
X160755007Y-85537748D01*
X160740864Y-85523605D01*
X159022348Y-87242121D01*
X159247018Y-87616168D01*
X160230252Y-88014880D01*
X161291221Y-88006975D01*
X161594163Y-87881492D01*
X161522270Y-88054630D01*
X161521931Y-88443663D01*
X161670493Y-88803212D01*
X161945341Y-89078540D01*
X162304630Y-89227730D01*
X162693663Y-89228069D01*
X163053212Y-89079507D01*
X163328540Y-88804659D01*
X163477730Y-88445370D01*
X163477785Y-88382373D01*
X164623000Y-87237158D01*
X164623000Y-89762560D01*
X161480000Y-89762560D01*
X161244683Y-89806838D01*
X161028559Y-89945910D01*
X160883569Y-90158110D01*
X160832560Y-90410000D01*
X160832560Y-94810000D01*
X160876838Y-95045317D01*
X161015910Y-95261441D01*
X161228110Y-95406431D01*
X161480000Y-95457440D01*
X164623000Y-95457440D01*
X164623000Y-102623000D01*
X159977440Y-102623000D01*
X159977440Y-98510000D01*
X159933162Y-98274683D01*
X159794090Y-98058559D01*
X159581890Y-97913569D01*
X159330000Y-97862560D01*
X155430000Y-97862560D01*
X155194683Y-97906838D01*
X154978559Y-98045910D01*
X154833569Y-98258110D01*
X154782560Y-98510000D01*
X154782560Y-102623000D01*
X135010000Y-102623000D01*
X135010000Y-101373080D01*
X135078540Y-101304659D01*
X135227730Y-100945370D01*
X135228069Y-100556337D01*
X135079507Y-100196788D01*
X134804659Y-99921460D01*
X134445370Y-99772270D01*
X134056337Y-99771931D01*
X133696788Y-99920493D01*
X133421460Y-100195341D01*
X133272270Y-100554630D01*
X133271931Y-100943663D01*
X133420493Y-101303212D01*
X133490000Y-101372840D01*
X133490000Y-102623000D01*
X127627000Y-102623000D01*
X127627000Y-92376669D01*
X136957273Y-92376669D01*
X137079794Y-92583000D01*
X138123000Y-92583000D01*
X138123000Y-91540626D01*
X137916671Y-91417284D01*
X137571604Y-91560203D01*
X137183236Y-91907337D01*
X136957273Y-92376669D01*
X127627000Y-92376669D01*
X127627000Y-85936131D01*
X127695441Y-85892090D01*
X127840431Y-85679890D01*
X127888915Y-85440470D01*
X127888538Y-85872172D01*
X128293709Y-86852761D01*
X129043293Y-87603655D01*
X129973717Y-87990000D01*
X129873080Y-87990000D01*
X129804659Y-87921460D01*
X129445370Y-87772270D01*
X129056337Y-87771931D01*
X128696788Y-87920493D01*
X128421460Y-88195341D01*
X128272270Y-88554630D01*
X128271931Y-88943663D01*
X128420493Y-89303212D01*
X128695341Y-89578540D01*
X129054630Y-89727730D01*
X129443663Y-89728069D01*
X129803212Y-89579507D01*
X129872840Y-89510000D01*
X131126920Y-89510000D01*
X131195341Y-89578540D01*
X131554630Y-89727730D01*
X131943663Y-89728069D01*
X132303212Y-89579507D01*
X132578540Y-89304659D01*
X132727730Y-88945370D01*
X132728069Y-88556337D01*
X132579507Y-88196788D01*
X132304659Y-87921460D01*
X131945370Y-87772270D01*
X131663655Y-87772025D01*
X132064761Y-87606291D01*
X132815655Y-86856707D01*
X133222536Y-85876827D01*
X133223462Y-84815828D01*
X132818291Y-83835239D01*
X132068707Y-83084345D01*
X131088827Y-82677464D01*
X130027828Y-82676538D01*
X129047239Y-83081709D01*
X128296345Y-83831293D01*
X127891440Y-84806414D01*
X127891440Y-83228000D01*
X127847162Y-82992683D01*
X127708090Y-82776559D01*
X127627000Y-82721153D01*
X127627000Y-82627000D01*
X153864222Y-82627000D01*
X152991239Y-82987709D01*
M02*
