M48
;DRILL file {KiCad 4.0.6-e0-6349~53~ubuntu16.04.1} date Sun Jul  9 20:30:44 2017
;FORMAT={-:-/ absolute / inch / decimal}
FMAT,2
INCH,TZ
T1C0.013
T2C0.028
T3C0.086
T4C0.079
%
G90
G05
M72
T1
X4.2913Y-3.7992
X4.3012Y-3.3268
X4.3012Y-4.0256
X4.311Y-3.5138
X4.3209Y-3.7402
X4.439Y-3.6909
X4.4783Y-3.6909
X4.5022Y-3.8689
X4.5056Y-3.7228
X4.528Y-3.3465
X4.5374Y-4.0157
X4.5755Y-3.9124
X4.5768Y-3.7008
X4.5943Y-3.5141
X4.5973Y-3.3262
X4.6949Y-3.4252
X4.6949Y-3.622
X4.7146Y-4.1142
X4.7343Y-3.8681
X4.7343Y-3.9961
X4.7346Y-3.9272
X4.7635Y-3.7252
X4.7736Y-3.5138
X4.8031Y-3.8287
X4.8031Y-4.1831
X4.8327Y-3.878
X4.8524Y-3.8189
X4.8524Y-4.0945
X4.8622Y-3.3465
X4.872Y-3.937
X4.9213Y-3.9862
X4.9213Y-4.1831
X4.9694Y-3.7658
X4.9803Y-3.4449
X5.0591Y-3.8976
X5.06Y-3.8583
X5.0886Y-3.4941
X5.187Y-3.4941
X5.2067Y-3.5925
X5.2067Y-3.8878
X5.2848Y-4.1669
X5.2854Y-3.9665
X5.4429Y-3.878
X5.5118Y-3.6516
X5.5118Y-3.7894
X5.5974Y-3.8871
X5.5985Y-3.8451
X5.6Y-3.8025
X5.6396Y-3.8017
X5.6396Y-3.8863
X5.64Y-3.8446
X5.6807Y-3.9455
X5.7087Y-3.4547
X5.7559Y-3.8893
X5.7575Y-3.7475
X5.7579Y-3.4547
X5.7651Y-3.792
X5.7663Y-3.942
X5.9547Y-3.7992
X5.9649Y-3.5068
X6.0138Y-3.9075
X6.1319Y-3.4843
X6.3976Y-3.4744
X6.4469Y-3.2677
X6.48Y-3.376
X6.56Y-3.26
X6.6Y-3.26
X6.61Y-3.62
X6.67Y-3.45
T2
X5.4429Y-3.65
X5.4429Y-3.75
T3
X5.14Y-3.36
X5.36Y-3.36
X5.5807Y-3.36
X5.84Y-3.36
X6.0827Y-3.3563
X6.3284Y-3.36
T4
X6.45Y-4.15
T0
M30
