G04 #@! TF.FileFunction,Soldermask,Bot*
%FSLAX46Y46*%
G04 Gerber Fmt 4.6, Leading zero omitted, Abs format (unit mm)*
G04 Created by KiCad (PCBNEW 4.0.6-e0-6349~53~ubuntu16.04.1) date Sun Jul  9 20:30:41 2017*
%MOMM*%
%LPD*%
G01*
G04 APERTURE LIST*
%ADD10C,0.100000*%
%ADD11R,3.600000X1.700000*%
%ADD12C,4.164000*%
%ADD13R,0.710000X1.370000*%
%ADD14R,0.710000X1.120000*%
%ADD15R,4.010000X3.910000*%
%ADD16R,0.850000X0.900000*%
%ADD17R,0.900000X0.900000*%
%ADD18R,0.600000X1.000000*%
%ADD19R,1.000000X0.600000*%
%ADD20R,2.100000X2.300000*%
%ADD21C,1.500000*%
%ADD22O,1.500000X1.500000*%
%ADD23R,1.100000X3.100000*%
%ADD24R,3.400000X4.500000*%
%ADD25R,4.000000X6.300000*%
%ADD26C,2.100000*%
%ADD27R,0.500000X1.450000*%
%ADD28R,2.200000X1.700000*%
%ADD29R,1.900000X2.000000*%
%ADD30R,2.000000X2.000000*%
G04 APERTURE END LIST*
D10*
D11*
X155194000Y-95150000D03*
X155194000Y-90270000D03*
D12*
X154500000Y-85250000D03*
X148336000Y-85344000D03*
X141750000Y-85344000D03*
X160740864Y-85344000D03*
D13*
X147320000Y-89408000D03*
X148590000Y-89408000D03*
X149860000Y-89408000D03*
X151130000Y-89408000D03*
D14*
X151130000Y-94873000D03*
X149860000Y-94873000D03*
X148590000Y-94873000D03*
X147320000Y-94873000D03*
D15*
X149225000Y-92768000D03*
D13*
X141224000Y-89408000D03*
X142494000Y-89408000D03*
X143764000Y-89408000D03*
X145034000Y-89408000D03*
D14*
X145034000Y-94873000D03*
X143764000Y-94873000D03*
X142494000Y-94873000D03*
X141224000Y-94873000D03*
D15*
X143129000Y-92768000D03*
D16*
X118250000Y-92000000D03*
X118250000Y-93500000D03*
D17*
X126388000Y-92750000D03*
X124788000Y-92750000D03*
X126388000Y-91264268D03*
X124788000Y-91264268D03*
D18*
X123290000Y-92750000D03*
X121790000Y-92750000D03*
D19*
X112010000Y-101068000D03*
X112010000Y-99568000D03*
X115058000Y-99583010D03*
X115058000Y-101083010D03*
X113534000Y-99583010D03*
X113534000Y-101083010D03*
D20*
X126244000Y-84328000D03*
X120644000Y-84328000D03*
D21*
X138250000Y-95250000D03*
D22*
X138250000Y-92710000D03*
D12*
X136144000Y-85344000D03*
X130556000Y-85344000D03*
D18*
X123290000Y-91264268D03*
X121790000Y-91264268D03*
D23*
X110460000Y-91480000D03*
X110460000Y-97020000D03*
X113000000Y-91480000D03*
X113000000Y-97020000D03*
X115540000Y-91480000D03*
X115540000Y-97020000D03*
X113030000Y-84352000D03*
X118110000Y-84352000D03*
X110490000Y-87352000D03*
X115570000Y-87352000D03*
D24*
X163130000Y-92610000D03*
D25*
X170280000Y-101610000D03*
X157380000Y-101610000D03*
D26*
X163830000Y-105410000D03*
D27*
X115050000Y-103625000D03*
X114400000Y-103625000D03*
X113750000Y-103625000D03*
X113100000Y-103625000D03*
X112450000Y-103625000D03*
D28*
X116850000Y-103750000D03*
X110650000Y-103750000D03*
D29*
X117550000Y-106500000D03*
X109950000Y-106500000D03*
D30*
X114950000Y-106500000D03*
X112550000Y-106500000D03*
M02*
