G04 #@! TF.FileFunction,Copper,L1,Top,Signal*
%FSLAX46Y46*%
G04 Gerber Fmt 4.6, Leading zero omitted, Abs format (unit mm)*
G04 Created by KiCad (PCBNEW 4.0.6-e0-6349~53~ubuntu16.04.1) date Sun Jul  9 20:30:41 2017*
%MOMM*%
%LPD*%
G01*
G04 APERTURE LIST*
%ADD10C,0.100000*%
%ADD11R,1.000000X1.000000*%
%ADD12R,0.900000X0.800000*%
%ADD13R,0.650000X0.300000*%
%ADD14R,0.775000X1.240000*%
%ADD15R,1.060000X0.650000*%
%ADD16C,4.064000*%
%ADD17R,1.050000X1.430000*%
%ADD18R,1.250000X1.000000*%
%ADD19R,0.750000X0.800000*%
%ADD20R,0.800000X0.750000*%
%ADD21R,1.600000X1.000000*%
%ADD22R,0.800000X0.800000*%
%ADD23R,0.900000X0.500000*%
%ADD24R,0.500000X0.900000*%
%ADD25R,1.700000X0.900000*%
%ADD26C,1.400000*%
%ADD27O,1.400000X1.400000*%
%ADD28C,0.685800*%
%ADD29C,0.600000*%
%ADD30C,0.250000*%
%ADD31C,0.300000*%
%ADD32C,1.000000*%
%ADD33C,0.400000*%
%ADD34C,2.000000*%
G04 APERTURE END LIST*
D10*
D11*
X138250000Y-100750000D03*
X135750000Y-100750000D03*
D12*
X140000000Y-89550000D03*
X140000000Y-91450000D03*
X142000000Y-90500000D03*
D13*
X165582000Y-83836000D03*
X165582000Y-84336000D03*
X165582000Y-84836000D03*
X165582000Y-85336000D03*
X165582000Y-85836000D03*
X168682000Y-85836000D03*
X168682000Y-85336000D03*
X168682000Y-84836000D03*
X168682000Y-84336000D03*
X168682000Y-83836000D03*
D14*
X167519500Y-85456000D03*
X167519500Y-84216000D03*
X166744500Y-85456000D03*
X166744500Y-84216000D03*
D15*
X122083000Y-102994000D03*
X122083000Y-103944000D03*
X122083000Y-104894000D03*
X124283000Y-104894000D03*
X124283000Y-102994000D03*
D10*
G36*
X120707689Y-90268621D02*
X120884466Y-90445398D01*
X119965227Y-91364637D01*
X119788450Y-91187860D01*
X120707689Y-90268621D01*
X120707689Y-90268621D01*
G37*
G36*
X120354136Y-89915068D02*
X120530913Y-90091845D01*
X119611674Y-91011084D01*
X119434897Y-90834307D01*
X120354136Y-89915068D01*
X120354136Y-89915068D01*
G37*
G36*
X120000582Y-89561514D02*
X120177359Y-89738291D01*
X119258120Y-90657530D01*
X119081343Y-90480753D01*
X120000582Y-89561514D01*
X120000582Y-89561514D01*
G37*
G36*
X119647029Y-89207961D02*
X119823806Y-89384738D01*
X118904567Y-90303977D01*
X118727790Y-90127200D01*
X119647029Y-89207961D01*
X119647029Y-89207961D01*
G37*
G36*
X119293476Y-88854408D02*
X119470253Y-89031185D01*
X118551014Y-89950424D01*
X118374237Y-89773647D01*
X119293476Y-88854408D01*
X119293476Y-88854408D01*
G37*
G36*
X118939922Y-88500854D02*
X119116699Y-88677631D01*
X118197460Y-89596870D01*
X118020683Y-89420093D01*
X118939922Y-88500854D01*
X118939922Y-88500854D01*
G37*
G36*
X118586369Y-88147301D02*
X118763146Y-88324078D01*
X117843907Y-89243317D01*
X117667130Y-89066540D01*
X118586369Y-88147301D01*
X118586369Y-88147301D01*
G37*
G36*
X118232815Y-87793747D02*
X118409592Y-87970524D01*
X117490353Y-88889763D01*
X117313576Y-88712986D01*
X118232815Y-87793747D01*
X118232815Y-87793747D01*
G37*
G36*
X117879262Y-87440194D02*
X118056039Y-87616971D01*
X117136800Y-88536210D01*
X116960023Y-88359433D01*
X117879262Y-87440194D01*
X117879262Y-87440194D01*
G37*
G36*
X117525709Y-87086641D02*
X117702486Y-87263418D01*
X116783247Y-88182657D01*
X116606470Y-88005880D01*
X117525709Y-87086641D01*
X117525709Y-87086641D01*
G37*
G36*
X117172155Y-86733087D02*
X117348932Y-86909864D01*
X116429693Y-87829103D01*
X116252916Y-87652326D01*
X117172155Y-86733087D01*
X117172155Y-86733087D01*
G37*
G36*
X116818602Y-86379534D02*
X116995379Y-86556311D01*
X116076140Y-87475550D01*
X115899363Y-87298773D01*
X116818602Y-86379534D01*
X116818602Y-86379534D01*
G37*
G36*
X113636621Y-86556311D02*
X113813398Y-86379534D01*
X114732637Y-87298773D01*
X114555860Y-87475550D01*
X113636621Y-86556311D01*
X113636621Y-86556311D01*
G37*
G36*
X113283068Y-86909864D02*
X113459845Y-86733087D01*
X114379084Y-87652326D01*
X114202307Y-87829103D01*
X113283068Y-86909864D01*
X113283068Y-86909864D01*
G37*
G36*
X112929514Y-87263418D02*
X113106291Y-87086641D01*
X114025530Y-88005880D01*
X113848753Y-88182657D01*
X112929514Y-87263418D01*
X112929514Y-87263418D01*
G37*
G36*
X112575961Y-87616971D02*
X112752738Y-87440194D01*
X113671977Y-88359433D01*
X113495200Y-88536210D01*
X112575961Y-87616971D01*
X112575961Y-87616971D01*
G37*
G36*
X112222408Y-87970524D02*
X112399185Y-87793747D01*
X113318424Y-88712986D01*
X113141647Y-88889763D01*
X112222408Y-87970524D01*
X112222408Y-87970524D01*
G37*
G36*
X111868854Y-88324078D02*
X112045631Y-88147301D01*
X112964870Y-89066540D01*
X112788093Y-89243317D01*
X111868854Y-88324078D01*
X111868854Y-88324078D01*
G37*
G36*
X111515301Y-88677631D02*
X111692078Y-88500854D01*
X112611317Y-89420093D01*
X112434540Y-89596870D01*
X111515301Y-88677631D01*
X111515301Y-88677631D01*
G37*
G36*
X111161747Y-89031185D02*
X111338524Y-88854408D01*
X112257763Y-89773647D01*
X112080986Y-89950424D01*
X111161747Y-89031185D01*
X111161747Y-89031185D01*
G37*
G36*
X110808194Y-89384738D02*
X110984971Y-89207961D01*
X111904210Y-90127200D01*
X111727433Y-90303977D01*
X110808194Y-89384738D01*
X110808194Y-89384738D01*
G37*
G36*
X110454641Y-89738291D02*
X110631418Y-89561514D01*
X111550657Y-90480753D01*
X111373880Y-90657530D01*
X110454641Y-89738291D01*
X110454641Y-89738291D01*
G37*
G36*
X110101087Y-90091845D02*
X110277864Y-89915068D01*
X111197103Y-90834307D01*
X111020326Y-91011084D01*
X110101087Y-90091845D01*
X110101087Y-90091845D01*
G37*
G36*
X109747534Y-90445398D02*
X109924311Y-90268621D01*
X110843550Y-91187860D01*
X110666773Y-91364637D01*
X109747534Y-90445398D01*
X109747534Y-90445398D01*
G37*
G36*
X110666773Y-92531363D02*
X110843550Y-92708140D01*
X109924311Y-93627379D01*
X109747534Y-93450602D01*
X110666773Y-92531363D01*
X110666773Y-92531363D01*
G37*
G36*
X111020326Y-92884916D02*
X111197103Y-93061693D01*
X110277864Y-93980932D01*
X110101087Y-93804155D01*
X111020326Y-92884916D01*
X111020326Y-92884916D01*
G37*
G36*
X111373880Y-93238470D02*
X111550657Y-93415247D01*
X110631418Y-94334486D01*
X110454641Y-94157709D01*
X111373880Y-93238470D01*
X111373880Y-93238470D01*
G37*
G36*
X111727433Y-93592023D02*
X111904210Y-93768800D01*
X110984971Y-94688039D01*
X110808194Y-94511262D01*
X111727433Y-93592023D01*
X111727433Y-93592023D01*
G37*
G36*
X112080986Y-93945576D02*
X112257763Y-94122353D01*
X111338524Y-95041592D01*
X111161747Y-94864815D01*
X112080986Y-93945576D01*
X112080986Y-93945576D01*
G37*
G36*
X112434540Y-94299130D02*
X112611317Y-94475907D01*
X111692078Y-95395146D01*
X111515301Y-95218369D01*
X112434540Y-94299130D01*
X112434540Y-94299130D01*
G37*
G36*
X112788093Y-94652683D02*
X112964870Y-94829460D01*
X112045631Y-95748699D01*
X111868854Y-95571922D01*
X112788093Y-94652683D01*
X112788093Y-94652683D01*
G37*
G36*
X113141647Y-95006237D02*
X113318424Y-95183014D01*
X112399185Y-96102253D01*
X112222408Y-95925476D01*
X113141647Y-95006237D01*
X113141647Y-95006237D01*
G37*
G36*
X113495200Y-95359790D02*
X113671977Y-95536567D01*
X112752738Y-96455806D01*
X112575961Y-96279029D01*
X113495200Y-95359790D01*
X113495200Y-95359790D01*
G37*
G36*
X113848753Y-95713343D02*
X114025530Y-95890120D01*
X113106291Y-96809359D01*
X112929514Y-96632582D01*
X113848753Y-95713343D01*
X113848753Y-95713343D01*
G37*
G36*
X114202307Y-96066897D02*
X114379084Y-96243674D01*
X113459845Y-97162913D01*
X113283068Y-96986136D01*
X114202307Y-96066897D01*
X114202307Y-96066897D01*
G37*
G36*
X114555860Y-96420450D02*
X114732637Y-96597227D01*
X113813398Y-97516466D01*
X113636621Y-97339689D01*
X114555860Y-96420450D01*
X114555860Y-96420450D01*
G37*
G36*
X115899363Y-96597227D02*
X116076140Y-96420450D01*
X116995379Y-97339689D01*
X116818602Y-97516466D01*
X115899363Y-96597227D01*
X115899363Y-96597227D01*
G37*
G36*
X116252916Y-96243674D02*
X116429693Y-96066897D01*
X117348932Y-96986136D01*
X117172155Y-97162913D01*
X116252916Y-96243674D01*
X116252916Y-96243674D01*
G37*
G36*
X116606470Y-95890120D02*
X116783247Y-95713343D01*
X117702486Y-96632582D01*
X117525709Y-96809359D01*
X116606470Y-95890120D01*
X116606470Y-95890120D01*
G37*
G36*
X116960023Y-95536567D02*
X117136800Y-95359790D01*
X118056039Y-96279029D01*
X117879262Y-96455806D01*
X116960023Y-95536567D01*
X116960023Y-95536567D01*
G37*
G36*
X117313576Y-95183014D02*
X117490353Y-95006237D01*
X118409592Y-95925476D01*
X118232815Y-96102253D01*
X117313576Y-95183014D01*
X117313576Y-95183014D01*
G37*
G36*
X117667130Y-94829460D02*
X117843907Y-94652683D01*
X118763146Y-95571922D01*
X118586369Y-95748699D01*
X117667130Y-94829460D01*
X117667130Y-94829460D01*
G37*
G36*
X118020683Y-94475907D02*
X118197460Y-94299130D01*
X119116699Y-95218369D01*
X118939922Y-95395146D01*
X118020683Y-94475907D01*
X118020683Y-94475907D01*
G37*
G36*
X118374237Y-94122353D02*
X118551014Y-93945576D01*
X119470253Y-94864815D01*
X119293476Y-95041592D01*
X118374237Y-94122353D01*
X118374237Y-94122353D01*
G37*
G36*
X118727790Y-93768800D02*
X118904567Y-93592023D01*
X119823806Y-94511262D01*
X119647029Y-94688039D01*
X118727790Y-93768800D01*
X118727790Y-93768800D01*
G37*
G36*
X119081343Y-93415247D02*
X119258120Y-93238470D01*
X120177359Y-94157709D01*
X120000582Y-94334486D01*
X119081343Y-93415247D01*
X119081343Y-93415247D01*
G37*
G36*
X119434897Y-93061693D02*
X119611674Y-92884916D01*
X120530913Y-93804155D01*
X120354136Y-93980932D01*
X119434897Y-93061693D01*
X119434897Y-93061693D01*
G37*
G36*
X119788450Y-92708140D02*
X119965227Y-92531363D01*
X120884466Y-93450602D01*
X120707689Y-93627379D01*
X119788450Y-92708140D01*
X119788450Y-92708140D01*
G37*
D16*
X154500000Y-85250000D03*
X148336000Y-85344000D03*
X141750000Y-85344000D03*
X160740864Y-85344000D03*
D13*
X141192500Y-96493000D03*
X141192500Y-96993000D03*
X141192500Y-97493000D03*
X141192500Y-97993000D03*
X141192500Y-98493000D03*
X144292500Y-98493000D03*
X144292500Y-97993000D03*
X144292500Y-97493000D03*
X144292500Y-96993000D03*
X144292500Y-96493000D03*
D17*
X143245000Y-98458000D03*
X143263000Y-97028000D03*
X142242500Y-98458000D03*
X142240000Y-97028000D03*
D13*
X141192500Y-98993000D03*
X144292500Y-98993000D03*
D18*
X167894000Y-89646000D03*
X167894000Y-87646000D03*
X166116000Y-89646000D03*
X166116000Y-87646000D03*
D19*
X127500000Y-88750000D03*
X127500000Y-90250000D03*
X126000000Y-90250000D03*
X126000000Y-88750000D03*
X162314000Y-89548000D03*
X162314000Y-91048000D03*
X162314000Y-92596000D03*
X162314000Y-94096000D03*
X133604000Y-95746000D03*
X133604000Y-94246000D03*
X133604000Y-92698000D03*
X133604000Y-91198000D03*
X133604000Y-97294000D03*
X133604000Y-98794000D03*
D20*
X148250000Y-99250000D03*
X149750000Y-99250000D03*
D19*
X151250000Y-97750000D03*
X151250000Y-99250000D03*
X149750000Y-97750000D03*
X149750000Y-96250000D03*
D21*
X119670000Y-103140000D03*
X119670000Y-106140000D03*
D10*
G36*
X126298008Y-86017678D02*
X125767678Y-86548008D01*
X125201992Y-85982322D01*
X125732322Y-85451992D01*
X126298008Y-86017678D01*
X126298008Y-86017678D01*
G37*
G36*
X125237348Y-84957018D02*
X124707018Y-85487348D01*
X124141332Y-84921662D01*
X124671662Y-84391332D01*
X125237348Y-84957018D01*
X125237348Y-84957018D01*
G37*
D19*
X117638000Y-102874000D03*
X117638000Y-104374000D03*
D10*
G36*
X122171662Y-82951992D02*
X122701992Y-82421662D01*
X123267678Y-82987348D01*
X122737348Y-83517678D01*
X122171662Y-82951992D01*
X122171662Y-82951992D01*
G37*
G36*
X123232322Y-84012652D02*
X123762652Y-83482322D01*
X124328338Y-84048008D01*
X123798008Y-84578338D01*
X123232322Y-84012652D01*
X123232322Y-84012652D01*
G37*
D20*
X117750000Y-101500000D03*
X119250000Y-101500000D03*
D19*
X126274000Y-104906000D03*
X126274000Y-106406000D03*
D21*
X128306000Y-103140000D03*
X128306000Y-106140000D03*
D19*
X126274000Y-102850000D03*
X126274000Y-101350000D03*
D20*
X115000000Y-83250000D03*
X116500000Y-83250000D03*
X110478000Y-97536000D03*
X108978000Y-97536000D03*
D19*
X109250000Y-99750000D03*
X109250000Y-101250000D03*
D22*
X171196000Y-91008000D03*
X171196000Y-89408000D03*
D23*
X171196000Y-88126000D03*
X171196000Y-86626000D03*
X171196000Y-83820000D03*
X171196000Y-85320000D03*
X143500000Y-93500000D03*
X143500000Y-92000000D03*
X138250000Y-91000000D03*
X138250000Y-89500000D03*
D24*
X133362000Y-102108000D03*
X134862000Y-102108000D03*
X133362000Y-103632000D03*
X134862000Y-103632000D03*
D23*
X143500000Y-89000000D03*
X143500000Y-90500000D03*
D24*
X139458000Y-102108000D03*
X140958000Y-102108000D03*
X139458000Y-103632000D03*
X140958000Y-103632000D03*
D23*
X149750000Y-89000000D03*
X149750000Y-90500000D03*
D24*
X132322000Y-93472000D03*
X130822000Y-93472000D03*
D25*
X128524000Y-93546000D03*
X128524000Y-96446000D03*
D23*
X151250000Y-89000000D03*
X151250000Y-90500000D03*
X145000000Y-89000000D03*
X145000000Y-90500000D03*
D24*
X132322000Y-96520000D03*
X130822000Y-96520000D03*
D23*
X152750000Y-90500000D03*
X152750000Y-89000000D03*
X148250000Y-90500000D03*
X148250000Y-89000000D03*
D24*
X123500000Y-95500000D03*
X122000000Y-95500000D03*
D23*
X109750000Y-85500000D03*
X109750000Y-87000000D03*
D24*
X112000000Y-83250000D03*
X113500000Y-83250000D03*
D26*
X138250000Y-95250000D03*
D27*
X138250000Y-92710000D03*
D10*
G36*
X124863783Y-87416727D02*
X123166727Y-89113783D01*
X121752513Y-87699569D01*
X123449569Y-86002513D01*
X124863783Y-87416727D01*
X124863783Y-87416727D01*
G37*
G36*
X122247487Y-84800431D02*
X120550431Y-86497487D01*
X119136217Y-85083273D01*
X120833273Y-83386217D01*
X122247487Y-84800431D01*
X122247487Y-84800431D01*
G37*
D16*
X136144000Y-85344000D03*
X130556000Y-85344000D03*
D11*
X138250000Y-105000000D03*
X135750000Y-105000000D03*
D28*
X167894000Y-91948000D03*
X116771021Y-84484666D03*
X134232668Y-105838653D03*
X134250000Y-100750000D03*
X120250000Y-101500000D03*
X109250000Y-102250000D03*
X109000000Y-96500000D03*
X114441949Y-94558051D03*
X120993604Y-94620415D03*
X126500000Y-87500000D03*
X119250000Y-87000000D03*
X109500000Y-89250000D03*
X125000000Y-106250000D03*
X125000000Y-101250000D03*
X123500000Y-85000000D03*
X123250000Y-104000000D03*
X166624000Y-82804000D03*
X167640000Y-82804000D03*
X169418000Y-87630000D03*
X131750000Y-88750000D03*
X129250000Y-88750000D03*
X162500000Y-88250000D03*
X164592000Y-85750000D03*
X163750000Y-83000000D03*
X140000000Y-92750000D03*
X146250000Y-87750000D03*
X155750000Y-88500000D03*
X140000000Y-96250000D03*
X142202935Y-97665554D03*
X143257074Y-97653367D03*
X143246387Y-98710863D03*
X142173081Y-98732187D03*
X143244799Y-96563989D03*
X142241016Y-96583906D03*
X152750000Y-99250000D03*
X132250000Y-98750000D03*
X132250000Y-91250000D03*
X128524000Y-98000000D03*
X128500000Y-99000000D03*
X115250000Y-102000000D03*
X119750000Y-104500000D03*
X122000000Y-106250000D03*
X116693953Y-89257477D03*
X126222618Y-95651980D03*
X109750000Y-95000000D03*
X123250000Y-97000000D03*
X120259000Y-99750000D03*
X119250000Y-92000000D03*
X115010047Y-85000000D03*
X121250000Y-89250000D03*
X112750000Y-93750000D03*
X116250000Y-94000000D03*
X120250000Y-98250000D03*
X122000000Y-97250000D03*
X113750000Y-93750000D03*
X109250000Y-84500000D03*
X145000000Y-87750000D03*
X151507790Y-89073009D03*
X146465173Y-100125637D03*
X146433051Y-96316949D03*
X122750000Y-98500000D03*
X123750000Y-100000000D03*
X146199591Y-98787117D03*
X151250000Y-96500000D03*
X144290239Y-100216432D03*
X146239416Y-95187037D03*
X114354887Y-98270103D03*
X116217050Y-99374990D03*
X138250000Y-98500000D03*
D29*
X167894000Y-91948000D02*
X167894000Y-90932000D01*
X167894000Y-90932000D02*
X167894000Y-89646000D01*
X169926000Y-90738000D02*
X168088000Y-90738000D01*
X168088000Y-90738000D02*
X167894000Y-90932000D01*
X171196000Y-91008000D02*
X170196000Y-91008000D01*
X170196000Y-91008000D02*
X169926000Y-90738000D01*
D30*
X164600000Y-84336000D02*
X164600000Y-83828000D01*
X164600000Y-83828000D02*
X164592000Y-83820000D01*
D29*
X167894000Y-89646000D02*
X167894000Y-90678000D01*
X167894000Y-90678000D02*
X167640000Y-90932000D01*
X167640000Y-90932000D02*
X164846000Y-90932000D01*
X164846000Y-90932000D02*
X163791990Y-89877990D01*
X163791990Y-84112010D02*
X164084000Y-83820000D01*
X163791990Y-89877990D02*
X163791990Y-84112010D01*
X164084000Y-83820000D02*
X164592000Y-83820000D01*
D30*
X164600000Y-84336000D02*
X165582000Y-84336000D01*
X165391000Y-83820000D02*
X164592000Y-83820000D01*
X165582000Y-83836000D02*
X165407000Y-83836000D01*
X165407000Y-83836000D02*
X165391000Y-83820000D01*
X116771021Y-84484666D02*
X116771021Y-83521021D01*
X116771021Y-83521021D02*
X116500000Y-83250000D01*
X134232668Y-105767332D02*
X134232668Y-105838653D01*
X135000000Y-105000000D02*
X134232668Y-105767332D01*
X135750000Y-105000000D02*
X135000000Y-105000000D01*
X135750000Y-100750000D02*
X134250000Y-100750000D01*
X123500000Y-85000000D02*
X123842899Y-85342899D01*
X123842899Y-85342899D02*
X124285781Y-85342899D01*
X124285781Y-85342899D02*
X124689340Y-84939340D01*
X123500000Y-85000000D02*
X123500000Y-84310660D01*
X123500000Y-84310660D02*
X123780330Y-84030330D01*
X166744500Y-85456000D02*
X166744500Y-84216000D01*
X167519500Y-85456000D02*
X166744500Y-85456000D01*
X167519500Y-84216000D02*
X167519500Y-85456000D01*
X119250000Y-101500000D02*
X120250000Y-101500000D01*
X109250000Y-101250000D02*
X109250000Y-102250000D01*
X108978000Y-97536000D02*
X108978000Y-96522000D01*
X108978000Y-96522000D02*
X109000000Y-96500000D01*
X114741948Y-94858050D02*
X114441949Y-94558051D01*
X114741948Y-95704033D02*
X114741948Y-94858050D01*
X113831076Y-96614905D02*
X114741948Y-95704033D01*
X120993604Y-94443623D02*
X120993604Y-94620415D01*
X119982905Y-93432924D02*
X120993604Y-94443623D01*
X126000000Y-88750000D02*
X125375000Y-88750000D01*
X125375000Y-88750000D02*
X124947204Y-89177796D01*
X124947204Y-91069204D02*
X127424000Y-93546000D01*
X124947204Y-89177796D02*
X124947204Y-91069204D01*
X127424000Y-93546000D02*
X128524000Y-93546000D01*
X126000000Y-88750000D02*
X126000000Y-88000000D01*
X126000000Y-88000000D02*
X126500000Y-87500000D01*
X117861584Y-88341755D02*
X117908245Y-88341755D01*
X117908245Y-88341755D02*
X119250000Y-87000000D01*
X110649095Y-90463076D02*
X110649095Y-90399095D01*
X110649095Y-90399095D02*
X109500000Y-89250000D01*
D31*
X126274000Y-106406000D02*
X125156000Y-106406000D01*
X125156000Y-106406000D02*
X125000000Y-106250000D01*
D30*
X126274000Y-101350000D02*
X125100000Y-101350000D01*
X125100000Y-101350000D02*
X125000000Y-101250000D01*
D31*
X122083000Y-103944000D02*
X123194000Y-103944000D01*
X123194000Y-103944000D02*
X123250000Y-104000000D01*
X122083000Y-103944000D02*
X121253000Y-103944000D01*
X121253000Y-103944000D02*
X120770000Y-104427000D01*
X120770000Y-104427000D02*
X120770000Y-105340000D01*
X120770000Y-105340000D02*
X119970000Y-106140000D01*
X119970000Y-106140000D02*
X119670000Y-106140000D01*
X117638000Y-104374000D02*
X117904000Y-104374000D01*
X117904000Y-104374000D02*
X119670000Y-106140000D01*
X126274000Y-106406000D02*
X128040000Y-106406000D01*
X128040000Y-106406000D02*
X128306000Y-106140000D01*
X128524000Y-93546000D02*
X130748000Y-93546000D01*
X130748000Y-93546000D02*
X130822000Y-93472000D01*
X138250000Y-91000000D02*
X138250000Y-90450000D01*
X138250000Y-90450000D02*
X138027182Y-90227182D01*
X138027182Y-90227182D02*
X130556000Y-90227182D01*
D32*
X128524000Y-93546000D02*
X128524000Y-92259182D01*
X128524000Y-92259182D02*
X130556000Y-90227182D01*
X130556000Y-90227182D02*
X130556000Y-85344000D01*
D29*
X166744500Y-84216000D02*
X166744500Y-82924500D01*
X166744500Y-82924500D02*
X166624000Y-82804000D01*
X167519500Y-84216000D02*
X167519500Y-82924500D01*
X167519500Y-82924500D02*
X167640000Y-82804000D01*
D30*
X168682000Y-84336000D02*
X167639500Y-84336000D01*
X167639500Y-84336000D02*
X167519500Y-84216000D01*
D29*
X167894000Y-87646000D02*
X169402000Y-87646000D01*
X169402000Y-87646000D02*
X169418000Y-87630000D01*
X166116000Y-87646000D02*
X167894000Y-87646000D01*
D30*
X169664000Y-84336000D02*
X169672000Y-84344000D01*
X169672000Y-84344000D02*
X169672000Y-84836000D01*
X168682000Y-84336000D02*
X169664000Y-84336000D01*
X170156000Y-85320000D02*
X169672000Y-84836000D01*
X169672000Y-84836000D02*
X168682000Y-84836000D01*
X171196000Y-85320000D02*
X170156000Y-85320000D01*
D31*
X164592000Y-85750000D02*
X164592000Y-85344000D01*
D30*
X131750000Y-88750000D02*
X135156000Y-85344000D01*
X135156000Y-85344000D02*
X136144000Y-85344000D01*
X127500000Y-88750000D02*
X129250000Y-88750000D01*
D31*
X162314000Y-89548000D02*
X162314000Y-88436000D01*
X162314000Y-88436000D02*
X162500000Y-88250000D01*
D33*
X136144000Y-85344000D02*
X138835584Y-82652416D01*
X138835584Y-82652416D02*
X163402416Y-82652416D01*
X163402416Y-82652416D02*
X163500000Y-82750000D01*
D31*
X163500000Y-82750000D02*
X163750000Y-83000000D01*
X140000000Y-91450000D02*
X140000000Y-92750000D01*
X141500000Y-92000000D02*
X140950000Y-91450000D01*
X140950000Y-91450000D02*
X140000000Y-91450000D01*
X143500000Y-92000000D02*
X141500000Y-92000000D01*
X143500000Y-90500000D02*
X143500000Y-92000000D01*
D30*
X164592000Y-84836000D02*
X164592000Y-85344000D01*
D29*
X164592000Y-85344000D02*
X164592000Y-89408000D01*
X164592000Y-89408000D02*
X164830000Y-89646000D01*
X164830000Y-89646000D02*
X166116000Y-89646000D01*
D30*
X164592000Y-84836000D02*
X165582000Y-84836000D01*
X164999000Y-85344000D02*
X164592000Y-85344000D01*
X165582000Y-85336000D02*
X165007000Y-85336000D01*
X165007000Y-85336000D02*
X164999000Y-85344000D01*
X126000000Y-90250000D02*
X127500000Y-90250000D01*
X162314000Y-91048000D02*
X162314000Y-92596000D01*
D31*
X149750000Y-90500000D02*
X149550000Y-90500000D01*
X149550000Y-90500000D02*
X148949999Y-89899999D01*
X148949999Y-89899999D02*
X147819997Y-89899999D01*
X147819997Y-89899999D02*
X146250000Y-88330002D01*
X146250000Y-88330002D02*
X146250000Y-87750000D01*
X162314000Y-94096000D02*
X161346000Y-94096000D01*
X161346000Y-94096000D02*
X155750000Y-88500000D01*
X133750000Y-96520000D02*
X134500000Y-96520000D01*
X141192500Y-97493000D02*
X135473000Y-97493000D01*
X135473000Y-97493000D02*
X134500000Y-96520000D01*
X133604000Y-97294000D02*
X133604000Y-96594000D01*
X133604000Y-96594000D02*
X133678000Y-96520000D01*
X133678000Y-96520000D02*
X133750000Y-96520000D01*
X132322000Y-96520000D02*
X133750000Y-96520000D01*
X133604000Y-95746000D02*
X133604000Y-96446000D01*
X133604000Y-96446000D02*
X133678000Y-96520000D01*
X133750000Y-93472000D02*
X134500000Y-93472000D01*
X138021000Y-96993000D02*
X134500000Y-93472000D01*
X141192500Y-96993000D02*
X138021000Y-96993000D01*
X133604000Y-94246000D02*
X133604000Y-93546000D01*
X133604000Y-93546000D02*
X133678000Y-93472000D01*
X133678000Y-93472000D02*
X133750000Y-93472000D01*
X132322000Y-93472000D02*
X133750000Y-93472000D01*
X133604000Y-93398000D02*
X133678000Y-93472000D01*
X133604000Y-92698000D02*
X133604000Y-93398000D01*
D30*
X141192500Y-96493000D02*
X140243000Y-96493000D01*
X140243000Y-96493000D02*
X140000000Y-96250000D01*
X142173081Y-97695408D02*
X142202935Y-97665554D01*
X142173081Y-98732187D02*
X142173081Y-97695408D01*
D31*
X142150110Y-96493000D02*
X142241016Y-96583906D01*
X141192500Y-96493000D02*
X142150110Y-96493000D01*
X151250000Y-99250000D02*
X152750000Y-99250000D01*
X133604000Y-98794000D02*
X132294000Y-98794000D01*
X132294000Y-98794000D02*
X132250000Y-98750000D01*
X133604000Y-91198000D02*
X132302000Y-91198000D01*
X132302000Y-91198000D02*
X132250000Y-91250000D01*
D32*
X128524000Y-96446000D02*
X128524000Y-98000000D01*
X128500000Y-99000000D02*
X128500000Y-98024000D01*
X128500000Y-98024000D02*
X128524000Y-98000000D01*
D31*
X128524000Y-96446000D02*
X130748000Y-96446000D01*
X130748000Y-96446000D02*
X130822000Y-96520000D01*
X149750000Y-99250000D02*
X151250000Y-99250000D01*
X148250000Y-99250000D02*
X148225000Y-99250000D01*
X148225000Y-99250000D02*
X146941972Y-97966972D01*
X145232854Y-97493000D02*
X144917500Y-97493000D01*
X145706826Y-97966972D02*
X145232854Y-97493000D01*
X144917500Y-97493000D02*
X144292500Y-97493000D01*
X146941972Y-97966972D02*
X145706826Y-97966972D01*
X148250000Y-99250000D02*
X148412794Y-99087206D01*
X151250000Y-97750000D02*
X151925000Y-97750000D01*
X151925000Y-97750000D02*
X152750000Y-96925000D01*
X152750000Y-96925000D02*
X152750000Y-90500000D01*
X145913938Y-97466962D02*
X148791962Y-97466962D01*
X149075000Y-97750000D02*
X149750000Y-97750000D01*
X148791962Y-97466962D02*
X149075000Y-97750000D01*
X144292500Y-96993000D02*
X145439976Y-96993000D01*
X145439976Y-96993000D02*
X145913938Y-97466962D01*
X151250000Y-97750000D02*
X149750000Y-97750000D01*
X149075000Y-96250000D02*
X149750000Y-96250000D01*
X144292500Y-96493000D02*
X145647098Y-96493000D01*
X146121049Y-96966951D02*
X148358049Y-96966951D01*
X145647098Y-96493000D02*
X146121049Y-96966951D01*
X148358049Y-96966951D02*
X149075000Y-96250000D01*
D30*
X148250000Y-93250000D02*
X149750000Y-94750000D01*
X149750000Y-94750000D02*
X149750000Y-96250000D01*
X148250000Y-90500000D02*
X148250000Y-93250000D01*
D31*
X149507000Y-96493000D02*
X149750000Y-96250000D01*
D30*
X117750000Y-101500000D02*
X117750000Y-102762000D01*
X117750000Y-102762000D02*
X117638000Y-102874000D01*
X115250000Y-102000000D02*
X116124000Y-102874000D01*
X116124000Y-102874000D02*
X117638000Y-102874000D01*
D31*
X119750000Y-104500000D02*
X119750000Y-103220000D01*
X119750000Y-103220000D02*
X119670000Y-103140000D01*
X122083000Y-104894000D02*
X122083000Y-106167000D01*
X122083000Y-106167000D02*
X122000000Y-106250000D01*
X122083000Y-102994000D02*
X119816000Y-102994000D01*
X119816000Y-102994000D02*
X119670000Y-103140000D01*
X119670000Y-103140000D02*
X117904000Y-103140000D01*
X117904000Y-103140000D02*
X117638000Y-102874000D01*
D30*
X125750000Y-86000000D02*
X125414125Y-86335875D01*
X125414125Y-86335875D02*
X125414125Y-86585875D01*
X125414125Y-86585875D02*
X124441852Y-87558148D01*
X124441852Y-87558148D02*
X123308148Y-87558148D01*
X123308148Y-87558148D02*
X122388910Y-88477386D01*
X122388910Y-88477386D02*
X119847275Y-88477386D01*
X119847275Y-88477386D02*
X118922245Y-89402416D01*
X120691852Y-84941852D02*
X122695231Y-82938473D01*
X122695231Y-82938473D02*
X122701328Y-82938473D01*
X120691852Y-86925701D02*
X118568691Y-89048862D01*
X120691852Y-84941852D02*
X120691852Y-86925701D01*
X124283000Y-104894000D02*
X126262000Y-104894000D01*
X126262000Y-104894000D02*
X126274000Y-104906000D01*
X117508031Y-87988202D02*
X116693953Y-88802280D01*
X116693953Y-88802280D02*
X116693953Y-89257477D01*
X125879719Y-95309081D02*
X126222618Y-95651980D01*
X124441578Y-94606048D02*
X125176686Y-94606048D01*
X125176686Y-94606048D02*
X125879719Y-95309081D01*
X109750000Y-95000000D02*
X109750000Y-94575736D01*
X108780394Y-93606130D02*
X108780394Y-89686033D01*
X109750000Y-94575736D02*
X108780394Y-93606130D01*
X110478000Y-98515890D02*
X110478000Y-98250000D01*
X110478000Y-98250000D02*
X110478000Y-97536000D01*
X109250000Y-99750000D02*
X109250000Y-99725000D01*
X109250000Y-99725000D02*
X110478000Y-98497000D01*
X110478000Y-98497000D02*
X110478000Y-98250000D01*
X117750000Y-98669975D02*
X117750000Y-100000000D01*
X117750000Y-100000000D02*
X111962110Y-100000000D01*
X111962110Y-100000000D02*
X110478000Y-98515890D01*
X117750000Y-98669975D02*
X119178975Y-98669975D01*
X115886146Y-98669975D02*
X117750000Y-98669975D01*
X110478000Y-97536000D02*
X110478000Y-95728000D01*
X110478000Y-95728000D02*
X109750000Y-95000000D01*
X120336458Y-93079371D02*
X121534487Y-94277400D01*
X121534487Y-94277400D02*
X124112930Y-94277400D01*
X124112930Y-94277400D02*
X124441578Y-94606048D01*
X124441578Y-94606048D02*
X124441578Y-96327877D01*
X124441578Y-96327877D02*
X123769455Y-97000000D01*
X123769455Y-97000000D02*
X123250000Y-97000000D01*
X120259000Y-99750000D02*
X123503000Y-102994000D01*
X119178975Y-98669975D02*
X120259000Y-99750000D01*
X114184629Y-96968458D02*
X115886146Y-98669975D01*
X123503000Y-102994000D02*
X124283000Y-102994000D01*
X112000000Y-84500000D02*
X110250000Y-86250000D01*
X108780394Y-89686033D02*
X109301261Y-90206900D01*
X110250000Y-86250000D02*
X109063265Y-86250000D01*
X109063265Y-86250000D02*
X108780394Y-86532871D01*
X108780394Y-86532871D02*
X108780394Y-89686033D01*
X109301261Y-90206900D02*
X109685813Y-90206900D01*
X109685813Y-90206900D02*
X110295542Y-90816629D01*
X120336458Y-93079371D02*
X120329371Y-93079371D01*
X120329371Y-93079371D02*
X119250000Y-92000000D01*
X112000000Y-83250000D02*
X112000000Y-84500000D01*
D31*
X124283000Y-102994000D02*
X126130000Y-102994000D01*
X126130000Y-102994000D02*
X126274000Y-102850000D01*
X128306000Y-103140000D02*
X126564000Y-103140000D01*
X126564000Y-103140000D02*
X126274000Y-102850000D01*
D30*
X116314994Y-89936687D02*
X116973760Y-89936687D01*
X115010047Y-88631740D02*
X116314994Y-89936687D01*
X116973760Y-89936687D02*
X117684809Y-89225638D01*
X115010047Y-85000000D02*
X115010047Y-88631740D01*
X117684809Y-89225638D02*
X118215138Y-88695309D01*
X115010047Y-83885047D02*
X115010047Y-85000000D01*
X115000000Y-83875000D02*
X115010047Y-83885047D01*
X115000000Y-83875000D02*
X115000000Y-83250000D01*
X113500000Y-83250000D02*
X115000000Y-83250000D01*
X171196000Y-88126000D02*
X171196000Y-89408000D01*
X135362000Y-102108000D02*
X138250000Y-102108000D01*
X138250000Y-102108000D02*
X139458000Y-102108000D01*
X138250000Y-100750000D02*
X138250000Y-101500000D01*
X138250000Y-101500000D02*
X138250000Y-102108000D01*
X134862000Y-102108000D02*
X135362000Y-102108000D01*
X139458000Y-103632000D02*
X138250000Y-103632000D01*
X138250000Y-103632000D02*
X134862000Y-103632000D01*
X138250000Y-105000000D02*
X138250000Y-103632000D01*
X121250000Y-89250000D02*
X121195981Y-89250000D01*
X121195981Y-89250000D02*
X119982905Y-90463076D01*
D31*
X152750000Y-89000000D02*
X152750000Y-87000000D01*
X152750000Y-87000000D02*
X154500000Y-85250000D01*
D30*
X112750000Y-93750000D02*
X114007851Y-95007851D01*
X114007851Y-95007851D02*
X114007851Y-95731022D01*
X114007851Y-95731022D02*
X113477522Y-96261351D01*
X115917042Y-96438129D02*
X116447371Y-96968458D01*
X115917042Y-94332958D02*
X115917042Y-96438129D01*
X116250000Y-94000000D02*
X115917042Y-94332958D01*
X114558902Y-93750000D02*
X113750000Y-93750000D01*
X115222784Y-94413882D02*
X114558902Y-93750000D01*
X115222784Y-97326657D02*
X115222784Y-94413882D01*
X116116091Y-98219964D02*
X115222784Y-97326657D01*
X119795700Y-98219964D02*
X116116091Y-98219964D01*
X120250000Y-98250000D02*
X119825736Y-98250000D01*
X119825736Y-98250000D02*
X119795700Y-98219964D01*
X123500000Y-95500000D02*
X123500000Y-95750000D01*
X123500000Y-95750000D02*
X122000000Y-97250000D01*
X123500000Y-95500000D02*
X123500000Y-95700000D01*
X109750000Y-85500000D02*
X109750000Y-85000000D01*
X109750000Y-85000000D02*
X109250000Y-84500000D01*
D31*
X140000000Y-89550000D02*
X138300000Y-89550000D01*
X138300000Y-89550000D02*
X138250000Y-89500000D01*
X143500000Y-89000000D02*
X142500000Y-89000000D01*
X142500000Y-89000000D02*
X142000000Y-89500000D01*
X142000000Y-89500000D02*
X142000000Y-90500000D01*
X143500000Y-89000000D02*
X145000000Y-89000000D01*
X145000000Y-87750000D02*
X145000000Y-89000000D01*
X151434781Y-89000000D02*
X151507790Y-89073009D01*
X151250000Y-89000000D02*
X151434781Y-89000000D01*
X149750000Y-89000000D02*
X151250000Y-89000000D01*
D30*
X171196000Y-86626000D02*
X170496000Y-86626000D01*
X170496000Y-86626000D02*
X169206000Y-85336000D01*
X169206000Y-85336000D02*
X168682000Y-85336000D01*
X168682000Y-83836000D02*
X171180000Y-83836000D01*
X171180000Y-83836000D02*
X171196000Y-83820000D01*
X144292500Y-98493000D02*
X144832536Y-98493000D01*
X146122274Y-99782738D02*
X146465173Y-100125637D01*
X144832536Y-98493000D02*
X146122274Y-99782738D01*
X143700000Y-93500000D02*
X144200000Y-94000000D01*
X144200000Y-94000000D02*
X144200000Y-94200000D01*
X143500000Y-93500000D02*
X143700000Y-93500000D01*
X144200000Y-94200000D02*
X146316949Y-96316949D01*
X146316949Y-96316949D02*
X146433051Y-96316949D01*
X122389445Y-99374998D02*
X118215138Y-95200691D01*
X126774138Y-99374998D02*
X122389445Y-99374998D01*
X127878613Y-100479473D02*
X126774138Y-99374998D01*
X130345884Y-100479473D02*
X127878613Y-100479473D01*
X131974411Y-102108000D02*
X130345884Y-100479473D01*
X133362000Y-102108000D02*
X131974411Y-102108000D01*
X133362000Y-103632000D02*
X132862000Y-103632000D01*
X132862000Y-103632000D02*
X130159484Y-100929484D01*
X130159484Y-100929484D02*
X127692214Y-100929484D01*
X127692214Y-100929484D02*
X126762730Y-100000000D01*
X126762730Y-100000000D02*
X123750000Y-100000000D01*
X122750000Y-98500000D02*
X122221553Y-98500000D01*
X122221553Y-98500000D02*
X118568691Y-94847138D01*
D31*
X141192500Y-98493000D02*
X139876830Y-98493000D01*
X139876830Y-98493000D02*
X139680699Y-98689131D01*
X139680699Y-98689131D02*
X139680699Y-100080699D01*
X139680699Y-100080699D02*
X140958000Y-101358000D01*
X140958000Y-101358000D02*
X140958000Y-102108000D01*
X141192500Y-98993000D02*
X140441415Y-98993000D01*
X140187295Y-99849161D02*
X141710311Y-101372177D01*
X140441415Y-98993000D02*
X140187295Y-99247120D01*
X140187295Y-99247120D02*
X140187295Y-99849161D01*
X141710311Y-101372177D02*
X141710311Y-103424089D01*
X141710311Y-103424089D02*
X141502400Y-103632000D01*
X141502400Y-103632000D02*
X140958000Y-103632000D01*
X145819851Y-98787117D02*
X146199591Y-98787117D01*
X145025734Y-97993000D02*
X145819851Y-98787117D01*
X144292500Y-97993000D02*
X145025734Y-97993000D01*
D30*
X151250000Y-90500000D02*
X151250000Y-96500000D01*
X144292500Y-100214171D02*
X144290239Y-100216432D01*
X144292500Y-98993000D02*
X144292500Y-100214171D01*
X145000000Y-93947621D02*
X145896517Y-94844138D01*
X145000000Y-90500000D02*
X145000000Y-93947621D01*
X145896517Y-94844138D02*
X146239416Y-95187037D01*
D29*
X148250000Y-89000000D02*
X148250000Y-85430000D01*
X148250000Y-85430000D02*
X148336000Y-85344000D01*
D34*
X148336000Y-85344000D02*
X141750000Y-85344000D01*
D30*
X118922245Y-94493584D02*
X119928661Y-95500000D01*
X119928661Y-95500000D02*
X122000000Y-95500000D01*
X111709755Y-89402416D02*
X109750000Y-87442661D01*
X109750000Y-87442661D02*
X109750000Y-87000000D01*
X113123969Y-95907798D02*
X113123969Y-95978492D01*
X112392338Y-97207933D02*
X113461332Y-98276927D01*
X113123969Y-95978492D02*
X112392338Y-96710123D01*
X112392338Y-96710123D02*
X112392338Y-97207933D01*
X113461332Y-98276927D02*
X114348063Y-98276927D01*
X114348063Y-98276927D02*
X114354887Y-98270103D01*
X113922984Y-99374990D02*
X116217050Y-99374990D01*
X111942327Y-97394333D02*
X113922984Y-99374990D01*
X111942327Y-96382334D02*
X111942327Y-97394333D01*
X112770416Y-95554245D02*
X111942327Y-96382334D01*
X141192500Y-97993000D02*
X138757000Y-97993000D01*
X138757000Y-97993000D02*
X138250000Y-98500000D01*
M02*
